<svg id="Layer_1" data-name="Layer 1" xmlns="http://www.w3.org/2000/svg" viewBox="0 0 1080 1080"><title>Clients logo</title><path d="M45.11,534.8l78.68,78H96.2c-15.73-15.87-33.07-33.16-50.15-50.7-10.63-10.92-20.83-22.3-39.27-19.91v-76H25.89v56.46l3.2,1.81,63.57-58.9h25.18Z"/><path d="M401.18,483.64V469.3c29.94-5,59.51,23.22,63.16,59.84,4.71,47.34-20.53,81.49-61.67,83-.6-1.26-1.69-2.59-1.8-4-.26-3.58-.08-7.2-.08-11.5,13.79-5.35,28-9.06,35.59-23.59,6.59-12.59,8.9-25.43,8.17-39.34C443.42,512.18,431.72,489.65,401.18,483.64Z"/><path d="M379.33,595.69v15.06c-31.09,2.69-58.26-24.49-61.76-61.77-4.83-51.31,28.71-80.54,61.48-81,.25,4.71.51,9.51.8,14.87-28.59,8.54-41.64,27.8-41.78,56.2S349.5,587.51,379.33,595.69Z"/><path d="M957,560.65H1053l20.3,53-20.08.88-14.38-37H971.67L958,613.59H937.31Z"/><path d="M656.94,465.53h21.12L733.86,613H713.15C694.76,564.75,676.42,516.63,656.94,465.53Z"/><path d="M984.22,541H964.78c9.91-25.88,19.18-50.12,28.68-74.95h23.27l28.81,75-19.09,1.1L1007,490.55l-3.37-.4C997.29,506.77,990.94,523.39,984.22,541Z"/><path d="M744.84,584.46c-2.7-7.19-5.41-14.38-8.59-22.83,11.82-31.48,23.89-63.58,36-95.93h21.08l-45.43,119Z"/><path d="M6.74,613V561.63H25.33V613Z"/></svg>