<svg id="Layer_1" data-name="Layer 1" xmlns="http://www.w3.org/2000/svg" viewBox="0 0 1080 1080"><title>Clients logo</title><path d="M553.29,195.66c13.76,6.69,20,18.77,21.38,33,2.47,25.67-12.5,49.57-36.25,59.94-1.66.73-3.33,1.41-5.89,2.49l29.1,2.73c20.66,2,41.21,4.56,60.81,11.89,15.86,5.94,29.92,14.58,40,28.64,10.36,14.5,13.9,30.77,12.22,47.93-1.51-2.14-2.68-5.14-4.86-6.52a14.56,14.56,0,0,0-8.33-1.67c-8.93.67-17.8,2.12-26.74,2.71a108,108,0,0,1-18.51-.34,15,15,0,0,1-12.84-10,235.26,235.26,0,0,1-6.55-22.72c-2.09-8.17-3.36-16.57-5.85-24.6-3.69-11.88-11.18-20.32-24.13-22.44-4.94-.8-10-1.08-14.95-1.56-6.83-.65-13.66-1.45-20.5-1.79a72.55,72.55,0,0,0-11.77.66c-18.48,2.09-36.94,4.32-55.42,6.42-8.51,1-17.05,1.73-26.29,2.65a18.22,18.22,0,0,0,2.81.89q41.67,4.9,83.35,9.76c15.2,1.79,30.4,3.54,45.58,5.51,10.22,1.32,18,6.68,21.69,16.31,2.86,7.46,4.35,15.45,6.43,23.2,1.09,4.08,2,8.22,3.23,12.23,2.8,8.8,9.24,13.12,18.18,13.14s17.91-.82,26.88-1.08a76.44,76.44,0,0,1,13.37.43c5.25.79,7.22,3.69,6.69,9-1.71,17.28-10.94,29.62-25.55,38.29C628.87,437.65,616,441,602.73,443c-5.33.8-10.72,1.27-16.34,2.6,1.21.41,2.39.89,3.63,1.2,18.9,4.78,37.32,10.75,53.5,22.08,11.45,8,20.64,18,23.91,31.94,4.81,20.59-.71,38.7-14.8,54.18-11,12.09-25.21,18.95-40.64,23.51s-31.27,6.17-47.3,6.58c-22.78.57-45.33-1.81-67.87-4.63-20.95-2.62-41.93-5-62.89-7.45-8.13-1-16.23-2.31-24.38-2.8-6.68-.41-13.43.31-20.15.34-11,0-21.92-.16-32.88,0-3.17,0-4.14-1.41-4.37-4.2q-2.43-28.8-4.95-57.58c-1.7-19.19-3.51-38.36-5.22-57.55-1.46-16.3-2.81-32.6-4.25-48.9s-3-32.59-4.41-48.88c-.89-9.86-1.87-19.71-2.57-29.58-.22-3.05-1.2-3.86-4.17-3.21-3.73.82-7.54,1.26-11.33,1.79a30.67,30.67,0,0,1-3.75,0,12.94,12.94,0,0,1,.87-2.16c11.78-17.32,26.74-30.46,48.07-33.94,9.71-1.58,19.7-1.7,29.58-2,11.19-.32,22.39-.07,33.9-.67-1.28-.77-2.58-1.51-3.84-2.32-8.3-5.37-16.9-10.34-24.8-16.25-9.77-7.29-11.18-14-5.67-24.86a83.1,83.1,0,0,1,10.22-15.91c5.68-6.76,12.51-7.17,19.07-1.23a59.64,59.64,0,0,1,10.82,13c7.76,12.74,15,25.79,22.35,38.77,1.41,2.51,2.14,5.4,3.51,7.94.57,1.05,2,2.31,3.05,2.32,15.05.23,30.13.42,44.88-3.25,9.65-2.39,18.36-6.65,25.3-14a28.38,28.38,0,0,0,7.4-13.78c1.79-8.5-3.73-15.49-12.37-15.45A43.84,43.84,0,0,0,502,244.93c-14.18,8.18-28.25,16.54-42.37,24.82-1.59.93-3.21,1.79-4.74,2.64-4.07-3.47-4.16-4.49-.94-8,14-15.32,28.31-30.27,44.46-43.4,12.94-10.52,27-18.87,42.9-24.13a19.87,19.87,0,0,0,2.46-1.19ZM515.23,449c-.26,1.31-.53,2.3-.65,3.31-2.6,21.75-5.26,43.49-7.71,65.26-.84,7.46-1.81,15-1.51,22.47.64,15.57,7,22.76,22.3,25.7a71.77,71.77,0,0,0,18.47,1.39c20.27-1.4,36-10.45,45.45-29a64.67,64.67,0,0,0,6.66-31.47C597.75,489,590,475.14,575,465.76A95.64,95.64,0,0,0,559.43,458C545.32,452.49,530.5,450.22,515.23,449Zm1.84-17.64a15.88,15.88,0,0,0,2.2.7c13.62,1.93,27.28,3.36,41,1.09,15.7-2.59,28-9.92,34.09-25.46,3.74-9.52,4.75-19.45,4.09-29.56-.72-11.08-4.62-20.86-12.79-28.57-13.38-12.61-29.61-15.94-47.33-13.93-5.61.64-9.09,3.86-10.36,9.4-.29,1.28-.72,2.55-.88,3.85-1.45,11.25-2.89,22.49-4.24,33.75C520.89,398.69,519,414.79,517.07,431.32ZM420.93,553c8,.12,14-3.16,16.9-9.71a46.06,46.06,0,0,0,3.53-11.68c1.7-11.09,3-22.22,4.38-33.36,2.58-21.34,5.08-42.7,7.62-64.06s5.2-42.43,7.48-63.68c1.09-10.08,1.73-20.24,2-30.38.19-7.75-3.93-13.33-11.08-16.28-4-1.66-8.28-2.66-12.4-4-2.92-1-3.87.39-4,3-.1,2.91-.21,5.81-.4,8.71q-1.82,28.44-3.68,56.88c-.9,14.22-1.72,28.45-2.63,42.67q-1.85,29-3.76,58.07c-1,14.75-2,29.49-2.89,44.24C421.61,539.88,421.3,546.31,420.93,553Zm-36.28-108,.42.14V314.68c-7.91,3.21-9.66,5.71-9.16,12q2.32,29.39,4.51,58.79C381.88,405.35,383.24,425.22,384.65,445.08Zm66.77-160.44c-8.84-12.13-17.36-24-26.05-35.67-1.88-2.54-5.84-2.51-8.51-.44-5.72,4.45-6.27,12.77-.7,17.51,6.5,5.54,13.5,10.49,20.1,15.92C440.63,285.55,445.32,286.45,451.42,284.64Z"/><path d="M110.64,747.59c1.87.63,2.85,1,3.85,1.31,32.7,9.82,40.57,50.09,18.73,73.49-9.4,10.08-21.34,14.26-34.44,16a128.42,128.42,0,0,1-16.18.9c-25.89.09-51.77,0-77.65,0-4.93,0-4.95,0-4.95-5.07V669c0-5.1,0-5.11,5.31-5.11,27.33,0,54.67-.08,82,0,10.5,0,20.82,1.32,30.29,6.45,17.78,9.63,26.41,28.41,22.14,48.16-2.79,12.84-11,21-22.57,26.28C115.27,745.72,113.32,746.47,110.64,747.59ZM41.78,765.31v41c1.34.11,2.37.28,3.4.28,10.16,0,20.33.14,30.48-.22a52.13,52.13,0,0,0,13.6-2.23c9.39-2.93,14.51-12.22,12.63-21.89-1.82-9.35-8.66-15.87-19.15-16.51-13.15-.8-26.36-.59-39.55-.8A6.2,6.2,0,0,0,41.78,765.31Zm0-69.1V733c14.24-.62,28.19,1,42.07-1.31,8.4-1.42,12.26-7.13,13.81-14.82,2-10.15-5.1-19.76-15.35-20.19-12.63-.52-25.29-.54-37.95-.75A20.22,20.22,0,0,0,41.78,696.21Z"/><path d="M493.67,747.61c3.46,1.32,6.63,2.27,9.57,3.7,15.64,7.61,23.73,20.25,24.88,37.55,1.39,20.71-12.45,43.9-41.74,48.64a127.26,127.26,0,0,1-19.28,1.67c-26.41.18-52.81.08-79.22.07-5,0-5,0-5-5V669.09c0-5.09,0-5.11,4.93-5.11,27.59,0,55.18-.1,82.77,0,10.36.05,20.54,1.42,29.88,6.47a43.16,43.16,0,0,1,22.09,47.83c-2.37,11.06-8.83,19-18.59,24.36C500.72,744.44,497.34,745.86,493.67,747.61Zm-69.49,37.75c0,5.8.12,11.61-.05,17.41-.09,2.9.84,4,3.83,3.9,10.15-.18,20.32.08,30.47-.26a52,52,0,0,0,13.22-2.11c10-3,15.17-12.53,12.93-22.73-2-9-8.61-15.24-18.81-15.9-12.88-.84-25.83-.63-38.74-.92-2.36-.06-2.88,1.15-2.86,3.19C424.23,773.75,424.19,779.55,424.18,785.36ZM443,732.91v.31c6.84-.34,13.7-.45,20.52-1.07,10.52-.94,15.89-6.35,17.25-16.8,1.12-8.64-5.49-18.1-14-18.58-13.27-.76-26.6-.66-39.9-1-2.06,0-2.79.89-2.78,2.86q0,15.62,0,31.25c0,2.21.88,3.05,3.06,3C432.49,732.86,437.77,732.91,443,732.91Z"/><path d="M313.91,821.32c-2.52,3.23-4.38,5.73-6.38,8.11-16.07,19.18-47.95,17-62.33-3.54a69.45,69.45,0,0,1-11.84-31.57c-2.22-17.43-2-34.8,2.89-51.84,2.95-10.31,7.85-19.49,15.89-26.92,13.66-12.65,44.18-14.27,57.92,2.59.4.49.93.89,2.19,2.08v-4.9c0-15.71.07-31.43-.06-47.15,0-3.21.88-4.39,4.23-4.33,9.63.19,19.28,0,28.92.07,4.49,0,4.52.05,4.52,4.75q0,60.23,0,120.45,0,22.77,0,45.56c0,4.58,0,4.6-4.65,4.61q-13.27,0-26.55,0c-4.71,0-4.72,0-4.74-4.92C313.9,830.34,313.91,826.3,313.91,821.32Zm-1.33-47.11-.33,0c0-4.62.43-9.29-.11-13.84-.73-6.24-1.29-12.75-3.53-18.51-4.62-11.93-19.6-14-27.61-3.92a33.17,33.17,0,0,0-5.7,11.58c-3.82,13.79-3.86,27.88-2,42,.77,5.8,2.22,11.41,5.56,16.34a16,16,0,0,0,21.3,5.3c6.84-3.68,10.35-9.83,11.22-17.23C312.25,788.72,312.23,781.44,312.58,774.21Z"/><path d="M768.79,720.13v-5q0-23.39,0-46.76c0-4.35.05-4.39,4.44-4.4q13.88,0,27.74,0c5.27,0,5.29,0,5.29,5.2q0,62,0,124,0,20.81,0,41.61c0,4.35-.08,4.41-4.46,4.43q-13.48,0-26.95,0c-4.32,0-4.36-.07-4.39-4.49a86.76,86.76,0,0,0-.7-12.79c-.76,1-1.55,2-2.29,3-6,8.33-13.53,14.47-23.76,16.64-20,4.24-37.9-5.08-47.07-24.29a80,80,0,0,1-7.44-29c-1.28-17.77-.87-35.43,5.88-52.27a68.63,68.63,0,0,1,7.12-13.2c14.3-21,44.94-20.64,58.66-9.77C763.41,715.08,765.71,717.37,768.79,720.13Zm.38,54.35h-.38c0-4.76.13-9.52,0-14.26-.23-6.61-.84-13.2-3.81-19.27-5.54-11.3-20.78-12.86-28-2.52A41.35,41.35,0,0,0,731,752.06c-3.07,12.69-3.11,25.64-1.49,38.56.75,6,2.2,12,5.69,17.14,5,7.38,13.8,9.6,21.61,5.34,6.53-3.56,10.09-9.44,11-16.53C768.79,789.27,768.77,781.85,769.17,774.48Z"/><path d="M911.63,822.05c-2,2.55-4,5.17-6.08,7.63-16.26,18.89-47.95,16.65-62.23-4.24a70.63,70.63,0,0,1-11.63-31.65c-2.05-16.34-1.85-32.66,2.26-48.74,2.76-10.78,7.51-20.44,15.53-28.47,13.6-13.63,44.26-15.27,58.23.93.65.75,1.47,1.36,2.94,2.69v-5q0-23.36,0-46.72c0-4.45,0-4.49,4.34-4.5,9.64,0,19.27.11,28.91-.07,3.31-.06,4.28,1.11,4.28,4.34q-.12,83.36,0,166.71c0,3.23-1,4.41-4.28,4.34-9.24-.17-18.48-.14-27.72,0-2.93.05-4-.95-3.91-3.88.17-4.41,0-8.83,0-13.24Zm-.6-47.5-.38,0c0-4.75.41-9.55-.11-14.25a100.3,100.3,0,0,0-3.35-18.17c-1.92-6.31-6.78-10-13.56-10.44-6.57-.44-12.13,1.9-15.49,7.63a47,47,0,0,0-5.25,12.7c-3,12.7-3.1,25.64-1.49,38.56.77,6.17,2.24,12.22,5.89,17.47a16,16,0,0,0,21,5.28c6.76-3.49,10.43-9.45,11.39-16.68S910.63,781.92,911,774.55Z"/><path d="M628.52,819.9c-2.7,3.89-4.64,7.2-7.07,10.09a33.48,33.48,0,0,1-23.78,12,76,76,0,0,1-20-.9c-11.74-2.28-19.07-10.24-21.8-21.6a103,103,0,0,1-2.58-22.71c-.3-27.6-.13-55.19-.11-82.79,0-4.8,0-4.82,4.85-4.83q13.66,0,27.34,0c5.26,0,5.28,0,5.28,5.15q0,39.81,0,79.62a33.94,33.94,0,0,0,.51,6.29c1.68,8.95,7.62,13.07,16.59,11.63,10.3-1.64,16.95-9.06,17.56-19.83.26-4.74.24-9.5.25-14.25q0-31.69,0-63.38c0-5.22,0-5.23,5.27-5.23,9.77,0,19.54.07,29.31,0,2.9,0,4.25.62,4.24,3.93q-.15,61.2,0,122.4c0,3-1,3.91-3.9,3.86q-14.06-.19-28.12,0c-3,.05-4-1-3.86-3.91C628.65,830.51,628.52,825.63,628.52,819.9Z"/><path d="M963.05,709.42c1.66-.11,2.82-.26,4-.26,10.83,0,21.66.08,32.49-.08,3,0,4.42,1,5.33,3.88,6.9,21.77,13.94,43.5,20.95,65.24a22.32,22.32,0,0,0,2.77,6.12c.44-1.25.93-2.48,1.32-3.74,6.94-22.31,13.94-44.61,20.72-67,1-3.37,2.45-4.7,6-4.54,6.33.28,12.68.06,19,.08,1.28,0,2.56.11,4.33.19-.78,2.69-1.38,5-2.1,7.18q-21.39,65.31-42.84,130.6a148.64,148.64,0,0,1-5.79,14.31c-6.63,14.74-18.42,22.09-34.26,22.83-7,.32-14-.42-21-.73-2.11-.1-3.91-.6-3.88-3.38.08-8.58.07-17.17.12-25.75a7.57,7.57,0,0,1,.54-1.62c3.78.32,7.65.86,11.52.92a103.86,103.86,0,0,0,15-.5c6.14-.8,11.83-7.37,12.18-13.45a11.07,11.07,0,0,0-1-4.16q-21.71-60-43.45-119.92C964.33,713.73,963.78,711.74,963.05,709.42Z"/><path d="M208,774.23q0,30.09,0,60.17c0,4.86,0,4.89-4.76,4.9-9.9,0-19.8-.09-29.69.05-3.05,0-4.15-.9-4.14-4q.12-61.15,0-122.31c0-2.83.79-4,3.81-4,10.29.14,20.58.17,30.87,0,3.32-.06,3.95,1.37,3.94,4.25C208,733.6,208,753.91,208,774.23Z"/><path d="M188.74,699c-5.27,0-10.54-.07-15.81,0-2.53.06-3.51-.89-3.49-3.45q.12-15.81,0-31.62c0-2.35.9-3.27,3.27-3.25q16,.1,32,0c2.36,0,3.3.87,3.28,3.24q-.09,16,0,32c0,2.17-.88,3.07-3.06,3C199.55,699,194.15,699,188.74,699Z"/></svg>