<svg id="Layer_1" data-name="Layer 1" xmlns="http://www.w3.org/2000/svg" viewBox="0 0 1080 1080"><title>Clients logo</title><path d="M86.16,605.35c-54.17,0-74.82-23.42-74.82-57.7V366.41h45V548c0,14.26,9.48,22.06,29.79,22.06H234.1c20.31,0,29.79-7.8,29.79-22.06V366.41h45V547.65c0,34.28-11.17,57.7-65.34,57.7Z"/><path d="M645.43,605.35l-254.25-186v186H351.91V366.41h38.93L628.16,543.92V366.41h39.27V605.35Z"/><path d="M1016.46,605.35,926.41,498.78H848.88V605.35h-45V366.41h45v97.07H925.4l89.71-97.07h53.49l-106,111.32,105.62,127.62Z"/><path d="M143.19,732.74,108,654.85,72.07,732.74h-14L11.34,631.2H29.81l35.34,77.88,35.63-77.88h14.28l35.2,77.88,35.63-77.88H204.5L157.62,732.74Z"/><path d="M213.88,732.74V631.2H318.32v15H233.06v25.38H314v15H233.06v31.16h85.26v15Z"/><path d="M452.19,732.74,399.82,651l-53.23,81.78H325.24L392.76,631.2h14l67.08,101.54Z"/><path d="M579.71,732.74l-23.8-45.29H502.39v45.29H483.21V631.2h86.26c23.08,0,31.88,9.95,31.88,24.52v7.21c0,13.13-7.07,22.5-25.1,24.23l24,45.58Zm2.46-77.16c0-6.06-4-9.38-12.7-9.38H502.39v26.25h67.08c8.66,0,12.7-3.32,12.7-9.37Z"/><path d="M11.34,777.39l4.05-.39a4.91,4.91,0,0,0,1.49,3,4.47,4.47,0,0,0,3,1,4.62,4.62,0,0,0,3-.85,2.53,2.53,0,0,0,1-2,1.91,1.91,0,0,0-.43-1.25A3.47,3.47,0,0,0,22,776c-.49-.17-1.6-.47-3.34-.9A11.31,11.31,0,0,1,14,773a5.35,5.35,0,0,1-1.9-4.15,5.26,5.26,0,0,1,.89-3,5.52,5.52,0,0,1,2.57-2.09,10.34,10.34,0,0,1,4.06-.72q3.88,0,5.85,1.7a6,6,0,0,1,2.06,4.55l-4.16.18a3.5,3.5,0,0,0-1.15-2.28,4.18,4.18,0,0,0-2.64-.7,4.79,4.79,0,0,0-2.84.74,1.52,1.52,0,0,0-.66,1.29,1.57,1.57,0,0,0,.62,1.25,11,11,0,0,0,3.82,1.38,19.75,19.75,0,0,1,4.5,1.49,5.83,5.83,0,0,1,2.28,2.09,6.54,6.54,0,0,1-.16,6.62,5.93,5.93,0,0,1-2.79,2.3,11.73,11.73,0,0,1-4.49.75,8.94,8.94,0,0,1-6-1.81A7.87,7.87,0,0,1,11.34,777.39Z"/><path d="M45.32,784.11V763.46h8.76a14.73,14.73,0,0,1,4.81.56,4.76,4.76,0,0,1,2.4,2,6,6,0,0,1,.9,3.26,5.52,5.52,0,0,1-1.37,3.84,6.53,6.53,0,0,1-4.08,1.9A9.7,9.7,0,0,1,59,776.73a22.66,22.66,0,0,1,2.37,3.35l2.52,4h-5l-3-4.5a28.7,28.7,0,0,0-2.2-3,3.2,3.2,0,0,0-1.25-.86,7,7,0,0,0-2.09-.23h-.85v8.62Zm4.16-11.92h3.08a16,16,0,0,0,3.75-.25,2.26,2.26,0,0,0,1.16-.87,2.72,2.72,0,0,0,.43-1.55,2.5,2.5,0,0,0-.56-1.69,2.61,2.61,0,0,0-1.57-.81c-.34,0-1.35-.07-3-.07H49.48Z"/><path d="M79.67,784.11V763.46h4.17v20.65Z"/><path d="M123.3,784.11V763.63h4.16v17h10.36v3.48Z"/><path d="M173.08,784.11h-4.53l-1.81-4.69H158.5l-1.7,4.69h-4.42l8-20.65h4.41Zm-7.67-8.17-2.84-7.66-2.79,7.66Z"/><path d="M189,784.11V763.46h4.06l8.44,13.79V763.46h3.87v20.65H201.2l-8.32-13.47v13.47Z"/><path d="M223.53,784.11V763.46h4.16v9.17l8.41-9.17h5.6l-7.76,8,8.19,12.61h-5.39l-5.67-9.69-3.38,3.45v6.24Z"/><path d="M276.57,784.11H272l-1.8-4.69H262l-1.7,4.69h-4.42l8-20.65h4.41Zm-7.67-8.17-2.84-7.66-2.79,7.66Z"/><path d="M292.51,784.11V763.46h4.05L305,777.25V763.46h3.87v20.65h-4.18l-8.32-13.47v13.47Z"/><path d="M348.67,784.11V763.46h4.16v8.13H361v-8.13h4.17v20.65H361v-9h-8.16v9Z"/><path d="M401.75,784.11h-4.53l-1.8-4.69h-8.25l-1.7,4.69h-4.42l8-20.65h4.4Zm-7.67-8.17-2.84-7.66-2.79,7.66Z"/><path d="M417.69,784.11V763.46h4.05l8.44,13.79V763.46h3.87v20.65h-4.18l-8.31-13.47v13.47Z"/><path d="M452.13,763.46h7.61a15,15,0,0,1,3.93.39,6.9,6.9,0,0,1,3.11,1.91,9,9,0,0,1,2,3.34,15.29,15.29,0,0,1,.67,4.88,13.68,13.68,0,0,1-.63,4.4,9.1,9.1,0,0,1-2.21,3.64,7.19,7.19,0,0,1-2.93,1.65,12.56,12.56,0,0,1-3.68.44h-7.84Zm4.16,3.49v13.68h3.11a11.32,11.32,0,0,0,2.52-.2,3.73,3.73,0,0,0,1.68-.86,4.31,4.31,0,0,0,1.09-2,13.17,13.17,0,0,0,.43-3.78,12.06,12.06,0,0,0-.43-3.68,4.71,4.71,0,0,0-1.18-2,3.94,3.94,0,0,0-1.92-1,19.06,19.06,0,0,0-3.42-.2Z"/><path d="M486.58,784.11V763.46h6.24l3.74,14.08,3.7-14.08h6.25v20.65h-3.87V767.85l-4.1,16.26h-4l-4.08-16.26v16.26Z"/><path d="M542.93,784.11H538.4l-1.8-4.69h-8.24l-1.71,4.69h-4.41l8-20.65h4.4Zm-7.67-8.17-2.84-7.66-2.78,7.66Z"/><path d="M558.81,763.46h7.62a15,15,0,0,1,3.92.39,6.85,6.85,0,0,1,3.11,1.91,9,9,0,0,1,2,3.34,15.27,15.27,0,0,1,.68,4.88,13.39,13.39,0,0,1-.64,4.4,9,9,0,0,1-2.21,3.64,7.15,7.15,0,0,1-2.92,1.65,12.63,12.63,0,0,1-3.69.44h-7.84ZM563,767v13.68h3.11a11.45,11.45,0,0,0,2.52-.2,3.84,3.84,0,0,0,1.68-.86,4.4,4.4,0,0,0,1.09-2,13.59,13.59,0,0,0,.42-3.78,12.44,12.44,0,0,0-.42-3.68,4.81,4.81,0,0,0-1.18-2,4,4,0,0,0-1.93-1,18.9,18.9,0,0,0-3.42-.2Z"/><path d="M593.33,784.11V763.46h15.29V767H597.49v4.58h10.36V775H597.49v5.62H609v3.48Z"/><path d="M647.94,763.46h8.24a24.89,24.89,0,0,1,3.66.2,5.24,5.24,0,0,1,3.73,2.58,4.7,4.7,0,0,1,.63,2.42,4.91,4.91,0,0,1-2.89,4.48A5.39,5.39,0,0,1,664.2,775a5,5,0,0,1,1,3.11,6.11,6.11,0,0,1-.66,2.74,5.48,5.48,0,0,1-1.78,2.13,5.92,5.92,0,0,1-2.8,1c-.69.07-2.36.12-5,.14h-7Zm4.16,3.44v4.77h2.73c1.63,0,2.64,0,3-.07a2.73,2.73,0,0,0,1.68-.74,2.16,2.16,0,0,0,.61-1.61,2.24,2.24,0,0,0-.53-1.56,2.34,2.34,0,0,0-1.56-.72c-.42-.05-1.6-.07-3.56-.07Zm0,8.21v5.52H656a18,18,0,0,0,2.86-.13,2.59,2.59,0,0,0,1.51-.82,2.54,2.54,0,0,0,.58-1.76,2.67,2.67,0,0,0-.45-1.57,2.57,2.57,0,0,0-1.3-1,14.57,14.57,0,0,0-3.69-.29Z"/><path d="M701,784.11h-4.53l-1.8-4.69h-8.24l-1.71,4.69h-4.41l8-20.65h4.4Zm-7.66-8.17-2.85-7.66-2.78,7.66Z"/><path d="M719.42,784.11V767H713.3v-3.49h16.4V767h-6.11v17.16Z"/><path d="M745.94,784.11V763.46h4.17v20.65Z"/><path d="M767.82,784.11V763.46H772v9.17l8.42-9.17H786l-7.77,8,8.19,12.61H781l-5.67-9.69L772,777.87v6.24Z"/><path d="M823.94,763.46h7.61a15,15,0,0,1,3.93.39,6.9,6.9,0,0,1,3.11,1.91,9,9,0,0,1,2,3.34,15.29,15.29,0,0,1,.67,4.88,13.68,13.68,0,0,1-.63,4.4,9.1,9.1,0,0,1-2.21,3.64,7.19,7.19,0,0,1-2.93,1.65,12.56,12.56,0,0,1-3.68.44h-7.84ZM828.1,767v13.68h3.11a11.32,11.32,0,0,0,2.52-.2,3.73,3.73,0,0,0,1.68-.86,4.31,4.31,0,0,0,1.09-2,13.17,13.17,0,0,0,.43-3.78,12.06,12.06,0,0,0-.43-3.68,4.71,4.71,0,0,0-1.18-2,3.93,3.93,0,0,0-1.93-1A18.84,18.84,0,0,0,830,767Z"/><path d="M858.45,784.11V763.46h15.29V767H862.62v4.58H873V775H862.62v5.62h11.52v3.48Z"/><path d="M890.3,777.39l4.05-.39a4.91,4.91,0,0,0,1.49,3,4.47,4.47,0,0,0,3,1,4.62,4.62,0,0,0,3-.85,2.53,2.53,0,0,0,1-2,1.86,1.86,0,0,0-.43-1.25A3.47,3.47,0,0,0,901,776q-.74-.26-3.33-.9A11.3,11.3,0,0,1,893,773a5.42,5.42,0,0,1-1-7.1,5.55,5.55,0,0,1,2.58-2.09,10.27,10.27,0,0,1,4.06-.72q3.87,0,5.84,1.7a6,6,0,0,1,2.06,4.55l-4.16.18a3.5,3.5,0,0,0-1.15-2.28,4.14,4.14,0,0,0-2.64-.7,4.81,4.81,0,0,0-2.84.74,1.52,1.52,0,0,0-.66,1.29,1.6,1.6,0,0,0,.62,1.25,10.94,10.94,0,0,0,3.83,1.38,19.82,19.82,0,0,1,4.49,1.49,5.83,5.83,0,0,1,2.28,2.09,6.15,6.15,0,0,1,.82,3.29,6.07,6.07,0,0,1-1,3.33,5.93,5.93,0,0,1-2.79,2.3,11.68,11.68,0,0,1-4.48.75,8.9,8.9,0,0,1-6-1.81A7.83,7.83,0,0,1,890.3,777.39Z"/><path d="M924.14,784.11V763.46h4.16v20.65Z"/><path d="M955.55,776.52V773h9v8.22a11.19,11.19,0,0,1-3.79,2.23,13.66,13.66,0,0,1-5,1,11.21,11.21,0,0,1-5.64-1.36,8.64,8.64,0,0,1-3.62-3.89,12.51,12.51,0,0,1-1.21-5.5,11.89,11.89,0,0,1,1.35-5.73,9.1,9.1,0,0,1,3.95-3.84,10.63,10.63,0,0,1,4.94-1,9.81,9.81,0,0,1,6,1.61,7.28,7.28,0,0,1,2.78,4.46l-4.13.77a4.4,4.4,0,0,0-1.64-2.4,5,5,0,0,0-3-.88,5.66,5.66,0,0,0-4.34,1.73,7.33,7.33,0,0,0-1.61,5.14,8.16,8.16,0,0,0,1.63,5.52,5.48,5.48,0,0,0,4.28,1.84,7,7,0,0,0,2.62-.52,9.14,9.14,0,0,0,2.26-1.24v-2.62Z"/><path d="M982.1,784.11V763.46h4l8.45,13.79V763.46h3.86v20.65h-4.17L986,770.64v13.47Z"/><path d="M1016.56,784.11V763.46h15.29V767h-11.13v4.58h10.36V775h-10.36v5.62h11.52v3.48Z"/><path d="M1049.48,784.11V763.46h8.76a14.73,14.73,0,0,1,4.81.56,4.76,4.76,0,0,1,2.4,2,6,6,0,0,1,.9,3.26,5.52,5.52,0,0,1-1.37,3.84,6.53,6.53,0,0,1-4.08,1.9,9.7,9.7,0,0,1,2.23,1.74,22.66,22.66,0,0,1,2.37,3.35l2.52,4h-5l-3-4.5a28.7,28.7,0,0,0-2.2-3,3.2,3.2,0,0,0-1.25-.86,7,7,0,0,0-2.09-.23h-.85v8.62Zm4.16-11.92h3.08a16,16,0,0,0,3.75-.25,2.26,2.26,0,0,0,1.16-.87,2.72,2.72,0,0,0,.43-1.55,2.5,2.5,0,0,0-.56-1.69,2.61,2.61,0,0,0-1.57-.81c-.34,0-1.35-.07-3-.07h-3.25Z"/><path d="M1068.66,664.25l-.64-1.19v1.18Z"/><path d="M1003.42,732.74h5.74A64.64,64.64,0,0,1,1068,682.11v-14A64.6,64.6,0,0,0,1003.42,732.74Z"/><path d="M1013.05,732.74h13.15A54,54,0,0,1,1068,688.46v-3.84A64.64,64.64,0,0,0,1013.05,732.74Z"/><path d="M1030.79,732.74h7.15A51.8,51.8,0,0,1,1068,703.45V692.16A54.08,54.08,0,0,0,1030.79,732.74Z"/><path d="M1042.37,732.74H1068V706.91A51.86,51.86,0,0,0,1042.37,732.74Z"/><polygon points="1068.02 631.2 1054.56 631.2 1068.02 655.4 1068.02 631.2"/><path d="M1022.75,631.2l6.31,45.19a68.2,68.2,0,0,1,39-12.15v-1.18l-17.13-31.86Z"/><path d="M1027.6,677.44,936.86,631.2H926.14l77.74,77.47A68.62,68.62,0,0,1,1027.6,677.44Z"/><path d="M883.27,732.74H999.52a68.47,68.47,0,0,1,3.13-20.52Z"/><polygon points="933.04 688.17 969.61 712.65 993.36 707.6 976.87 689.71 933.04 688.17"/><polygon points="1022.7 668.14 1019.77 643.99 1003.26 631.2 990.35 631.2 1000.47 658.37 1022.7 668.14"/><path d="M725.49,318.08v55.43a33.07,33.07,0,0,0,26.16-1.42c4.89-2.44,17.94-11.91,17.94-11.91,0-.61.32-19.13.32-19.13l-33.77-19.5v-3.08h0v-.39a22.57,22.57,0,0,0-21.89-22.55v10.65A11.93,11.93,0,0,1,725.49,318.08Z"/><path d="M751.91,398.35a160.59,160.59,0,0,0-3.16-21.19h-1.26a23.66,23.66,0,0,1-21.13,0H725.1A161.89,161.89,0,0,0,722,398.35a28.7,28.7,0,0,0,30,0Z"/><path d="M755,574.23c-4-29.4-13.13-74.35-6.27-110.34a237.3,237.3,0,0,0,3.51-61.16,31.81,31.81,0,0,1-30.67,0,237.3,237.3,0,0,0,3.51,61.16c6.87,36-2.24,80.94-6.27,110.34-1.15,8.39-1.89,15.51-1.72,20.79a21.69,21.69,0,0,0,39.63,0C756.91,589.74,756.17,582.62,755,574.23Z"/><path d="M647,659.05v6.38A58.87,58.87,0,0,1,658.62,683a36.22,36.22,0,0,0,5.13.43A57.48,57.48,0,0,0,647,659.05Z"/><path d="M749.23,679.54l.21-.47c.38-.87.75-1.75,1.11-2.63.06-.16.13-.31.19-.46.3-.76.59-1.51.88-2.27.4-1.05.78-2.12,1.14-3.19.17-.49.32-1,.48-1.48.36-1.1.7-2.2,1-3.31.22-.75.42-1.5.62-2.26.29-1.13.56-2.27.82-3.41q.49-2.19.9-4.41c.2-1.17.39-2.33.55-3.51.33-2.23.58-4.49.76-6.76q.14-1.77.21-3.57c.07-1.53.11-3.08.11-4.63q0-3-.18-6h-16.8a74.17,74.17,0,0,1,1.35,14.07v0c0,1.14,0,2.27-.09,3.4-.07,1.71-.21,3.4-.41,5.08-.12,1.14-.28,2.26-.46,3.38s-.33,2-.53,2.93-.48,2.22-.76,3.31c-.07.29-.14.57-.22.86-.23.87-.48,1.74-.74,2.61-.06.21-.13.42-.2.63q-.27.87-.57,1.74l-.28.81-.44,1.2c-.15.41-.3.81-.46,1.21-.26.64-.52,1.28-.79,1.92a74.24,74.24,0,0,1-43.78,40.82c-1.18.42-2.37.8-3.58,1.15l-1.38.38c-.94.26-1.89.5-2.84.71s-1.79.39-2.7.56-1.61.3-2.42.42q-3,.47-6.08.68l-2,.12c-1.09,0-2.17.07-3.27.07l-2.1,0-1.89-.07c-.86-.05-1.71-.11-2.56-.19-.61,0-1.23-.11-1.84-.18a73.75,73.75,0,0,1-40.94-18.36l16.85,32.27,3.64,0h30l.09,0h25.65A104.47,104.47,0,0,0,749.23,679.54Z"/><path d="M656.44,682.57A57.48,57.48,0,0,0,646.93,668l-2.1,9.73A36.2,36.2,0,0,0,656.44,682.57Z"/><path d="M644.2,642.66a59.24,59.24,0,0,1,32.32,38.64,36,36,0,0,0,11.1-6.39,57.32,57.32,0,0,0-45.29-43.71h-9.6A24.62,24.62,0,0,1,644.2,642.66Z"/><path d="M689.18,673.52a36.16,36.16,0,0,0,6-7.4,57.28,57.28,0,0,0-15.39-25.5q-1.8-1.73-3.75-3.3a57.38,57.38,0,0,0-8.85-5.88l-.28-.24H649.81A59.22,59.22,0,0,1,689.18,673.52Z"/><path d="M674.77,681.88a57.37,57.37,0,0,0-29.51-36.67A33.8,33.8,0,0,1,647,656.47v.2a59.26,59.26,0,0,1,18.67,26.72A36.31,36.31,0,0,0,674.77,681.88Z"/><path d="M663.35,704.17c1.2.08,2.42.13,3.65.14h1.83a60.38,60.38,0,0,0,7.3-.63l1.88-.32a58.26,58.26,0,0,0,9.45-2.58c.7-.26,1.38-.53,2.06-.81a54.9,54.9,0,0,0,5.84-2.79c.75-.41,1.5-.84,2.23-1.28a58.28,58.28,0,0,0,6.19-4.35c.83-.66,1.64-1.35,2.42-2.06a58,58,0,0,0,15.91-23.56c.3-.83.58-1.66.84-2.51v0l.24-.78c.06-.23.13-.45.19-.68s.18-.63.26-.95l.21-.83v0c.15-.62.29-1.25.43-1.88,0-.18.07-.35.11-.53.08-.41.16-.83.23-1.25.2-1.1.36-2.2.49-3.32s.23-2.21.3-3.33.11-2.23.11-3.35v-.24a58.41,58.41,0,0,0-1.95-15h-11.4a48.16,48.16,0,0,1,2.7,14.57c0,.46,0,.92,0,1.38s0,.86,0,1.28c0,.24,0,.48,0,.72,0,.73-.07,1.47-.14,2.2s-.11,1.19-.18,1.78c0,.41-.11.82-.17,1.23,0,.11,0,.22,0,.33l0,.17c0,.21-.07.42-.1.62s-.1.5-.14.75q-.16.85-.36,1.71l-.06.23c-.08.35-.16.7-.25,1,0,.12-.07.24-.1.35a47.59,47.59,0,0,1-5.63,13c-.56.88-1.14,1.75-1.75,2.59a47.76,47.76,0,0,1-6.66,7.47c-.61.56-1.23,1.1-1.87,1.62a48.43,48.43,0,0,1-6.54,4.52c-.61.35-1.23.69-1.86,1a48,48,0,0,1-10.59,4c-.61.14-1.21.28-1.82.4a47,47,0,0,1-8.17.93c-.46,0-.91,0-1.37,0h-.49c-1.43,0-2.85-.09-4.26-.23-.64-.06-1.28-.14-1.91-.23a47.56,47.56,0,0,1-21.16-8.45,27.6,27.6,0,0,1-8.2,5.35A57.77,57.77,0,0,0,661.5,704C662.12,704.08,662.73,704.13,663.35,704.17Z"/><path d="M662.46,716.75c.91.07,1.82.13,2.74.18l1.88.06,1.47,0c1.42,0,2.83,0,4.23-.13.68,0,1.35-.09,2-.15q3.41-.29,6.72-.9c.79-.14,1.57-.3,2.35-.47,1.13-.24,2.24-.51,3.34-.81.92-.25,1.84-.51,2.74-.79s1.65-.54,2.46-.82c1.14-.4,2.27-.83,3.38-1.29a72,72,0,0,0,38.79-38.29c.3-.72.6-1.44.88-2.17l.36-1c.12-.31.23-.62.34-.93s.32-.9.47-1.36c.09-.28.18-.57.28-.85l.3-1c.23-.75.44-1.5.64-2.26.06-.21.12-.41.17-.62.28-1.09.54-2.19.77-3.3.18-.9.35-1.8.5-2.71q.29-1.66.48-3.36c.2-1.6.34-3.22.42-4.85.06-1.12.09-2.25.09-3.38,0-.12,0-.24,0-.36a71.65,71.65,0,0,0-1.39-14.07H726.68a61.27,61.27,0,0,1,1.86,15c0,.08,0,.16,0,.24,0,1.12,0,2.24-.1,3.35s-.18,2.44-.32,3.64-.29,2.23-.48,3.33c-.09.52-.19,1-.29,1.55-.15.73-.31,1.45-.48,2.17l-.15.58c0,.15-.07.3-.11.45l0,.07c-.21.83-.45,1.66-.7,2.47a2.17,2.17,0,0,1-.07.24v.07l-.15.43c-.3,1-.63,1.9-1,2.84a61.25,61.25,0,0,1-19.9,26.94c-.86.66-1.74,1.31-2.63,1.93a65.07,65.07,0,0,1-5.71,3.5c-.77.41-1.55.82-2.34,1.2-1.77.86-3.59,1.63-5.44,2.32-.71.26-1.42.51-2.14.74a61.59,61.59,0,0,1-9,2.21l-1.92.29a63.83,63.83,0,0,1-7,.53l-1.24,0h-.6c-1.16,0-2.31-.06-3.45-.13-.62,0-1.23-.09-1.84-.15a60.79,60.79,0,0,1-33.75-14.32,51.73,51.73,0,0,1-11,2.24,71.53,71.53,0,0,0,43.82,21.63Z"/><path d="M702.26,643.57c0,.44.07.88.1,1.32,0,.72.06,1.44.06,2.17,0,0,0,.06,0,.09,0,.22,0,.44,0,.67s0,.45,0,.67,0,.59,0,.88,0,.39,0,.58V650l-.09,1,0,.26c-.08.75-.18,1.49-.31,2.23v.08c0,.28-.1.57-.16.85a37.86,37.86,0,0,1-4.52,12c-.43.73-.88,1.44-1.35,2.14a38.18,38.18,0,0,1-6.19,7c-.53.47-1.06.92-1.61,1.36A38.07,38.07,0,0,1,677,683.13c-.57.2-1.16.39-1.75.57a38.11,38.11,0,0,1-8.93,1.54c-.63,0-1.26,0-1.9,0h-.09a38.86,38.86,0,0,1-4.85-.31c-.71-.09-1.41-.2-2.11-.33a37.87,37.87,0,0,1-13.28-5.17,23.18,23.18,0,0,1-3.22,4.92,45.31,45.31,0,0,0,19,7.72c.65.1,1.3.19,2,.26,1.45.17,2.93.27,4.43.3H668a46.25,46.25,0,0,0,8.38-1c.61-.13,1.21-.27,1.81-.42A45.45,45.45,0,0,0,689,687c.61-.34,1.22-.69,1.82-1.06a46.52,46.52,0,0,0,6.58-4.91c.61-.55,1.2-1.11,1.78-1.69a45.29,45.29,0,0,0,6.52-8.2c.55-.89,1.07-1.79,1.56-2.72a45.1,45.1,0,0,0,3.85-9.9l.27-1.08v-.07c.07-.3.13-.59.2-.89s.18-.88.26-1.33.11-.68.17-1c0,0,0,0,0-.08s0-.32.07-.47.07-.5.1-.75c.08-.68.15-1.37.21-2.05a.31.31,0,0,1,0-.1c0-.61.08-1.22.1-1.84s0-1.14,0-1.72,0-1.06,0-1.59v-.08a45.39,45.39,0,0,0-2.84-14.28H698.94a38.24,38.24,0,0,1,3.28,11.93C702.23,643.28,702.24,643.42,702.26,643.57Z"/><path d="M697.15,642.22c1,1.36,1.84,2.77,2.68,4.21.11.18.21.37.31.55l.41.73c0-.19,0-.37,0-.56h0c0-.18,0-.35,0-.53v-.25c0-1.1-.1-2.19-.22-3.26,0,0,0-.08,0-.12-.11-1-.25-1.87-.43-2.79a36.19,36.19,0,0,0-3-9H687.2A59.93,59.93,0,0,1,697.15,642.22Z"/><path d="M685.38,643.88l.31.36a59.17,59.17,0,0,1,10.77,19.68,36.37,36.37,0,0,0,3.68-11.22.77.77,0,0,1,0-.15c.06-.42.11-.84.16-1.26l-.39-.8c-.38-.76-.78-1.52-1.19-2.26-.19-.33-.37-.66-.56-1s-.54-.92-.82-1.37l-.08-.13c-.69-1.11-1.42-2.19-2.19-3.25-.28-.4-.58-.79-.87-1.18a57.7,57.7,0,0,0-6.23-6.93c-1.18-1.11-2.4-2.18-3.67-3.19H670.51a59.76,59.76,0,0,1,11.53,9C683.2,641.4,684.32,642.62,685.38,643.88Z"/><path d="M745.36,693.9q-1.92,3.06-4,6a73.51,73.51,0,0,1,36.77,32.85h8.5A70.39,70.39,0,0,0,745.36,693.9Z"/><path d="M739.54,702.32c-1.26,1.66-2.58,3.27-3.93,4.84a73.53,73.53,0,0,1,29.92,25.58h9.05A70.49,70.49,0,0,0,739.54,702.32Z"/><path d="M725.88,717.11c-1.69,1.51-3.42,3-5.2,4.38a73.48,73.48,0,0,1,16.39,11.25h10A70.34,70.34,0,0,0,725.88,717.11Z"/><path d="M749.18,687.25q-1.09,2.07-2.28,4.1A73.38,73.38,0,0,1,790,732.74h5.5A70.36,70.36,0,0,0,749.18,687.25Z"/><path d="M733.58,709.46q-2.6,2.85-5.39,5.5a73.34,73.34,0,0,1,23,17.78h10.62A70.38,70.38,0,0,0,733.58,709.46Z"/><path d="M703.22,732.74h29.27a70.15,70.15,0,0,0-14.42-9.25A109.44,109.44,0,0,1,703.22,732.74Z"/><path d="M821.53,732.74h12.6a154.07,154.07,0,0,1-15.76-9.86A96.77,96.77,0,0,1,821.53,732.74Z"/><path d="M808.85,631.2A109.23,109.23,0,0,1,760.07,655q-.39,2.4-.9,4.77a106,106,0,0,0,62-28.56Z"/><path d="M761.49,640.72a105.44,105.44,0,0,0,20.37-9.52H761.38q.17,3,.17,6C761.55,638.37,761.53,639.54,761.49,640.72Z"/><path d="M788.1,631.2a109.09,109.09,0,0,1-26.79,13.11q-.24,3.6-.7,7.13a105.8,105.8,0,0,0,42.95-20.24Z"/><path d="M787.72,700c-10.82-12.5-34.36-21.82-34.36-21.82l-2.84,6.42a73.11,73.11,0,0,1,27.69,15.9c.57.55,1.09,1,1.56,1.46a73.34,73.34,0,0,1,19,30.76h7.43S798.54,712.51,787.72,700Z"/><path d="M816.86,690c-3.83.93-7.21,1.54-10,1.94a148.16,148.16,0,0,0,55.88,38.53l9.85-1.89A151.55,151.55,0,0,1,816.86,690Z"/><path d="M839,682.16c-2,.94-4,1.81-5.91,2.59a147.74,147.74,0,0,0,62.52,39.4l10-1.93A151.16,151.16,0,0,1,839,682.16Z"/><path d="M802.59,692.45c-1.08.1-2,.16-2.57.19.83.93,1.64,1.87,2.43,2.83a97.77,97.77,0,0,1,11.66,17.79c.53,1,1,2.09,1.53,3.15a148,148,0,0,0,26.27,16.33h9l5.52-1.06A151.78,151.78,0,0,1,802.59,692.45Z"/><path d="M829.55,686.13c-3.08,1.13-6,2.06-8.79,2.84a147.72,147.72,0,0,0,58.53,38.31l9.32-1.79A151.48,151.48,0,0,1,829.55,686.13Z"/><path d="M795.19,691.7l0,0a100.6,100.6,0,0,0-38-24.39c-.16.71-.5,1.93-.85,3.17-.07.22-.14.45-.22.67h0c-.51,1.76-1,3.38-1,3.38s39.39,11.11,54.95,58.22h6.21a84.63,84.63,0,0,0-21.07-41Z"/><path d="M873.34,704.8q3.39,2,6.88,3.85a152,152,0,0,1,57-56.46l-5.47-5.56A148.39,148.39,0,0,0,873.34,704.8Z"/><path d="M862.28,697.55q3.93,2.82,8,5.41a152,152,0,0,1,58.89-59l-4.89-5A148.33,148.33,0,0,0,862.28,697.55Z"/><path d="M852.59,689.91q3.33,2.85,6.82,5.51a152,152,0,0,1,62.3-59l-5.16-5.24h-2.09A148.41,148.41,0,0,0,852.59,689.91Z"/><path d="M937,716.21l18.53-3.56-10-6.72Q941.07,710.88,937,716.21Z"/><path d="M963.48,678.8c-1.54,1-3.07,2-4.57,3.09h7.62Z"/><path d="M936,681.89A153.47,153.47,0,0,1,953.79,669l-5.51-5.6a148.54,148.54,0,0,0-25.18,18.53Z"/><path d="M906.91,631.15H892.12A125.08,125.08,0,0,1,877.19,653,151.94,151.94,0,0,1,906.91,631.15Z"/><path d="M849.87,687.52a151.86,151.86,0,0,1,17.45-24.28,113.6,113.6,0,0,1-24.79,17.2C844.9,682.88,847.35,685.25,849.87,687.52Z"/><path d="M895.63,715.62c2.85,1.1,5.75,2.12,8.69,3a151.86,151.86,0,0,1,20.7-26.6l-7.34-4.95A148.07,148.07,0,0,0,895.63,715.62Z"/><path d="M952.88,681.89q3.93-3,8.06-5.68l-4.59-4.66a149.36,149.36,0,0,0-14.79,10.34Z"/><path d="M937.37,700.4a149.14,149.14,0,0,0-15.22,18.66l9.71-1.86a152.33,152.33,0,0,1,10.74-13.28Z"/><path d="M928,694.08a148.64,148.64,0,0,0-20.17,25.64c1.5.43,3,.84,4.52,1.22l4.88-.94a153,153,0,0,1,17.14-21.62Z"/><path d="M877.19,653l-9.87,10.23A116.13,116.13,0,0,0,877.19,653Z"/><path d="M858.84,656.14l-1.44,1.21-.45.36c-.33.28-.67.55-1,.82l-.5.39-1,.76-.51.38-1,.74-.49.35-1,.73-.47.33-1,.73-.45.3-1.07.72-.44.28-1.09.71-.4.25-1.14.72-.38.23-1.16.7-.35.2-1.2.7a3.3,3.3,0,0,1-.32.18l-1.23.7-.29.16-1.25.69-.29.15-1.26.66-.28.15-1.27.64-.27.14-1.26.62-.47.23-1.13.54-1,.47-.58.26c-1.08.49-2.16,1-3.23,1.42l-.3.13-1.24.51-.55.23-.94.38-.92.36-.78.3-.87.33-.78.29-1.94.71-.56.19-1.44.5-.66.22-1.78.59-.58.18-1.28.4-.76.23-1,.3-.65.19-1.57.44-.82.23-.51.14-.78.2-.54.15-.75.19-.52.13-.78.19-.45.11-.81.2-.38.09-.85.19-.29.07-.86.19-.24,0-.84.18-.22.05-.45.09-.6.12-.37.08-.63.12-.32.06-.62.12-.26,0-.63.12-.37.06-.56.1-.28,0-.35.05-.25,0-.31.05-.46.07-.21,0-.31.05-.16,0-.41.06c1.9,1.72,3.74,3.51,5.5,5.37.9-.06,1.8-.13,2.69-.21h0l.71-.07,1.56-.16,1.74-.22.22,0H805l2.29-.34.31,0c.74-.11,1.48-.24,2.21-.37l.37-.07,2.1-.41.45-.1,2-.44.18,0,.39-.1q3.87-.92,7.53-2.09l.53-.17,1.43-.48.89-.31,1.22-.44.7-.25.39-.15.79-.3,1.44-.58.57-.23.33-.13.55-.24,2-.84.8-.36c.78-.36,1.56-.72,2.33-1.1a1.63,1.63,0,0,0,.19-.09l.06,0,.12-.06,1-.49.59-.29.78-.41.78-.4.11-.06.05,0,.51-.27,1.09-.59.53-.3,1.08-.61.51-.3,1.08-.63.48-.29,1.08-.66.46-.28,1.07-.68.46-.29,1-.68.44-.3,1-.69.43-.3,1-.7.44-.32c.33-.23.66-.46,1-.7l.46-.34.93-.68.46-.35.9-.68.52-.4.81-.64.59-.47.72-.58.62-.51.65-.54.75-.63.5-.42,1.22-1.06A107.08,107.08,0,0,0,889,631.62l.23-.42H879A110.21,110.21,0,0,1,858.84,656.14Z"/><path d="M760.66,665.76l2.18-.07.38,0,2-.11h.11a107.21,107.21,0,0,0,14.67-2l.37-.08,1.74-.38.29-.07.09,0q4-.93,7.92-2.18l.3-.09,2-.67.15-.05,2.06-.73a.85.85,0,0,1,.17-.06l.67-.26.78-.3.93-.36.72-.29.23-.09.45-.19,1.31-.55.7-.3,1.43-.64.45-.21c.65-.3,1.29-.6,1.92-.91L805,655l1.64-.82.21-.11c.17-.08.33-.17.49-.26l.58-.3c.69-.36,1.39-.73,2.07-1.11l.67-.39.87-.5c.56-.32,1.12-.65,1.67-1l1.18-.72.56-.34.4-.26,0,0,.11-.08,1.21-.78.81-.54.41-.27.08-.06.35-.24c.47-.32.92-.65,1.37-1l.9-.63,1.61-1.2.88-.66,1.57-1.24.86-.69c.52-.42,1-.85,1.53-1.28l.84-.71c.51-.44,1-.89,1.5-1.33l.82-.73,1.47-1.4.78-.73c.52-.51,1-1,1.53-1.54l.65-.65c.72-.74,1.42-1.49,2.12-2.25H826c-.43.44-.87.88-1.32,1.31l-.35.34c-.33.32-.66.64-1,.95l-.37.35-1,.93-.35.31-1.06,1a3.88,3.88,0,0,1-.31.26l-1.12,1-.27.23-1.18,1-.24.19-1.23,1-.22.18-1.26,1-.36.28-.88.66-1.27.93-1.05.75-1.33.92-.54.37c-.7.47-1.41.93-2.12,1.39l-.41.26-.86.54-.89.55-.44.26c-.36.22-.72.44-1.09.65l-.78.45-1,.56c-.55.3-1.09.61-1.64.9l-.71.38-1.19.62-.72.36-1.26.63-.66.32-.95.45-.55.26-1.37.62-.14.06q-4.32,1.92-8.83,3.47c-1.13.39-2.27.76-3.41,1.11q-4.17,1.27-8.46,2.22c-1.07.24-2.15.46-3.23.67l-.52.1c-1.5.27-3,.52-4.53.73l-.55.08-1.74.22-.62.08-2.26.23c-.13.54-.28,1.08-.42,1.61C758.86,665.12,759.76,665.43,760.66,665.76Z"/><path d="M839.76,632.86l-1,1-.24.26-1,1.06-.2.21-1.07,1.09a1.85,1.85,0,0,1-.14.14L835,637.81l-.07.07a109.71,109.71,0,0,1-15.43,12.57c-.46.31-.92.62-1.39.92l-.42.27-1,.64-.32.21c-.74.46-1.49.92-2.24,1.36l-.26.15c-.69.41-1.39.81-2.09,1.21q-2,1.13-4.09,2.18l-.85.42-.86.42-1.53.73-.19.09-2,.89-.22.1-2,.85-1.38.56-.36.14-.22.08c-.7.28-1.4.54-2.1.8-.37.13-.73.27-1.1.39l-.78.28q-3.23,1.11-6.53,2c-1.15.32-2.3.62-3.46.9l-.36.09-1.75.4-.34.07c-2.17.47-4.35.88-6.56,1.22-1.24.19-2.49.36-3.74.51s-2.36.27-3.55.38c.81.37,1.62.76,2.42,1.16l.33.16c.78.4,1.56.8,2.33,1.21l1.07.58,1.42.79c.76,0,1.53,0,2.29-.06h0c1.63-.05,3.25-.15,4.85-.27h0c1.6-.12,3.19-.29,4.77-.48h0c1.28-.16,2.55-.34,3.81-.55h0c.81-.13,1.63-.27,2.43-.43h0l2.36-.47.16,0c1.57-.34,3.12-.7,4.66-1.1l.07,0,.05,0c1.18-.3,2.36-.63,3.52-1h0c.7-.2,1.39-.42,2.08-.64l.23-.07,2.09-.71.08,0,2.09-.76.06,0c.71-.26,1.41-.54,2.11-.81l0,0,.08,0,1.46-.59.27-.12c.45-.18.9-.37,1.34-.57l.18-.08.06,0c.87-.38,1.72-.77,2.57-1.17l.17-.08,2.52-1.23.1,0,.1-.05.26-.14.72-.37.68-.35.74-.4.66-.36.16-.09.19-.11c.3-.16.58-.33.88-.5l1.36-.77,1-.6,1.35-.82,1-.62,1.32-.85,1-.65,1.3-.89.95-.67,1.27-.91,1-.71,1.23-.93.93-.75c.4-.31.81-.63,1.2-.95l.93-.78,1.16-1,.93-.83,1.11-1,.94-.87,1.05-1,.95-.92,1-1c.32-.32.64-.66,1-1s.63-.63.94-1l1-1.07.85-.92c.36-.39.7-.79,1-1.18l.76-.87c.39-.45.76-.9,1.13-1.35.21-.25.42-.49.62-.74.57-.71,1.14-1.42,1.69-2.14h-17c-.39.46-.79.91-1.19,1.36Z"/><path d="M860,634.42c-.38.48-.76,1-1.15,1.44l-.9,1.07c-.34.4-.66.79-1,1.18s-.7.78-1,1.17l-.92,1c-.38.42-.77.82-1.15,1.23l-.87.92c-.41.43-.83.84-1.25,1.27l-.82.82-1.34,1.28c-.26.25-.52.51-.79.75-.46.44-.94.87-1.42,1.29l-.76.69-1.49,1.28-.74.64c-.51.43-1,.85-1.55,1.27-.25.19-.49.39-.73.59l-1.62,1.24-.72.56-1.66,1.21-.72.52c-.56.4-1.14.79-1.71,1.18l-.72.5-1.74,1.13c-.25.15-.49.32-.74.48l-1.76,1.07-.77.47c-.58.35-1.17.68-1.76,1l-.85.48-1,.56-.56.31-.7.36-.92.49-.71.35c-.65.33-1.29.65-1.95,1l-.84.4-1.82.84-2,.87-.47.19c-.58.25-1.16.48-1.75.72l-1,.38-1.53.58-.91.33-2,.7-.45.15c-.83.28-1.66.54-2.5.8l-.52.16-1.86.54-.78.22-1.36.35-1.85.47-1.85.44-1.18.25-1.47.3-1.22.23c-.51.09-1,.19-1.53.27l-.88.15c-.66.11-1.32.21-2,.3l-.38.06-.82.11c-.57.07-1.14.15-1.71.21l-1.06.12-1.69.17-.91.08-2.61.19a99.05,99.05,0,0,1,8.22,6c.89,0,1.77-.08,2.65-.14l.89-.07c.52,0,1-.07,1.55-.12l.22,0,.73-.07,1.61-.17,1.13-.14.39,0,.58-.08,1.71-.24.85-.13,1.73-.29.8-.15c.59-.1,1.17-.21,1.76-.33.24,0,.47-.1.71-.15q.92-.18,1.83-.39H808c.68-.15,1.36-.31,2-.48l.79-.2.94-.24.56-.15,1.11-.31,1.3-.38,1.14-.34,1.22-.39,1.18-.39,1.15-.39,1.21-.43,0,0c.67-.24,1.33-.49,2-.74l.67-.26.82-.32.48-.21c.61-.24,1.21-.5,1.81-.76l.87-.37c.73-.32,1.45-.65,2.17-1l.38-.18.11,0,.16-.07.91-.44.57-.28.88-.45.64-.32.13-.07.12-.06.67-.35.82-.44.78-.43.81-.44.77-.44.8-.47.77-.45.79-.47.75-.47.79-.49.74-.47.78-.51.73-.48.77-.52.73-.5.76-.53.72-.51.75-.54.7-.53.75-.55.69-.53.74-.57.68-.55.73-.58.68-.56.71-.59.67-.57.7-.6.66-.58.69-.61.65-.6.68-.62.65-.61.66-.62.64-.63.64-.63.64-.64.63-.65c.21-.21.42-.43.62-.65l.63-.65c.2-.22.41-.44.61-.67l.61-.65.62-.69.58-.66.61-.7.57-.66.6-.72c.18-.22.37-.44.55-.67l.6-.74.53-.66.59-.75.52-.67.59-.78.5-.67c.2-.26.39-.53.58-.8l.48-.66.59-.84.45-.64.6-.89.41-.61.64-1,.34-.53c.33-.51.65-1,1-1.54H862.47c-.58.79-1.18,1.58-1.78,2.36C860.47,633.85,860.23,634.13,860,634.42Z"/><path d="M910.32,681.84H918a151.63,151.63,0,0,1,27.75-21.1l-5.86-5.94a148.44,148.44,0,0,0-56.45,55.45q4.36,2.16,8.89,4a151.75,151.75,0,0,1,22.39-29.2l.17-.17Z"/></svg>