<svg id="Layer_1" data-name="Layer 1" xmlns="http://www.w3.org/2000/svg" viewBox="0 0 1080 1080"><title>Clients logo</title><path d="M929.17,621c6.82,2.5,13.89,4,20.86,6.69L937.51,668a22.24,22.24,0,0,0,2.6,1.21c24.26,7.72,48.32,16,72.11,25q26.15,9.93,51.84,20.92c1.41.6,2.79,1.24,4.27,1.89-.34,1.68-1.81,2.12-2.85,2.9-11.9,8.94-24,17.69-35.74,26.79-12.11,9.36-24,19-35.94,28.6-.86.69-1.68,1.43-2.6,2.22q2.81,24.06,5.6,48t4.28,47.71c-1.63.72-2.66-.25-3.72-.68-10.57-4.3-21.05-8.79-31.66-13a1149.57,1149.57,0,0,0-132.76-43.34c-2-.52-4-1-6.25-1.53C775.93,867,715.74,903.61,645.43,923q-105.2,29-210.65.13C364.43,903.81,304.2,867.28,253.24,815c-8.61,1.83-17,4.31-25.42,6.66s-16.59,4.71-24.83,7.22-16.72,5.24-25,8-16.62,5.53-24.88,8.45-16.48,6-24.67,9.06-16.08,6.22-24.08,9.44-16.14,6.66-24.55,10.13a16.22,16.22,0,0,1-.21-2.26c.39-5.69.75-11.39,1.25-17.07q1-11.43,2.21-22.84,1.4-13.28,3-26.54c1.09-9.11,2.28-18.2,3.46-27.58-4-3.49-8.26-6.85-12.46-10.26s-8.45-6.81-12.71-10.17-8.76-6.87-13.16-10.28-8.6-6.62-12.93-9.89-8.71-6.49-13.07-9.73-8.75-6.3-13.44-9.9c1.41-.69,2.33-1.19,3.28-1.6q42-18.16,85.12-33.15c13.27-4.62,26.64-8.91,40-13.36.9-.29,1.77-.67,2.9-1.11-1.87-7-4.2-13.64-6.24-20.39s-4.21-13.19-6.17-20c6.58-2.61,13.26-4,19.89-6.41a11.35,11.35,0,0,0,0-2.33,368.53,368.53,0,0,1-6.19-41.67,389.25,389.25,0,0,1-1.73-42.52c.23-13.22,1-26.42,2.47-39.56a393.68,393.68,0,0,1,24.54-99.37,388.91,388.91,0,0,1,53.23-95.13C272,236.31,334.79,190.48,411.5,163.84A380.81,380.81,0,0,1,480.29,147a414.77,414.77,0,0,1,47.35-4.27A382,382,0,0,1,574.77,144a397.36,397.36,0,0,1,245.93,115q69,69.35,98.56,162.62a391.15,391.15,0,0,1,14.14,63,417.07,417.07,0,0,1,3.75,44.48,377.63,377.63,0,0,1-1.2,42.54,395,395,0,0,1-6.6,47.08A21.45,21.45,0,0,0,929.17,621ZM593.94,840.09c-.62-1.4-1.74-1.6-3.11-1.4-4.12.59-8.26,1.11-12.38,1.71a8.74,8.74,0,0,0-1.85.7c0,2.54,0,4.86,1.25,6.91l2.75.5c1.32,5.76,1.35,6.25.44,8.69-5.17-4.92-9.14-10.84-14.19-15.68-4.43.5-8.7,1-13,1.48-2.07.26-2.93,1.28-2.76,3.39.12,1.5.5,3,.78,4.55l3,.81q1.39,10.92,2.79,21.82c0,.11-.12.23-.26.51l-2.35,1c-.31,3.75-.31,3.75,1.1,7.08,1.85.64,3.76,0,5.65-.21s3.85-.49,5.78-.73,3.89,0,5.43-1.37c-.28-5.08-.47-6.16-1.23-7l-4-.48c.85-3.19-1.69-6-.23-9.18a4.27,4.27,0,0,1,1.08.62c2.12,2.39,4.18,4.83,6.3,7.22s4.06,4.54,6.11,6.8a3.38,3.38,0,0,0,2.95,1.26q4.76-.57,9.5-1.25c.36-.06.67-.43,1.06-.7-.52-5-1.07-9.92-1.54-14.88s-1.68-9.81-1.93-14.92l3.19-1.71c-.16-1.88-.32-3.8-.47-5.69,1.32,1,1.26,2.71,1.93,4a2.23,2.23,0,0,0,2.21,1.54,6.74,6.74,0,0,1,1.67.41c2.05,6.39,4.1,12.72,6.09,19.07a7.25,7.25,0,0,1,.11,2l-2.36,1.88c.42,1.49.74,2.83,1.19,4.13a20.61,20.61,0,0,0,1.11,2.28,7,7,0,0,0,1.72,0c4.52-1.36,9-2.73,13.52-4.17a6,6,0,0,0,1.56-1.19c-.55-2.05-1-3.93-1.57-5.78a3.43,3.43,0,0,0-.7-1h-2.53a4,4,0,0,1-1.13-3.81,5.15,5.15,0,0,1,2.19-3.88,14.47,14.47,0,0,1,6,5.17l-1.6,2.34c1.21,1.84,1,4.36,2.61,6.51l9.95-3c3.42-1.05,7.05-1.45,10.28-3.31a12.44,12.44,0,0,0-2.3-7.32l-2.94.48c-2.47-2.1-4.86-4-7.1-6.08s-5.2-3.72-7-6.29c.83-4.18,3.17-7.41,7.46-10.24l-2-6.54a5.59,5.59,0,0,0-1.53-.06q-7.36,2.26-14.7,4.61a11.08,11.08,0,0,0-1.88,1,32.53,32.53,0,0,1,1.67,5.27c.2,1.41,1.7,1.3,2,2.33-1.39,3.71-2.15,4.83-4.66,6.78a22.5,22.5,0,0,1-1.75-4.69c.55-1.32,2.35-1.24,2.13-2.71-.35-2.45-.66-5-2.86-6.44-2.87.78-5.56,1.45-8.21,2.24-2,.59-3.93,1.41-5.92,2A4,4,0,0,0,593.94,840.09ZM277.31,590.24c7.48-1.34,14.72-2.66,22-3.94s14.24-2.55,21.37-3.72,14.55-2.32,21.84-3.36,14.61-2,21.92-2.91,14.63-1.81,22-2.63,14.38-1.58,21.58-2.27,14.68-1.34,22-1.93,14.7-1.12,22-1.61,14.71-1,22.08-1.36c7.22-.36,14.44-.63,21.67-.85s14.74-.33,22.1-.45,14.74-.27,22.11-.26,14.74.15,22.11.28,14.46.26,21.69.47,14.73.45,22.09.81,14.71.86,22.07,1.35,14.71,1,22.06,1.57,14.41,1.23,21.61,1.92,14.68,1.42,22,2.24,14.63,1.74,21.94,2.66,14.63,1.86,21.92,2.91,14.31,2.14,21.44,3.31c7.28,1.19,14.52,2.57,21.8,3.71s14.38,2.89,21.63,3.8c5-17.84,7.49-57,2.09-91.05-7.21-45.44-24.74-86.46-52.94-122.82C723,339.4,687.32,312,644.7,293.54c-35.08-15.18-73.9-21.19-95.59-20.82-1.12,1.4-.87,3.14-1,4.76a13.91,13.91,0,0,0,4.56,12c1.62,1.52,3.26,3,4.9,4.52,3.48,3.2,7.11,6.25,10.43,9.6a55.49,55.49,0,0,1,11.5,16.28,33.67,33.67,0,0,1,2.07,23.2,37.36,37.36,0,0,1-9.43,16c-7.67,8.12-16.94,13.93-27,18.56a25.87,25.87,0,0,1-2.5.84c-.63-2.34-2.27-3.53-4.38-4.37.43-1.24.71-2.3,1.14-3.29,1.51-3.44,3.08-6.85,4.61-10.28,2.37-5.33,4.92-10.6,7-16,2.26-5.76,2-6.84-2.39-11.07-3.8-3.67-7.85-7.07-11.76-10.62-2.87-2.62-6-5.05-8.51-8-9.92-11.41-13.64-24.32-8.78-39.1.24-.74.33-1.53.54-2.52a50.39,50.39,0,0,0-12.78,1.15,32.46,32.46,0,0,0-1.4,11.52,15.27,15.27,0,0,0,3.46,8.79c1,1.19,2,2.33,2.9,3.56,1.74,2.34,3.56,4.64,5.08,7.13,3.51,5.72,5.38,11.88,4.33,18.7a4.41,4.41,0,0,0,.3,1.31c1.09.19,2.18.32,3.25.56,7.15,1.54,12.44,5.48,15.25,12.3,2.93,7.11.74,15.89-5.17,21.43-1.93,1.8-4.06,3.38-6.05,5.12-1.24,1.07-2.72,2-3.44,3.69,1.46,4.69,4.27,8.92,5.59,13.81a22.23,22.23,0,0,0-3,1.82c-.78.68-.53,2.21-1.86,2.52a37.71,37.71,0,0,1-13.34-7.58c-7-6.25-8.75-15.29-3.48-23.74a32.08,32.08,0,0,1,6.81-7.84c1.71-1.42,3.34-2.94,5-4.4a3.46,3.46,0,0,0,1.31-3.33,30.26,30.26,0,0,0-2.79-9c-2.6,3.8-4.85,7.45-7.8,10.56-3.35,3.53-7.15,6.57-10.47,8-.4-2.46-2.85-2.52-4.68-3.68.29-1.19.5-2.26.82-3.3,1.29-4.11,2.49-8.26,3.95-12.31,1.9-5.24,1-9.82-2.7-13.91-.47-.51-.89-1.07-1.33-1.61-1.61-1.92-3.28-3.78-4.8-5.77-6.73-8.8-8.14-18.36-4-28.68.35-.87.67-1.74,1-2.71-13.32.88-46.65,11.2-69.93,23a268.36,268.36,0,0,0-95.57,80.38,265.27,265.27,0,0,0-49.28,117.34C270.17,530.41,271.85,568.32,277.31,590.24ZM918.41,618c.67-3.52,1.25-6.5,1.81-9.48a356,356,0,0,0,5.33-43.89,376.81,376.81,0,0,0,.41-41.71,416.8,416.8,0,0,0-5.06-47.69,375.8,375.8,0,0,0-21.61-77.41A388.53,388.53,0,0,0,658.06,171.9a377.38,377.38,0,0,0-60-14.09A363.07,363.07,0,0,0,560.69,154a405,405,0,0,0-49.64.54q-17.49,1.35-34.78,4.16a373.12,373.12,0,0,0-66.92,17.42A383.48,383.48,0,0,0,255.23,278.74q-67.95,74.1-91.46,172a379.91,379.91,0,0,0-9.93,70.56c-.47,10.15-.69,20.3-.33,30.45A370.84,370.84,0,0,0,156.6,590c1.21,8.54,2.76,17,4.21,25.52a12.05,12.05,0,0,0,1,2.57c7.19-2.07,14.18-3.82,21.21-6a20,20,0,0,0-.12-2.21c-.81-4.8-1.66-9.59-2.47-14.39a295.2,295.2,0,0,1-3.79-36.08,390.71,390.71,0,0,1,.49-46.29,364,364,0,0,1,5.44-41.77,358.57,358.57,0,0,1,35.12-100.45A365.46,365.46,0,0,1,397.35,205.21a355.93,355.93,0,0,1,81.87-23.93,371.16,371.16,0,0,1,82.33-4.4A364.84,364.84,0,0,1,605,182.07a356.54,356.54,0,0,1,80.81,24.64A363.59,363.59,0,0,1,902.5,567a385.76,385.76,0,0,1-5.62,42.58,21,21,0,0,0-.15,2.5Zm-210.9,129.8A1175.57,1175.57,0,0,0,560.4,736.19,1204,1204,0,0,0,378.21,747c-1.87.26-3.71.63-5.72,1,5.4,6.4,29,22.13,47.31,31.25a267.92,267.92,0,0,0,228,5.66C669.12,775.49,700.44,756.09,707.51,747.81ZM265.72,811.93c1.43,1.5,2.36,2.52,3.34,3.49a386.16,386.16,0,0,0,176.85,99.42A388.83,388.83,0,0,0,491,923.29q17.61,2.26,35.34,2.89A385.17,385.17,0,0,0,776.8,845.07a377.86,377.86,0,0,0,35.08-30.86c.72-.73,2-1.26,1.54-2.81-3.73-.9-7.51-1.79-11.28-2.73a17.49,17.49,0,0,1-2.27-.9c1.18-5.39,2.3-10.53,3.42-15.68a.51.51,0,0,0-.15-.38c-.07-.08-.23-.09-.32-.11-72.35,72.52-159.26,111.48-262.14,111.72S350.75,865,277.44,792.24c.56,5.86,2.68,10.61,3,15.85C275.72,809.57,270.9,810.18,265.72,811.93ZM574.61,253c4.41.11,8.71,1.34,13.19,1.22,3.71-6,5.87-12.5,8.56-18.72a27.62,27.62,0,0,1,3.23-5.81c-.49,5.06-1,10-1.47,15a4.79,4.79,0,0,1-.64,1.37l-4,.46c-.31,2.89-1.45,5.5-.69,8.31.41.26.74.63,1.12.68q9.06,1.41,18.13,2.73a6.34,6.34,0,0,0,1.53-.11c1.45-3.29,1.7-4.69,1.55-8.74l-2.95-1.65c.08-1.63,0-3.29.27-4.92.85-6.06,1.77-12.1,2.7-18.15a5.14,5.14,0,0,1,1.4-3.43l3.19-.64c.43-3,1.54-5.79.3-8.78-4.17-.65-8.26-1.53-12.39-1.85s-8.12-1.81-12.25-1.64c-1,1.88-2.34,3.47-2.84,5.28-1.22,4.45-3.73,8.32-5.24,12.62a15,15,0,0,1-1.46,2.4c-1-7.78-2-14.9-3-22.26-8.31-1.21-16.41-3.09-24.69-3.31-2,2.47-1.35,5.24-1.7,7.78-.06.43.68,1.21,1.21,1.43a2.34,2.34,0,0,1,1.59,2.61,26,26,0,0,1-.39,3.31,196.87,196.87,0,0,0-3,20.63,3.4,3.4,0,0,1-.47,1.09l-3.13.52c-1.37,4-1.49,5.09-.9,8.51l4.45-.43a3.5,3.5,0,0,0,2.86,2c2.07.22,4.11.71,6.18,1,1.35.17,2.74.6,4.24-.16a20,20,0,0,0,1.32-8.38c-.51-.25-.86-.46-1.24-.6-1.89-.68-2.17-1-2-2.49.1-1,.37-1.91.5-2.88a35.94,35.94,0,0,0,.57-4.94,9.24,9.24,0,0,1,1.33-5.17c1.08,1.12.95,2.57,1.12,3.92.67,5.38,1.3,10.77,2,16.15A13.66,13.66,0,0,0,574.61,253Zm-111.7,7.66c2.75.21,4.88-.95,7.09-1.65s4.49-1.46,6.71-2.27,4.66-.77,6.68-2.34a21.07,21.07,0,0,0-2.34-8.34l-3.7-.41a14.83,14.83,0,0,1-1-2q-3.3-10.55-6.5-21.1a9.09,9.09,0,0,1,0-2.45l2.43-1.69a13.91,13.91,0,0,0-3.15-8.48c-4.08,1.25-8.11,2.31-12,3.74s-8.07,2-11.77,3.88c-.17,2.1-.75,4.1-.39,5.91.93,4.69.27,9.41.73,14.1.06.59.27,1.42-.7,1.69l-11.8-18c-2.94.81-5.61,1.5-8.27,2.28s-5.34,1.55-7.94,2.5-5.33,1.41-7.53,2.9c-.58,3.18,1.28,5.48,1.89,8.16l3.91.65c.84,2.87,1.64,5.66,2.46,8.45s1.84,5.83,2.6,8.79c.72,2.79,2.27,5.32,2.77,8.2l-2.82,1.93a15.67,15.67,0,0,0,2.55,8,5.41,5.41,0,0,0,1.68.07q7.18-2.15,14.32-4.42a6,6,0,0,0,1.44-1,19.55,19.55,0,0,0-2.86-8.58l-3,.56a5.31,5.31,0,0,1-.94-1.43c-.83-3.37-1.6-6.75-3.3-9.83a3.18,3.18,0,0,1-.28-1.62c0-.56-.46-1.27.5-1.82.81,1.17,1.61,2.29,2.36,3.44q4.31,6.65,8.59,13.31a15.86,15.86,0,0,0,4.25,4.85c3.7-1.22,7.51-2.47,11.31-3.75a2.26,2.26,0,0,0,1.54-2.27c0-2.49,0-5-.09-7.48-.12-4-.13-8.07-.52-12.06a16.35,16.35,0,0,1,.61-6.29c1,3.06,1.72,5.59,2.57,8.08s1.8,4.89,2.76,7.47l-3.42,2A19.15,19.15,0,0,0,462.91,260.65ZM767.73,648.22c-1-.86-1.71-1.51-2.45-2.12-2.68-2.22-5.29-4.63-8.91-5.15a24.32,24.32,0,0,0-9.94.27c-1.87.51-3.78.8-5.44,2-3.24,2.28-6,4.76-7.21,8.82-1.53,5-1.22,9.58,2.13,13.61a33.69,33.69,0,0,0,15,10.11,12.43,12.43,0,0,1,5.53,3.56,1.84,1.84,0,0,1-.51,2.87,5.81,5.81,0,0,1-4,.91c-4.06-.62-6.92-2.71-8.17-6.74-.2-.64-.28-1.32-.4-1.89a5,5,0,0,0-1.26-.68q-5.75-1-11.5-1.85c-.22,0-.49.21-.9.41a14.07,14.07,0,0,0-1.35,5,13.14,13.14,0,0,1-.56,2.83c-.94,2.93-1,6-1.29,9a5.79,5.79,0,0,0,.62,2c4.26.39,8.2,1.92,12.08,2,1.55-.85,1.08-2.77,2.61-3.39.49.57.9,1.13,1.39,1.61a11.83,11.83,0,0,0,1.62,1.3c7.13,4.75,14.92,5.73,23.15,3.93a7.64,7.64,0,0,0,3-1.32,17.41,17.41,0,0,0,6.31-8.56c1.61-5.35.78-10.06-3.31-14.12s-9-6.86-14.12-9.4a27.39,27.39,0,0,1-4.32-2.46,6.93,6.93,0,0,1-1.93-2.64,2.49,2.49,0,0,1,1.77-3.57,6.77,6.77,0,0,1,2.05-.24,8.16,8.16,0,0,1,7.61,6.52c.22,1.07.37,2.15.55,3.21a7.4,7.4,0,0,0,1.67.7c3.44.49,6.88.94,10.34,1.33a4.51,4.51,0,0,0,1.6-.46c1.28-6,3.65-11.77,2.31-18.2-3.79-1.65-7.87-2.07-12.06-2.4C768.86,646.18,768.34,647.13,767.73,648.22Zm-117.55,35.3,0-.27a41.42,41.42,0,0,0,4.17,0c7.4-.72,13.29-3.93,16.7-10.76,3.22-6.44,5-13.22,4.1-20.52-.15-1.24-.15-2.5-.28-3.74-.65-6-3-10.92-8.18-14.29-.81-.54-1.65-1-2.47-1.57-9.25-5.92-18.89-5.55-28.73-1.71-2.16,1.72-4.7,3.13-6.39,5.22-2.4,3-5,6-5.42,10.13-2.49,6-2.39,12.22-1.2,18.45,1.7,8.83,9.11,16.31,17.75,17.9C643.52,683,646.87,683.14,650.18,683.52Zm-32-56.13c-1.17-.16-2.22-.39-3.29-.44-5.55-.31-11.11-.62-16.66-.84-8.61-.34-17.23-.62-25.84-.91a3.3,3.3,0,0,0-3.27,1.39c-.19,5.17-.44,10.71-.56,16.25a8.52,8.52,0,0,0,.86,2.63c2.2.08,4.13.21,6.07.2s3.88.49,5.65-.23c2-2.71.83-5.79,1.36-8.54.31-.22.52-.4.75-.54a.69.69,0,0,1,.39-.14c2.77.16,5.54.33,8.3.53a7.16,7.16,0,0,1,1.41.44,13.27,13.27,0,0,1-1.25,2.16c-1.27,1.47-2.66,2.83-4,4.28-3,3.31-5.84,6.68-8.83,10s-5.9,6.26-8.84,9.4c-.76.82-1.46,1.68-2.13,2.56a4.06,4.06,0,0,0-1,1.76c-.34,3.15-1,6.29-.7,9.49,2,1.23,4.16.92,6.19,1,11.94.52,23.89,1,35.84,1.43,1.67.07,3.32.28,5,.37,2.1.12,2.67-.41,2.89-2.58,0-.14,0-.28,0-.41.19-4.72.4-9.44.58-14.16,0-1.11.06-2.24-.92-3-10.22-1-10.22-1-13.16.22-.78,2.7.77,5.79-1.2,8.58-2.93.48-5.92-.14-8.92-.57-.31,0-.58-.45-1-.8.39-.53.67-1,1-1.38q11.1-12.15,22.19-24.32a23.32,23.32,0,0,0,2.51-3.32,4.64,4.64,0,0,0,.74-2.32C618.48,632.89,618.31,630.27,618.2,627.39ZM345.61,638c-4.26.09-44.55,6.11-47.72,7.76-.73,2.13.05,4.26.43,6.42s.65,4.4,1.07,6.58.31,4.44,2.09,6.45c3.83-1.12,7.92-.84,11.87-2.51,0-1.6.12-3.12,0-4.6s-1.25-2.84-.27-4.58a54.62,54.62,0,0,1,10.49-1.25,25.76,25.76,0,0,1-1.25,2.88q-8.07,13.36-16.19,26.69c-.64,1.07-1.16,2.21-1.84,3.26a4.53,4.53,0,0,0-.62,3.2c.32,2.46.67,4.92,1,7.3a9.72,9.72,0,0,0,6.59.67c4.63-.91,9.31-1.57,14-2.29,8.65-1.32,17.31-2.6,26-3.93a21,21,0,0,0,2.41-.67,9,9,0,0,0,.22-2.15q-1.14-7.83-2.42-15.64a10,10,0,0,0-.82-2,83.58,83.58,0,0,0-12,1.79c-.48.13-.87.62-1.44,1,.23,1.11.48,2.18.66,3.25a31.12,31.12,0,0,1,.54,3.7,2,2,0,0,1-1.92,2.26c-2.34.29-4.69.55-7,.75a4.6,4.6,0,0,1-1.5-.43,6.16,6.16,0,0,1,.39-1.4q8.63-14.26,17.25-28.51a24.89,24.89,0,0,0,1.85-3.73,4.72,4.72,0,0,0,.39-2.41c-.42-2.32-1-4.61-1.56-6.9A4.93,4.93,0,0,0,345.61,638Zm89.65,42.86c-.09-3.28,0-6.56-.82-9.91-1.3-.08-2.4-.1-3.48-.22a1.58,1.58,0,0,1-1-2.75,3.61,3.61,0,0,1,2.09-1.11q4.77-.48,9.57-.66c2.12-.08,2.6.47,3.48,3.35-1.25.72-2.7.27-4,.58a9.7,9.7,0,0,0-1.92.85c0,1.83-.11,3.35,0,4.85s.07,3.33,1.11,5.05c.95,0,1.91,0,2.85,0,8.18-.54,16.36-1.11,24.54-1.66a7.52,7.52,0,0,0,.83-.09,1.88,1.88,0,0,0,1.8-1.93,26.36,26.36,0,0,0-1.11-8.7h-4.87c-2.94-6.8-5.25-13.77-8-20.58s-5.59-13.57-8.48-20.53c-1.72.09-3.23.15-4.73.26-2.5.18-5,.43-7.48.6-4,.28-8.05.49-12.07.81-3.7.3-4.52,1.15-4.68,4.88a20.29,20.29,0,0,0,.26,3.73,3.18,3.18,0,0,0,1.48,2.4,9.85,9.85,0,0,1,1.47,1.35c-.16,1-.26,1.8-.44,2.6q-2,8.74-4,17.47c-.57,2.43-1.18,4.86-1.76,7.29s-1.85,4-4.6,3.83c-.2,0-.42.3-.82.6a20.6,20.6,0,0,0,1.26,9.7c7.39-.46,14.58-.9,21.77-1.39A6.84,6.84,0,0,0,435.26,680.81ZM404.81,663.5c-1.62-.43-3.12,0-4.62.1s-3.05.29-4.57.47-3.09,0-4.37,1.56c-.28,2.7,1.69,5.52.28,8.57a6.58,6.58,0,0,1-1.8.61c-2.49.13-5,.14-7.47.16-.2,0-.39-.32-.73-.62a13.11,13.11,0,0,1,.71-1.4c4.54-6.83,9.12-13.64,13.64-20.48,2-3,3.87-6.09,5.78-9.15a6.3,6.3,0,0,0,.73-6,24.29,24.29,0,0,1-.63-3.69,20.23,20.23,0,0,0-.71-2.2,9.24,9.24,0,0,0-1.49-.16c-4.7.46-9.41.9-14.1,1.44-8.84,1-17.67,2.06-26.5,3.19-2,.25-4.16.18-6.21,1.53-.07,5.67,1.27,11.24,1.84,16.88a7.65,7.65,0,0,0,.85,2.1c4.23.07,9.75-.71,12.14-1.68a12.85,12.85,0,0,0-.13-6.93c-.38-1.59.23-2.48,1.81-2.6,2.87-.23,5.75-.28,9.07-.43a25.1,25.1,0,0,1-1.35,3c-4.1,6.28-8.23,12.52-12.35,18.78-2.14,3.25-4.18,6.55-6.42,9.72a6.36,6.36,0,0,0-1.07,4.72c.2,1.79.27,3.6.47,5.39a13.1,13.1,0,0,0,.54,2.08,34.11,34.11,0,0,0,8-.39c3.73-.46,7.45-1,11.17-1.39,9-1,18-2,26.95-3a24.6,24.6,0,0,0,2.79-.64,16.42,16.42,0,0,0,.15-2.68q-.85-7.67-1.82-15.31A6.63,6.63,0,0,0,404.81,663.5Zm394.36,28.92c.39-1.83,1.51-2.62,3.28-2.25,3.13.64,6.24,1.39,9.35,2.11.4.09.94.14,1.16.42a10,10,0,0,1,1.51,2.37c.16.37-.2,1-.32,1.46-2.12.05-3.95-1.33-6-.34-.45,1.59-.92,3.17-1.35,4.76s-.92,3.22-.18,5c8.87,2,17.8,4,26.73,6a15.1,15.1,0,0,0,1.9.21c1.64-2.69,2.12-4.21,2.52-8.42a6,6,0,0,0-.37-1.82l-4.4-1.07c-.59-6.35-1.18-12.56-1.73-18.78-.39-4.42-.66-8.85-1.11-13.26-.42-4-1-8-1.54-12a17.9,17.9,0,0,0-2.1-.79q-8.34-1.83-16.7-3.61c-2.17-.46-4.35-.93-6.55-1.24a3.52,3.52,0,0,0-2.32.51c-1.67,1.21-3.2,6.61-2.55,8.47a3.42,3.42,0,0,0,.39.73c.43.68.88,1.35,1.26,1.92a12.38,12.38,0,0,1-.53,1.38c-4.06,7.28-8.11,14.58-12.23,21.83a44.13,44.13,0,0,1-2.84,4H780c-.91,3.28-2,6.4-1.16,10,2,.4,3.85.76,5.73,1.17q7.32,1.62,14.64,3.29a2.52,2.52,0,0,0,2.93-.77c-.19-2.88,2-5.7,1.45-9C802.15,693.74,800.07,694.17,799.17,692.42ZM493.08,677.81a11,11,0,0,0,1.61.32q9.8-.06,19.58-.16a41.82,41.82,0,0,0,15.8-3,19,19,0,0,0,9.83-8.57A30.32,30.32,0,0,0,543,644.18c-2.07-8.49-6.81-14.44-15.48-16.85A34.47,34.47,0,0,1,524,626.1a20.25,20.25,0,0,0-7.75-1.33c-6.11.06-12.23,0-18.34.09a23.38,23.38,0,0,0-3.74.29,2.79,2.79,0,0,0-2.44,2.5,15.62,15.62,0,0,0,.3,7.41c.08.24.34.41.52.61l3.77.75c.89,9.27.54,18.44.84,27.57a24.89,24.89,0,0,1-.27,2.94l-4.32.81A21.12,21.12,0,0,0,493.08,677.81Zm52.34-419.27a14.58,14.58,0,0,0-1.83.51,35.56,35.56,0,0,0-14.37,13,29.08,29.08,0,0,0-3.65,23.63c1.83,7.11,5.86,12.88,11.21,17.73,4.32,3.92,8.94,7.52,13.27,11.44a88.45,88.45,0,0,1,6.55,7,10.73,10.73,0,0,1,2.57,8.93,18.79,18.79,0,0,1-.73,3.67c-1.16,3.27-2.33,6.55-3.7,9.74-1.65,3.83-3.53,7.55-5.26,11.35a7.88,7.88,0,0,0-.25,2.07,79.44,79.44,0,0,0,14.66-10.3,40.16,40.16,0,0,0,7.57-8.84c4.49-7.13,5.54-14.71,2.73-22.76a42.28,42.28,0,0,0-7.56-12.9,108.6,108.6,0,0,0-14.33-13.95c-1.59-1.33-3.1-2.78-4.61-4.22a21,21,0,0,1-6.52-18.95c.53-3.7,1.51-7.35,2.38-11C544,262.82,544.67,261,545.42,258.54ZM378.51,298.78A53.08,53.08,0,0,0,373,291.4l-3.62,1.47c-.69-.81-1.36-1.48-1.92-2.23-1.47-2-2.81-4.15-4.37-6.09-3.13-3.91-6.38-7.71-9.56-11.57a8.73,8.73,0,0,1-.75-1.37l2.21-2.92c-2.56-4.21-3.21-4.89-6-6.37-6.4,4.28-14.86,11.24-16.81,14,1.94,1.94,3.41,4.4,5.58,6.37l3-1.27c3.32,2.89,4,3.85,4.93,7-3,1.49-4.71,4.88-8.42,5.93-1.74-2.1-3.82-3.88-5.08-6.34.66-.6,1.2-1,1.68-1.53a2,2,0,0,0,.29-2.67c-1.47-2.15-2.93-4.35-5.42-5.57a43.85,43.85,0,0,0-8.7,6.66c-2.56,2.5-5.95,4-8.16,7,1.21,2.9,3.58,4.64,5.22,6.9l3.43-1.46c5.2,5,8.81,11.16,13.53,16.41a52.94,52.94,0,0,1,3.39,4.64c-.9,1.18-1.62,2.13-2.4,3.14,1.54,2.66,3.11,5,5.71,6.66a18.49,18.49,0,0,0,1.87-1.11q7.07-5.5,14.1-11.07a8.71,8.71,0,0,0,1.24-1.62c-1.61-2.18-3.06-4.2-4.58-6.17-.22-.29-.71-.38-1-.55l-3.46,1.66a46.12,46.12,0,0,1-4.72-6.24c2.15-3.4,4.61-6.08,8.76-6.7,1.53,1.78,3.07,3.56,4.57,5.37.16.18.12.52.18.86l-2.16,2.94a61.81,61.81,0,0,0,5.39,6.54,12,12,0,0,0,2.3-1.1C368.22,307,373.19,303,378.51,298.78Zm-13.22-35.43c-.51,2.56.34,4.91.93,7.34a28.86,28.86,0,0,0,8.66,14.45c5.7,5.29,12.55,7.16,20.06,4.79A36.8,36.8,0,0,0,409.8,281,15.61,15.61,0,0,0,414.73,269a31.08,31.08,0,0,0-7.39-19.86c-.72-.84-1.36-1.75-2-2.62a16.1,16.1,0,0,0-12.14-6.39,28.25,28.25,0,0,0-18.46,5.21,25.5,25.5,0,0,0-7.37,8.37A14.44,14.44,0,0,0,365.29,263.35ZM640.22,268a6.86,6.86,0,0,0,1.4.94q11.73,4.25,23.48,8.44c1.76-1.61,2.06-3.74,2.73-5.67.35-1,.93-2.06.14-3.34L664.46,267c.38-13.21,1.64-26.34,1.47-39.63-1.18-.49-2.18-.94-3.2-1.31-2.35-.87-4.71-1.68-7.06-2.54-3.26-1.2-6.49-2.49-9.78-3.63-3.48-1.2-4.34-.8-5.92,2.37s-1.55,3.69-.15,7a6.81,6.81,0,0,1-.54,1.08c-4.61,6.11-9.18,12.25-13.85,18.31-2.32,3-2.4,2.92-6.44,2.23a15.8,15.8,0,0,0-2.65,8.34c3.53,1.8,17.42,6.76,19.87,7.08,1-2.74,2.64-5.31,2.88-8.32l-3.59-2.26c1.09-2.12,1.5-2.52,2.65-2.12,3,1,6,2.19,9,3.35a2.23,2.23,0,0,1,1.43,1.91c.07.68.2,1.4-.66,1.74-1.64,0-3-1.52-4.82-.82C641.92,262.4,640.29,264.85,640.22,268Zm27.17,10.6a8.45,8.45,0,0,0,1.18,1.1q7.89,4.68,15.8,9.32a34,34,0,0,0,13.28,4.5,16.84,16.84,0,0,0,10.86-2c7.14-4.26,11.83-10.41,13.39-18.73.6-3.16.86-6.26-.35-9.42a30.61,30.61,0,0,0-11.88-14.61c-4.6-3.09-9.53-5.72-14.33-8.51a33.15,33.15,0,0,0-3-1.41,2.27,2.27,0,0,0-3,.8,17.48,17.48,0,0,0-3.4,6.29l2.91,2.57c-3.4,7.31-7.92,13.84-11.6,20.81a30.7,30.7,0,0,1-1.91,2.77l-3.72-1.29A21.43,21.43,0,0,0,667.39,278.56ZM247.44,697.48c-.74-3.08-1.43-6-2.15-8.94a7,7,0,0,1,1.47-.93c2-.64,4-1.14,6-1.8a26.84,26.84,0,0,0,11.18-7,9.92,9.92,0,0,0,2.89-8c-.35-4-1.91-7.51-3.6-11a6.3,6.3,0,0,0-1.69-1.81,12.41,12.41,0,0,0-7.2-3,31.23,31.23,0,0,0-9.55.37q-11.59,2.61-23.18,5.22c-.79.18-1.55.49-2.3.74-1,3.51,1.1,6.34,1.6,9.42,0,.22.35.4.56.62l3.2-.16c1.83,3.11,2.23,6.45,3,9.68.77,3.39,1.61,6.77,2.16,10.2.52,3.24,2,6.33,1.76,9.78l-3.42,1.59c-.44,2.72.48,5.08,1.13,7.46s1.26,2.71,3.63,2.21q9.18-1.9,18.32-4A15.5,15.5,0,0,0,254,707c-.45-2.73-.79-5.33-1.33-7.88-.4-1.9-1.05-2.23-3-2C249,697.18,248.37,697.32,247.44,697.48Zm432.92-65a17.34,17.34,0,0,0-1.34,9.52l3.26,1.55c1,2.12,1.81,4,2.64,5.92q3.76,8.6,7.5,17.18a6.82,6.82,0,0,1,.42,5.26c-.37,1-.61,2.13-1,3.18-.08.23-.35.4-.49.56L688,676c-.7,3.28-1.69,6.31-.83,9.81,6.81,1.39,13.75,1.77,20.55,3.08a16.66,16.66,0,0,0,3,0,17,17,0,0,0,1.67-10l-3.62-1.25c-.35-3.4,0-6.36,2.21-9.07,4.45-5.5,7.94-11.73,12.81-16.94,1.26-1.35,2.27-2.7,4.29-2.9a2.33,2.33,0,0,0,2.12-1.76,16.71,16.71,0,0,0,.45-8.3c-3-.48-5.88-1-8.74-1.38s-5.79-.68-8.69-.9a13.15,13.15,0,0,0-2.83.41c-.54,3-1.23,5.84-.85,8.51.83.93,2.1.94,2.2,2.44-2.15,2.47-3,6.2-6.32,8.2-1.13-2.65-2.19-5.06-3.16-7.5a11.34,11.34,0,0,1-.42-2.23c3.06-1.54,3.07-1.54,3.55-4.29a23.35,23.35,0,0,0,.4-2.89c0-1.22.3-2.52-.92-3.74C696.9,634.49,688.75,632.93,680.36,632.53ZM733.7,299.8c1.89.56,3.78.81,4.56,2.37,1.29,2.54,3.53,3.31,6,4.12a18.78,18.78,0,0,0,5.4-7.34c-2.41-3-6.23-4.26-8.59-7.23,1.22-2.63,2.18-5.28,5.41-6a24.07,24.07,0,0,1,6.35,5.47l-3,4a24.77,24.77,0,0,0,9.79,7.66C761,301,762.46,299,764,297s3.53-3.49,4.35-6.16c-2.74-2.17-5.35-4.2-7.94-6.27s-5-4-7.45-6-5.2-4.17-7.82-6.24-4.89-4.49-7.79-6c-3,1.86-3,1.86-6,6.84a7.94,7.94,0,0,0,.74.93c2.12,2.16,2.13,2.22.36,4.38q-6.47,7.9-12.94,15.81c-.87,1.06-1.84,2-2.85,3.13-.77-.47-1.34-.83-1.93-1.16s-1.14-.62-1.63-.88c-3.27,2.88-4,3.89-5.15,7.13a4.67,4.67,0,0,0,.71,1q14.26,11.54,28.57,23a9.31,9.31,0,0,0,2.36,1c1.56-2,3-3.83,4.45-5.69s3.55-3.49,4.59-5.7c-2.5-3.7-5.39-6.5-9.77-7.49-1.12,1.3-2.19,2.52-3.39,3.9-2.65-1.8-5.09-3.5-7-6.15ZM486.89,255c13.24-1.58,26.31-3,39.34-4.69.86-2.77.08-5.2-.35-7.62s.36-5.26-1.12-7.58c-4.2-.53-8.16-.68-11.81,1.9.08,1,.22,2,.2,2.93a18.07,18.07,0,0,1-.34,2.39c-2.95.06-5.62,1.11-8.58.51-.63-2.93-1.29-5.7-.94-8.53,3.22-1.53,3.28-1.74,4.86-1.33,2.55.66,4.61-.13,6.67-1.57a16.19,16.19,0,0,0-1.29-8.74c-1.62-.52-2.94.05-4.31.2-2.29.25-4.53,1.17-6.88.73-1-2.62-2.11-5.05-.55-7.91a15.57,15.57,0,0,1,8.42-.63l.77,4.74a4.78,4.78,0,0,0,1.57.4c2.77-.24,5.53-.53,8.29-.9a10.88,10.88,0,0,0,2.15-.74c.07-4-1.1-12-2.27-15-12.91,1.6-26,3.12-39,4.61-1.35,3.29,0,6.13.39,9.15l4.4.43c.2,1.5.41,2.85.56,4.2.57,5.25,1.11,10.5,1.67,15.75.19,1.8.47,3.59.62,5.39.12,1.37-.36,2-1.74,2.41-.74.24-1.5.44-2.47.72C485.41,249.18,485.17,252,486.89,255ZM708.32,819.72l-3.74,1.77c-1.64-2-3.19-3.74-4.6-5.61-.4-.54-1.1-1.3-.15-2.36,3.18,1.1,6.44,2.25,9.71,3.35,2.88,1,5.8,1.84,8.67,2.83a4.15,4.15,0,0,0,4.24-.91c1.85-1.47,3.8-2.81,5.66-4.26a18.44,18.44,0,0,0,1.83-1.93c-2.06-2.78-4.05-5.42-6-8.08s-4.08-5.64-6.13-8.44-4.51-4.9-5.9-8l1.86-2.76a13.39,13.39,0,0,0-4.59-5.42c-4.34,2.43-11.06,7.74-13.18,10.47l4.32,5.35,3.06-1.39c1.54,2,3.08,3.95,4.57,5.94.28.37.75.88-.1,1.54-6.73-1.6-13.12-4.77-20-6.5l-3.08,2.31c-1,.75-2,1.47-3,2.22-1.56,1.16-3.15,2.29-4.66,3.52s-1.58,2.15-.63,3.63a40.18,40.18,0,0,0,2.83,3.59,2.41,2.41,0,0,0,.71.39l2.68-.8L696.1,827.9l-1.79,2.74c1.3,2.21,2.52,4.2,5,5.63,4.25-3.62,9.07-6.6,13.43-10.52ZM350.8,812.31l7.29,5.74,2.72-1.46c2.33,7,7.44,11,14.08,13.24a8.22,8.22,0,0,0,3.67.41,12.09,12.09,0,0,0,8.55-5.36,8.37,8.37,0,0,0,1.58-5,14.55,14.55,0,0,0-2.15-7.5c-1.65-2.72-2.87-5.71-5.17-8a6.08,6.08,0,0,1-1.68-4.18,2.08,2.08,0,0,1,2.88-2,5.89,5.89,0,0,1,3.73,7.36c-.21.79-.43,1.57-.62,2.26a24,24,0,0,0,8.34,5.8c3-3.48,6.66-6.54,7.83-11.4a25.24,25.24,0,0,0-6.9-5.33l-2.68.89c-.27-.76-.47-1.28-.63-1.8a6.09,6.09,0,0,0-3.09-3.69,17.45,17.45,0,0,1-4.8-3.94,8.1,8.1,0,0,0-4.53-2.64c-1.85-.53-3.6,0-5.35.38a10.93,10.93,0,0,0-8.18,13.7,12.32,12.32,0,0,0,.66,2c1.49,3.14,3,6.25,5.51,8.78,1.36,1.39,2.47,3,2.38,5a2.5,2.5,0,0,1-3.18.59c-2.36-1.15-4.12-2.88-4.15-5.74,0-1.24.13-2.48.22-3.88-2.19-1.69-4.37-3.39-6.57-5.06a5,5,0,0,0-1.22-.5c-2.5,1.21-3.6,3.78-5.27,5.73C352.8,808.11,351.15,809.63,350.8,812.31Zm55.57,19.25c2.36,1.26,2.67,2.92,1.93,4.81-.54,1.42-1.39,2.72-2,4.13-1.47,3.51-1.14,6.76,1.56,9.64a15,15,0,0,0,7.46,4.34,4.74,4.74,0,0,0,3.23-.16,13.78,13.78,0,0,0,6.19-7.05,1.68,1.68,0,0,0-.84-2.13c-1.11-.64-2.3-1-3.36.23-.21.26-.63.35-1,.55-.1-1.79-.21-1.85.51-3.17a6.55,6.55,0,0,0,.3-5.63c-.31-.88-.55-1.78-.89-2.89a8.89,8.89,0,0,1,2.2-.4c2.54.23,4.26-1.11,5.63-3a12.82,12.82,0,0,0,2.45-8.63,6.14,6.14,0,0,0-1.46-3.39,24.85,24.85,0,0,0-7.91-6.65c-4.65-2.49-9.3-5-14-7.43a20.57,20.57,0,0,0-2.83-1l-3.3,6L402,812a3.08,3.08,0,0,1-.08,1Q397,822.2,392,831.34c-.11.21-.45.28-.59.36l-2.86-.35-3.14,6.21c1.44,1.71,3.45,2.39,5.25,3.38s3.38,1.91,5.12,2.78,3.39,2.41,5.7,2.5c1-1.7,2.06-3.33,3-5a5.13,5.13,0,0,0,.36-1.28l-2.32-2.23A12.84,12.84,0,0,1,406.37,831.56Zm141.94,51.38c1.35-2.68,1.07-5.2.58-7.83l-3.53-.63c-2.9-10.47-5.2-21-8.57-31.46-3.41-.26-6.71-.57-10-.76-2.92-.17-5.84-.27-8.76-.28-1.95,0-2.72.7-3.09,2.64-.45,2.38-.48,4.69,1.63,6.41-2.15,6.08-4.2,12-6.33,17.85-1.28,3.54-1.34,3.52-5.14,4.75a15.21,15.21,0,0,0,.13,6.93,18.67,18.67,0,0,0,2.11.36c4.58.23,9.16.46,13.74.61a5.88,5.88,0,0,0,1.89-.64c.08-1.83.18-3.49.22-5.16a11.22,11.22,0,0,0-.18-1.58l-3.46-1.35c.94-2,1-2.17,1.85-2.13,2.63.12,5.27.29,7.89.57,1.3.14,1.71,1.1,1.59,2.44l-4.23.44c-.2,1.87-.5,3.51-.52,5.15a10.08,10.08,0,0,0,.69,2.65c3.74.13,7.21.21,10.68.37S544.67,882.72,548.31,882.94Zm100.79-54.2c1.08,7.75,3.09,15.14,3.65,22.6l-2.58,2.39c1,2.38,1.83,4.56,4,6.24,2.59-1.3,5.23-2.51,7.74-3.94s5.41-2.13,7.62-4.36c-1.21-2.11-1.77-4.43-3.48-6.38a13.6,13.6,0,0,1-2.35.7,1.86,1.86,0,0,1-1.45-.42,1.21,1.21,0,0,1,.3-1.83c2.53-1.41,5.11-2.77,7.74-4,.46-.22,1.3.2,1.89.48.26.12.33.64.48,1l-3.52,2.61c1.39,2.23,1.64,4.87,3.93,6.51l18.61-9.37a9,9,0,0,0,1-.73,15.35,15.35,0,0,0-3.55-6.76l-3.35,1.26c-7.88-7.6-15.1-15.84-23.15-23-4.21,1.51-15.85,7.59-18.37,9.57C644.08,824.68,645.15,827.4,649.1,828.74ZM273.44,661.18c.21,1,.5,2,.67,3.07.25,1.51.33,3,.62,4.54,1.27,6.54,2.61,13.07,3.88,19.61a27,27,0,0,1,.26,2.83l-3.74,1.15c-.64,3.15.28,5.92,1.17,8.68a1.85,1.85,0,0,0,1.93,1.3,13.72,13.72,0,0,0,2.47-.34c6.23-1.37,12.46-2.74,18.68-4.15a14.82,14.82,0,0,0,2.31-1,19.31,19.31,0,0,0-2-9.21c-.9,0-1.6,0-2.28,0s-1.33-.19-2.25-.33c-.18-1.86-.21-3.65-.54-5.38q-2-10.43-4.13-20.83a4.77,4.77,0,0,1,.24-3.79l3.39-1.17a17.89,17.89,0,0,0-2.19-9.51c-3.84-.18-19.9,2.79-24.19,4.42-.54,1.75-.88,3.47.17,5.19a4.84,4.84,0,0,1,.41,1.59c.57,2.85.56,2.84,3.68,3A8.27,8.27,0,0,1,273.44,661.18ZM467.81,873.56c2.73.54,5.17,1,7.6,1.51l20.39,4.15c2.19.45,2.58.18,3.06-2.12.71-3.4,1.42-6.79,2.09-10.19a14.47,14.47,0,0,0,.12-2.06c-2.54-.58-4.81-1.15-7.11-1.59a8.65,8.65,0,0,0-2.2.12c-1.34,2-.44,4.42-2.19,6.17A7.89,7.89,0,0,1,484,868c.68-3.49,1.54-7,2.32-10.46s1.52-7.3,2.3-11.08l2.69-.52c1.32-1.58,1.1-3.49,1.39-5.23s-.24-2.34-1.89-2.66c-4.9-.95-9.81-1.8-14.72-2.66-.24,0-.52.16-.93.29-1.46,2-.72,4.45-1.45,6.66l2.72,1.89c-.47,2.23-.92,4.26-1.32,6.29-.43,2.18-.8,4.37-1.22,6.55q-.78,4.08-1.62,8.16c-.05.23-.32.42-.55.72l-2.79.32A11.78,11.78,0,0,0,467.81,873.56Zm-25.19-17.32a4.15,4.15,0,0,1,.06-1c1.39-3.17,2.89-6.3,4.19-9.51,1.15-2.82,2.08-5.74,3.14-8.6.53-1.44,1-1.63,2.9-1.39.39.06.78,0,1.3.07,1.31-2.17,2.39-4.35,2.09-6.9a90.71,90.71,0,0,0-16.81-6.64c-2.23,1.57-2,4.3-3.12,6.41L439,831c-1.48,3.61-2.88,7.07-4.31,10.51s-2.4,7-4.18,10.41l-3-.62a12.84,12.84,0,0,0-2.55,6.56c1.45,1.81,3.6,2.09,5.5,2.82s3.88,1.52,5.85,2.2,3.63,2,5.81,2.19c1.92-1.95,2.4-4.36,3-6.71Zm56.3-577.48c-.57.1-.75.07-.81.15a19.39,19.39,0,0,0-3.8,16.46c.9,4.36,3.3,7.9,6.11,11.22q2.56,3,5.07,6.07a18.32,18.32,0,0,1,3.64,17.59c-.37,1.28-.59,2.61-1,4.57a16.16,16.16,0,0,0,4.07-5,17.81,17.81,0,0,0,1.21-16.76,38.63,38.63,0,0,0-5.4-8.87c-1.27-1.64-2.68-3.19-4-4.83a22.42,22.42,0,0,1-5.12-14.64C498.94,282.81,498.92,280.88,498.92,278.76ZM559.84,647.9c1.12-6.52,2.68-13,2.73-19.65,0-1.06.32-2.23-1-3.41-1.89,0-4.1,0-6.3,0s-4.66-.55-7.07.39c-.09,1.35-.16,2.58-.25,3.8-.43,5.44,1.4,10.67,1.46,16.06a15.2,15.2,0,0,0,.62,2.85A18.31,18.31,0,0,0,559.84,647.9ZM520.67,375.79c-.78-2.84-1.4-4.81-1.86-6.8a5.63,5.63,0,0,1,2-6c2.55-2.14,5.08-4.31,7.53-6.57a28.05,28.05,0,0,0,4.26-4.53,11.17,11.17,0,0,0-1.22-14.84,7,7,0,0,0-1.5-.87c0,1.28-.08,2.25,0,3.19a10.57,10.57,0,0,1-4,9.59c-1.37,1.18-2.78,2.31-4.14,3.5a27.39,27.39,0,0,0-6.08,6.8,11.5,11.5,0,0,0-1.8,5.05C513.53,369.36,516.08,372.69,520.67,375.79Zm8.45-136.06c6.45-.65,12.82.19,19.14-1,.1-3,.39-5.71-.09-8.15-.42-.33-.53-.5-.64-.49-5.55,0-11.11,0-16.66.08a9,9,0,0,0-2.53.78C527.56,234.78,527.64,235.75,529.12,239.73ZM751.57,784.26a6.85,6.85,0,0,0-13.69-.22,7,7,0,0,0,6.75,7A6.89,6.89,0,0,0,751.57,784.26Zm-411.3-8.73a6.86,6.86,0,0,0-6.78,7,6.73,6.73,0,0,0,6.5,6.78,6.83,6.83,0,0,0,7-6.71A6.94,6.94,0,0,0,340.27,775.53Zm127,79.89c-5-2.28-10.27-3.33-15.2-5-2.46,2.8-2.66,3.52-2.09,7.48,4.52,1.37,9.12,2.78,13.74,4.13a4.89,4.89,0,0,0,1.62-.13C466,859.73,466.94,857.77,467.23,855.42Z"/><path d="M578.08,390.13c.09-1.08.15-1.88.22-2.68.89-9.86,5.48-17.69,13.24-23.67a23.45,23.45,0,0,1,5.48-2.93,10.42,10.42,0,0,1,8.89.38,34.05,34.05,0,0,0,3.86,1.53,52.15,52.15,0,0,1,9.76,4.69,130.17,130.17,0,0,1,16.18,11.79c11.93,10,23.11,20.87,34,32.05,20.28,20.84,39.23,42.88,58.63,64.52,1.86,2.07,3.76,4.1,5.78,6,6.48,6.15,11,13.56,14.62,21.65,4.78,10.82,7.66,22.09,7.26,34a46.6,46.6,0,0,1-1.6,10.69c-2.81,10.28-10,16.73-21.84,17.26a47.6,47.6,0,0,1-17.62-2.84c-7-2.37-13.86-5-20.79-7.52-14.64-5.32-29.35-10.43-44.38-14.55-14.77-4-29.73-7.24-44.8-9.91q-31-5.49-62.1-10.6-22.65-3.71-45.39-6.78a283.64,283.64,0,0,0-35.81-2.13c-2.64,0-5.28-.27-7.91-.36-1.38-.06-2.76,0-4.27,0-.5.78-1,1.58-1.52,2.4C444.63,518.44,437.07,520,432,518c-3-1.15-4.86-3.15-5.26-6.4-.06-.55-.11-1.11-.19-1.66-.4-2.75-1.26-3.66-4-3.8a24.46,24.46,0,0,0-5.41.26,80.64,80.64,0,0,1-17.07.8c-6-.25-11.92-.87-17.88-1.36-4.72-.4-9.42-.93-14.13-1.25a21.32,21.32,0,0,0-7.44.74c-4,1.16-6.5,3.68-7.2,7.8a43,43,0,0,0-.63,6.21c-.14,4.45,0,8.91-.23,13.35a61.08,61.08,0,0,1-1.42,11.14c-1.87,7.48-7,10.42-14.46,8.76a32.69,32.69,0,0,1-8.9-3.5,15.2,15.2,0,0,1-7.66-11.34A29.21,29.21,0,0,1,321.62,523q4.77-13.57,10-27c4-10.36,10.95-18.63,19.49-25.63a178.27,178.27,0,0,1,22.38-15.29c11.25-6.68,22.84-12.73,34.5-18.65,14.15-7.18,28.49-13.94,43.16-20,23.32-9.58,47.11-17.74,71.76-23.21a175.23,175.23,0,0,1,33.06-4.19,142,142,0,0,1,16.25.33C574.07,389.56,576,389.86,578.08,390.13Zm137.65,84.25c-.73-1.13-1-1.72-1.45-2.22-2.76-3.32-5.52-6.63-8.32-9.91-18.6-21.8-37.57-43.27-58.56-62.85A209.17,209.17,0,0,0,623.94,380a77.56,77.56,0,0,0-11.51-6.75c-5.11-2.36-10-1.52-14.84.79a9.85,9.85,0,0,0-4.34,4.39,50.84,50.84,0,0,0-2.25,4.92c-.69,1.67-1.11,3.47-1.93,5.06a7.27,7.27,0,0,0-.24,6.44,56.18,56.18,0,0,0,3.43,7.12,66.33,66.33,0,0,0,9.39,11.68C608,420.3,615,426.3,621.91,432.32A188,188,0,0,1,656.77,472a212.82,212.82,0,0,1,12,21c.29.59.72,1.25-.49,1.86a16.65,16.65,0,0,1-2.94-3.23c-5.07-6.63-10.15-13.26-15.15-19.94a152.37,152.37,0,0,0-24.74-25.89c-8.33-6.94-16.63-13.94-24.75-21.14a72.12,72.12,0,0,1-16.44-20.87c-.76-1.46-1.78-2.79-2.56-4-2.49-.53-4.68-.92-6.83-1.46A44.32,44.32,0,0,0,560,397c-5.4.49-10.82,1-16.16,1.85-17.16,2.85-34.1,6.79-51,11-17.34,4.35-33.88,10.87-50.06,18.38-14,6.5-27.69,13.65-41.31,20.94Q386.75,457,372.2,465.22a104,104,0,0,0-18.08,12.7,53.67,53.67,0,0,0-8.29,9.33,71.52,71.52,0,0,0-8.13,15.94c-2.46,6.5-5,13-7.29,19.54a47.57,47.57,0,0,0-2.21,8.87c-1.09,7.39,4.07,13.1,11.61,13.14,1.94,0,3.24-.76,3.73-2.67a27.88,27.88,0,0,0,.82-5.75c.16-3.89,0-7.8.21-11.69.24-4.57.39-9.17,1.5-13.66,1.35-5.5,4.71-9.11,10.15-10.55a42.82,42.82,0,0,1,9-1.56c7.22-.3,14.46-.35,21.69-.32,7.79,0,15.58.36,23.37.46,4.31.05,8.61-.06,12.92-.14,4.74-.09,8,2,9.61,6.49a31.32,31.32,0,0,0,1.82,4.2c2.11,3.87,4.4,4.19,6.82.52,3.26-5,7.37-9.49,8.58-15.61a2.82,2.82,0,0,1,3.1-2.26c1.39,0,2.78.05,4.17.18q11,1,22,2.16c9,.92,18,1.74,27,2.86,13.67,1.71,27.32,3.52,40.94,5.51,12.94,1.89,25.87,3.84,38.73,6.19,16.27,3,32.49,6.29,48.69,9.66,17.43,3.62,34.69,8,51.87,12.63a20.58,20.58,0,0,1,3.15,1.09,2.34,2.34,0,0,1-1.36,4.34c-1.24-.16-2.46-.45-3.68-.73-33.56-7.94-67.17-15.67-101.14-21.74-14.64-2.61-29.33-5-44.06-7.08-12.95-1.81-26-3.16-39-4.45-13.84-1.37-27.71-2.44-41.57-3.61-3.44-.29-5.58,2.17-5.34,6h2.06c5-.13,10-.49,15-.36,11.27.31,22.47,1.46,33.66,2.87,15.88,2,31.65,4.64,47.43,7.25s31.53,5.34,47.3,8c17,2.88,34,6.07,50.72,10.17a318.08,318.08,0,0,1,56.8,19.28c2.78,1.28,5.63,2.4,8.49,3.49a38.4,38.4,0,0,0,12.17,2.72c10.39.38,16.64-4.76,19-13.46a31.6,31.6,0,0,0,1-7.81,93.55,93.55,0,0,0-5.3-30.69A52.24,52.24,0,0,0,735.66,494a30.84,30.84,0,0,0-15-11.47,22.88,22.88,0,0,0-13.55-.86c-12.86,2.9-19.78,15.53-18.91,26.11.65,7.92,3.93,14.74,8.94,20.74a52,52,0,0,0,12.62,10.83c1.42.88,2.83,1.76,4.2,2.72.36.25.55.75,1.06,1.51a9.42,9.42,0,0,1-2.06,0,59.48,59.48,0,0,1-15.77-6.46,19.14,19.14,0,0,1-4.55-3.63c-7.15-8.3-11.4-17.76-10.82-28.95.72-14.07,9.06-24.37,21.22-28.72C706.92,474.44,710.93,474.24,715.73,474.38Z"/><path d="M578,224.39a3.74,3.74,0,0,1-.7.27c-.08,0-.2-.17-.3-.26a4.93,4.93,0,0,1,.72-.29C577.8,224.09,577.91,224.29,578,224.39Z"/><path d="M436.7,239.53a5.11,5.11,0,0,1-.7.28c-.06,0-.17-.19-.25-.29a4.73,4.73,0,0,1,.68-.26C436.5,239.24,436.61,239.44,436.7,239.53Z"/><path d="M767.51,677.85c-.06.07-.1.19-.18.22a1.58,1.58,0,0,1-.38,0c.07-.13.11-.3.22-.38S767.39,677.8,767.51,677.85Z"/><path d="M748.84,663.6c.11,0,.27,0,.33.06s.05.22.06.34l-.55-.09Z"/><path d="M747.73,658.93l-.31-.09a1.9,1.9,0,0,1,.39-.31s.15.15.24.23Z"/><polygon points="756.97 669.72 756.96 669.44 757.32 669.57 756.97 669.72"/><path d="M641.06,657.54c-.34-4.53,1-8.71,3-12.72a10,10,0,0,1,1.37-2.05c2.34-2.68,5.64-2.55,7.76.29a6.59,6.59,0,0,1,1,1.81c1.19,3.71,2.44,7.39,1.42,11.4a31.26,31.26,0,0,0-.49,4.13,14.77,14.77,0,0,1-3.1,7.62,10.94,10.94,0,0,1-2.85,2.34,2.35,2.35,0,0,1-2,.11c-1.71-.86-3.34-1.71-4.28-3.7C641.56,663.81,640.4,660.92,641.06,657.54Z"/><path d="M634.27,659.15a4.11,4.11,0,0,1,.66,1c.06.2-.17.48-.27.72a5.46,5.46,0,0,1-.74-.94C633.86,659.79,634.09,659.52,634.27,659.15Z"/><path d="M662.79,645.12l.29.12-.38.3-.17-.24Z"/><path d="M588.73,659.89l-.63-.78c.29-.17.68-.54.86-.46s.44.58.65.88Z"/><path d="M597.79,636.78l-.55.2a1.45,1.45,0,0,1-.11-.26c.17-.09.36-.16.54-.24Z"/><path d="M581.54,661.12c.12-.06.23-.17.34-.17s.19.13.29.2l-.54.26Z"/><polygon points="600.17 641.28 599.87 641.35 599.91 641.12 600.17 641.28"/><path d="M324.12,675.1a11.88,11.88,0,0,1-1.51,0c-.06,0-.13-.59-.1-.6a3.25,3.25,0,0,1,1.1-.21C323.73,674.26,323.83,674.61,324.12,675.1Z"/><path d="M327.37,650.89l-.5.46a4.21,4.21,0,0,1-.38-.48s.2-.27.26-.25A3.76,3.76,0,0,1,327.37,650.89Z"/><path d="M316.75,678.07l-.18.31-.34-.45c.11,0,.23-.13.33-.11S316.69,678,316.75,678.07Z"/><path d="M330.62,655.24l.34-.11.09.45a.85.85,0,0,1-.36-.06C330.63,655.48,330.64,655.33,330.62,655.24Z"/><path d="M435.66,644.89a34.34,34.34,0,0,1,3.9,11.37c-2.17.72-4.2.28-6.55.26A32.24,32.24,0,0,1,435.66,644.89Z"/><path d="M443.58,635.43l-.17.31-.35-.45c.11,0,.23-.14.32-.12S443.51,635.34,443.58,635.43Z"/><path d="M447.55,661.45a2.83,2.83,0,0,1-.23-.54s.17-.21.26-.21.26.17.24.22A2.94,2.94,0,0,1,447.55,661.45Z"/><path d="M377.85,667c0,.13,0,.34-.09.37-.45.16-.91.28-1.36.42,0-.26-.12-.69,0-.73a4,4,0,0,1,1.14-.29C377.62,666.79,377.74,667,377.85,667Z"/><path d="M382.45,643.43l-.46.42a3.24,3.24,0,0,1-.37-.46s.18-.25.24-.23A2.84,2.84,0,0,1,382.45,643.43Z"/><path d="M385.35,648c0-.08.06-.22.1-.23a.87.87,0,0,1,.3.07l-.08.26Z"/><path d="M370.88,670.49l-.27.2-.22-.47c.13,0,.27-.09.36-.05S370.84,670.37,370.88,670.49Z"/><path d="M812.9,682.23c-2.54,0-4.51-.94-6.74-1.81,1.72-3.39,2.81-6.95,5.79-9.84C813.4,674.55,812.9,678.33,812.9,682.23Z"/><path d="M821.93,663.68l-.31.07c0-.12-.07-.34,0-.35a2.42,2.42,0,0,1,.47-.07Z"/><path d="M512.47,651.27c0-3.6,0-7.2,0-10.8a18.66,18.66,0,0,1,.22-2.89,1.86,1.86,0,0,1,2-1.67,8.41,8.41,0,0,1,2.83.42,10.33,10.33,0,0,1,6.8,6.76,29.52,29.52,0,0,1,.91,14c-.69,4-3.44,6.84-6.69,9.14a5.31,5.31,0,0,1-1.54.6c-2.51.75-3.64,0-3.87-2.66-.14-1.65-.13-3.32-.14-5,0-2.63,0-5.25,0-7.88Z"/><path d="M535,651.67c.19.34.45.67.39.74a4.12,4.12,0,0,1-.8.63c-.12-.2-.38-.49-.33-.59A4.86,4.86,0,0,1,535,651.67Z"/><path d="M507.71,632.06c-.1,0-.22.13-.31.12s-.18-.14-.27-.21c.11,0,.23-.13.33-.11S507.63,632,507.71,632.06Z"/><path d="M528.09,665.57l-.27-.2c.11,0,.22-.13.32-.12s.19.12.28.19Z"/><path d="M343,314.51c0,.09,0,.23,0,.26a1.8,1.8,0,0,1-.35.08l0-.46Z"/><path d="M354.34,286.89c.12-.06.23-.16.34-.16s.2.14.29.21l-.54.26Z"/><path d="M398.47,271.82c-.1.7-.15,1.39-.3,2.06-.7,3.19-3.28,4.48-6.3,3a15.59,15.59,0,0,1-7-6.23,26.61,26.61,0,0,1-4-11.15c-.2-2.12-.16-4.16,2-5.48,2.3-1.42,4.33-.52,6.1.91,2.57,2.08,5.08,4.22,6.26,7.56.86,2.45,2.65,4.55,2.88,7.28C398.18,270.46,398.35,271.14,398.47,271.82Z"/><path d="M381.64,275.85c-.21,0-.47.15-.62.07s-.33-.37-.49-.57c.24,0,.52-.19.69-.1S381.5,275.64,381.64,275.85Z"/><path d="M649.61,237.58c.54,3.76-.31,6.82-.66,9.9-2.64,0-2.67,0-5.65-2.22C645.15,242.76,646.39,239.79,649.61,237.58Z"/><path d="M653.93,254.57l-.32.13c0-.11,0-.23.07-.35Z"/><path d="M701.93,256.13a5.48,5.48,0,0,1,4.14,3.11c1.06,1.84,1.88,3.75,1.49,5.94A24.86,24.86,0,0,1,701.1,278c-2.28,2.44-5.48,3.22-8.72,3.44a6.68,6.68,0,0,1-2.77-.77,1.56,1.56,0,0,1-.91-2.06,12.57,12.57,0,0,1,1-2.29c3.11-5.58,6.21-11.17,9.38-16.71C699.81,258.33,700.41,256.85,701.93,256.13Z"/><path d="M711.52,278.37l-.63-.06c0-.12.05-.34.09-.35a4.82,4.82,0,0,1,.65,0C711.59,278.12,711.56,278.25,711.52,278.37Z"/><path d="M241.06,668.09c3.52-2.15,4.34-2.18,8.52-.26.51,1.13,1.08,2.37,1.64,3.6-.73,5.19-3.25,7.56-7.42,6.81A25.62,25.62,0,0,1,241.06,668.09Z"/><polygon points="258 666.52 258.05 666.79 257.87 666.74 258 666.52"/><path d="M233.66,674.54c.08-.09.19-.26.24-.24a4,4,0,0,1,.59.29,3.55,3.55,0,0,1-.63.2C233.81,674.8,233.72,674.62,233.66,674.54Z"/><path d="M701.5,669.38c-.18-.15-.37-.29-.56-.43a3.89,3.89,0,0,1,.49-.42c.05,0,.3.14.29.18A4,4,0,0,1,701.5,669.38Z"/><path d="M409.51,825.06c1.09-2.82,2-5.25,4.38-7a16.88,16.88,0,0,1,2.15,1.19c2.1,1.6,2.47,3.29,1.27,5.38a4.58,4.58,0,0,1-5.4,1.8A17.78,17.78,0,0,1,409.51,825.06Z"/><path d="M414.22,837.47c-.2-.14-.47-.23-.59-.42s.09-.37.15-.57c.21.09.55.14.6.29S414.28,837.23,414.22,837.47Z"/><path d="M527.8,863.67c-.89-.06-1.58,0-2.25-.16s-1.31-.35-2.23-.6a17.7,17.7,0,0,1,2.78-7.55C527.57,858.14,528.32,860.7,527.8,863.67Z"/><path d="M659.59,827.94c2.71,1.52,3.67,2.56,5.39,6a8.64,8.64,0,0,1-4,1.55C659.36,831.49,659.31,831.22,659.59,827.94Z"/><path d="M560.39,437.35c3.49-1.74,5.42-5,8.47-8.32a16.08,16.08,0,0,1-.28,2.7,30.27,30.27,0,0,1-10,14,43.17,43.17,0,0,1-17.47,8.37,59.46,59.46,0,0,1-38.71-3.39,30.57,30.57,0,0,1-10.81-7.64,19.63,19.63,0,0,1-5.37-13.62,9.49,9.49,0,0,1,.22-2.06,2,2,0,0,1,3-.92,16.86,16.86,0,0,1,1.7,2.36c.92,1.37,1.81,2.76,2.85,4.35.44-.46.8-.67.89-1,1.93-6.35,6-11.25,10.85-15.5,8.81-7.7,18.93-12.71,30.69-13.64,9.55-.76,17.79,2.28,24,9.87,4.36,5.29,5.43,11.13,2.9,17.53C562.48,432.84,561.39,435.08,560.39,437.35ZM520,418.83c3.24-1.38,5.76-2.51,8.31-3.53a23.22,23.22,0,0,1,17.08-.18A40.25,40.25,0,0,1,555.86,421c.84.62,1.67,1.25,3.11,2.34a13.74,13.74,0,0,0-4.79-7.86,30.53,30.53,0,0,0-19.37-6.5,19.66,19.66,0,0,0-9.27,2.06,10.53,10.53,0,0,0-5.38,5.55A10.38,10.38,0,0,0,520,418.83Z"/><path d="M615.76,467.67a34.48,34.48,0,0,1-5.4,17c-1.19,1.84-2.67,2.4-4.66,1.44-6.25-3-12.74-5.63-18.25-10a24.71,24.71,0,0,1-5.88-6.44,10.77,10.77,0,0,1-1-1.85,2.6,2.6,0,0,1,1.69-3.67c6.6-2.14,13-4.87,20.08-5.43a9,9,0,0,0,2.38-.57,7.77,7.77,0,0,1,9.94,4.32,12.44,12.44,0,0,1,.69,2.4C615.58,465.84,615.66,466.81,615.76,467.67Z"/><path d="M615.12,390.8a35.89,35.89,0,0,0,4.39,5.45,5.92,5.92,0,0,1,1.13,1.71c.08.18-.36.84-.61.87a3.28,3.28,0,0,1-1.6-.26c-1.92-.81-3.8-1.68-5.7-2.53l-4.75.8c.32,3.93.06,3.36-3.48,4.23a5.59,5.59,0,0,0,2.1,4.2c.68.69,1.53,1.23,2.13,2a1.59,1.59,0,0,1,.07,1.5,1.65,1.65,0,0,1-1.39.63,5.1,5.1,0,0,1-2.21-1,10.43,10.43,0,0,1-3.79-9.25c.07-.82.27-1.64.43-2.55-.74-1.27-1.59-2.54-2.26-3.9a2.12,2.12,0,0,1,2.07-3.12,16.26,16.26,0,0,1,1.59.42,6.18,6.18,0,0,0,1.2-.05c-.46-1.6-1.84-2.13-2.9-3-1.89-1.54-2-2.92-.17-4.45a5.08,5.08,0,0,0,1.83-2.61,2.18,2.18,0,0,1,2.65-1.5,9.34,9.34,0,0,1,3.2.83,51.65,51.65,0,0,1,6.72,4.12,60,60,0,0,1,6.87,6.07A124.3,124.3,0,0,0,635,399.94c7.81,6.25,15.7,12.43,23.33,18.9,4,3.4,7.58,7.34,11.31,11.07a25.53,25.53,0,0,1,1.8,2.24c-1.15.67-1.71-.22-2.28-.65-5.47-4.08-10.93-8.15-16.31-12.33-10.76-8.37-21.46-16.82-32.18-25.23-1.63-1.27-3.28-2.5-4.92-3.74Z"/><path d="M640.65,474.68a7,7,0,0,1,1.66.16,72.56,72.56,0,0,1,20,17.47,31.55,31.55,0,0,1,5.62,10.62,16.16,16.16,0,0,1,.59,6.59c-.61,4.87-3.43,6.85-8.13,5.62a21.94,21.94,0,0,1-3.88-1.47c-1.5-.71-3-1.54-4.4-2.37a20,20,0,0,0-11.59-2.66c-3.73.24-7.5.44-11.19-.56a9.37,9.37,0,0,1-1.62-.41c-4.35-2.11-8.92-1.67-13.5-1.17-.83.09-1.65.27-2.48.36a21.71,21.71,0,0,1-9.46-.92c-2.88-1-5.79-2-8.73-2.78a48.42,48.42,0,0,0-12.71-2.1,7.38,7.38,0,0,1-2-.27,1.24,1.24,0,0,1-.75-.87,3.29,3.29,0,0,1,.58-1.45c.12-.2.46-.3.72-.38a16.72,16.72,0,0,1,8.64-.63c3.1.75,6.15,1.69,9.21,2.59,2,.59,4,1.32,6,1.88a25.78,25.78,0,0,0,10.74.66,46.28,46.28,0,0,1,7.06-.48,16.32,16.32,0,0,1,5.3.82c4.52,1.69,9.2,2,13.93,2.21,1.38.05,2.78,0,4.16.1a18.66,18.66,0,0,1,9.85,2.95,8.19,8.19,0,0,0,5.1,1.51,4.79,4.79,0,0,0,4.89-4.67,10.37,10.37,0,0,0-1.5-6,65.81,65.81,0,0,0-14-17.5c-2-1.73-4-3.38-6.07-5.08C642.05,476,641.58,475.56,640.65,474.68Z"/><path d="M447.66,470a12.85,12.85,0,0,1-12.21-9.61,23.84,23.84,0,0,1,.73-14.35c.9-2.73,2.32-3.15,4.71-1.61,1.28.83,2.54,1.7,3.83,2.52A39.4,39.4,0,0,0,456.53,452a28.57,28.57,0,0,1,3.86,1.46,3.07,3.07,0,0,1,1.86,3,7.7,7.7,0,0,1-.13,1.66C460.93,464.35,453.94,470.05,447.66,470Z"/><path d="M480.83,480.55a10.08,10.08,0,0,1-4.64,1.43c-7.76.64-15.52,1.36-23.29,1.85-12.35.77-24.75.95-37,2.55a133.25,133.25,0,0,0-16.4,3,45.55,45.55,0,0,1-17,.87l-12-1.38a2.9,2.9,0,0,1-1.2-.27,1.36,1.36,0,0,1-.61-.95,1.34,1.34,0,0,1,.58-1,3.85,3.85,0,0,1,1.57-.45c3.18-.3,6.37-.57,9.55-.83,6.65-.54,13.32-1,19.95-1.64,4-.42,8-1.3,12-1.87a231.66,231.66,0,0,1,30.34-2.33c8.35-.09,16.7,0,25.05.16C471.81,479.76,475.93,480.21,480.83,480.55Z"/><path d="M532.27,474.18a5.72,5.72,0,0,0-4.08,2.45,17.23,17.23,0,0,1-20.36,4.87c-.25-.11-.52-.2-.76-.33-4.65-2.62-4-4.82-1.72-7.62,4-5,9.07-7.1,15.45-6.05,3.31.54,6.55,1.24,9.36,3.23C531.16,471.43,532.29,472.09,532.27,474.18Z"/><path d="M600,437.3a10.29,10.29,0,0,1-1.05,2.8,11.32,11.32,0,0,1-8.87,5.47,7.45,7.45,0,0,1-8.23-8.23c.38-3.43,1.21-6.82,1.93-10.2a2.27,2.27,0,0,1,2.77-1.9,5,5,0,0,1,1.22.24,27.46,27.46,0,0,1,9.33,5.33A8.22,8.22,0,0,1,600,437.3Z"/><path d="M735.54,514.76c6.28,5,9.33,11.72,9.59,19.77a20,20,0,0,1-1.86,8.9c-2.58,5.76-7.12,9.06-13.16,10.5a31.46,31.46,0,0,1-14.85-.46,53.92,53.92,0,0,1-5.94-1.89c-.34-.13-.55-.81-.63-1.27,0-.13.6-.56.92-.55,1.8.06,3.6.26,5.4.34,3.47.15,7,.48,10.4.31,5.23-.26,9.74-2.26,12.76-6.78A18.1,18.1,0,0,0,741,531.69a31.29,31.29,0,0,0-4.27-13.38c-.62-1-1.27-2.06-1.91-3.09Z"/><path d="M719.9,490c-1.33-.28-2.65-.62-4-.83a8.34,8.34,0,0,0-9,3.89,18.73,18.73,0,0,0-3.68,14.6c.07,1.66.18,3.33.09,5a1.69,1.69,0,0,1-1.55,1.7,2.37,2.37,0,0,1-1.72-.88,7.45,7.45,0,0,1-1.35-3,27.45,27.45,0,0,1,2-15.91,16.17,16.17,0,0,1,4.69-5.78,11.54,11.54,0,0,1,8.18-2.5A7.32,7.32,0,0,1,719.9,490Z"/><path d="M569.61,498.1c-1.25-.12-2.06-.14-2.85-.28-4.08-.69-8.16-1.46-12.25-2.11-1.49-.24-3-.17-4.54-.3-2.06-.19-4.13-.38-6.17-.68a6.91,6.91,0,0,1-2.31-.84c-.43-.24-1-.87-.93-1.2a2.46,2.46,0,0,1,1.12-1.51,7,7,0,0,1,2.76-.74,32.89,32.89,0,0,1,5.79.12,54.59,54.59,0,0,1,16.25,4.73C567.56,495.8,568.82,496.15,569.61,498.1Z"/><path d="M386.25,465c.9-2.74,2.77-4.14,4.7-5.44A127.67,127.67,0,0,1,413.54,448a5.18,5.18,0,0,1,2.9-.42,11.89,11.89,0,0,1-1.39,1.18c-2.12,1.32-4.27,2.6-6.4,3.91-4.5,2.76-9,5.56-13.5,8.28-2,1.22-4.11,2.33-6.22,3.38A13.85,13.85,0,0,1,386.25,465Z"/><path d="M340.69,539.35c-2.48,1.47-3.51,1.4-4.63-.4a10.22,10.22,0,0,1-1.34-3,37.74,37.74,0,0,1,1.7-22.38,2.6,2.6,0,0,1,.46-.69,2.71,2.71,0,0,1,.58-.31c-.07,1-.1,1.93-.21,2.82-.41,3.57-.91,7.13-1.23,10.7a26.54,26.54,0,0,0,.14,5c.29,3,1.22,5.68,4,7.34C340.36,538.5,340.43,538.85,340.69,539.35Z"/><path d="M377.75,470.44c-1.71,1.61-3.11,3.61-5.69,5.23.1-1,0-1.54.22-1.85a11.19,11.19,0,0,1,5.13-3.87A2.91,2.91,0,0,1,377.75,470.44Z"/></svg>