<svg id="Layer_1" data-name="Layer 1" xmlns="http://www.w3.org/2000/svg" viewBox="0 0 1080 1080"><title>Clients logo</title><path d="M11.34,664.26c6.18-5.94,12-11.48,17.72-17.06,6.23-6.05,12.63-12,18.54-18.31,2.93-3.16,4.72-2.45,7.84-.33C67.31,636.62,79,645.05,91.57,652c16.13,8.87,34,10.82,52,7.66,6.06-1.06,12.31-4.42,17.17-8.35,12.71-10.26,12.06-28.09-1.61-37.09-8.88-5.84-18.84-10.19-28.66-14.39C114.35,592.89,97.67,587.32,81.8,580,65,572.18,51.11,560.38,42.87,543.31,31.1,518.94,32.48,494.82,46.81,472c12.82-20.42,32.39-31.8,55.53-36.36,31.51-6.22,62.35-3.2,91.43,11.1C202,450.8,209.36,456.81,217.1,462c2.74,1.82,2.8,3.54.27,5.94Q201,483.4,185,499.24c-2.4,2.39-3.79,2-6.21,0-17.55-14.59-37.86-20.11-60.16-16-6.46,1.19-13.17,4.93-18.16,9.32-12,10.57-11.22,27,1.86,36.21,8.3,5.83,17.67,10.37,27,14.4,16.51,7.11,33.65,12.79,50,20.21,15.42,7,29.11,16.92,37.75,32,18.39,32,13.26,72.82-21.5,97.25a97.43,97.43,0,0,1-51.18,17.94c-22.88,1.34-45.42-.62-67.4-7.59-15.72-5-29.43-13.7-43-22.64-5.94-3.9-11.79-7.94-17.64-12C14.91,667.33,13.55,666.06,11.34,664.26Z"/><path d="M907.21,626.41c4.64,12.71,11.52,22.38,22,29.32,16.72,11,34.91,11.85,53.72,7.34a74.58,74.58,0,0,0,26.67-11.86c1.2-.86,4.22-1,5.17-.11,9.53,8.77,18.8,17.81,28.12,26.8a17.47,17.47,0,0,1,1.7,2.56c-4.88,3.17-9.4,6.56-14.32,9.22-41.87,22.58-84.66,26.77-126.85,2.27-61.5-35.71-67.89-119.68-11.61-163.84,45.61-35.79,109.5-31.53,150,10.1,23,23.59,30.28,52.54,25.38,84.76-.19,1.29-2.16,2.63-3.6,3.3-1.17.55-2.79.14-4.21.14H907.21Zm.63-40.49h105.81c-2.44-15.54-23-38.39-52.07-38.87C934.71,546.61,912.72,566.12,907.84,585.92Z"/><path d="M637.82,509.23h14.69c12.17,0,24.34.09,36.51-.06,3.29,0,5.05.86,6.22,4.21,10.79,31,21.77,62,32.69,92.92l10.7,30.32c2.08-5.73,3.77-10.3,5.39-14.9,12.58-35.73,25.21-71.45,37.63-107.25,1.44-4.16,3.55-5.43,7.87-5.34,14.53.28,29.07.1,43.61.11,1.7,0,3.4.15,5.83.26-.8,2.45-1.32,4.36-2,6.19q-25.51,65.53-51.07,131-10.15,26-20.25,52.09c-1.15,3-2.71,4.46-6.23,4.41-13.74-.21-27.49-.19-41.24,0-3.37,0-5.09-1.08-6.32-4.23Q689,640.28,666,581.65q-13-33.3-26.18-66.55C639.2,513.53,638.72,511.91,637.82,509.23Z"/><path d="M366.34,656.69c.08,1,.33,2.66.34,4.3,0,10.43-.3,20.87.15,31.28.23,5.27-2.05,7.63-6.49,9.48-14.4,6-29.37,6.92-44.66,5.54-9.55-.86-18.75-3-27-8-13.1-8-19.44-20.53-21.67-35.1a233.23,233.23,0,0,1-2.62-31.56c-.38-24.33-.12-48.66-.13-73,0-6.15,0-6.15-6.33-6.16-5.06,0-10.12-.12-15.17,0-3.15.09-4.85-.93-4.48-4.32a7.53,7.53,0,0,0,0-.95c.07-5.52-1.62-12,.74-16.29,2.19-4,8.71-5.48,13.3-8.14a87.23,87.23,0,0,0,39.4-47.42c2.33-6.51,3.77-13.34,5.68-20,.34-1.16,1-3.15,1.57-3.19a137.3,137.3,0,0,1,15.45-.09c.49,0,1.14,3,1.15,4.6.09,15.32.2,30.65,0,46-.07,4.25,1.29,5.4,5.39,5.33,13.27-.22,26.55.06,39.82-.16,4.19-.07,5.94,1,5.83,5.52q-.4,16.82,0,33.65c.11,4.53-1.64,5.6-5.84,5.53-13.42-.21-26.86,0-40.28-.13-3.63,0-4.93,1-4.91,4.83.16,27.49,0,55,.12,82.47.05,16.88,10.55,25.7,27.28,22.5C350.7,661.73,358.23,659,366.34,656.69Z"/><path d="M446.14,527.28c4.85-4.56,8.86-9,13.56-12.65,17.62-13.46,36.6-13.8,55.6-3.73,8,4.22,14.9,10.53,22.05,16.2,1.07.85,1.68,4,1,5.08-8,12.52-16.22,24.86-24.42,37.23-.24.36-.74.53-1.35.94-5-4-9.89-8.15-15.09-11.91-15.37-11.11-33.13-8-43.76,7.64a40.13,40.13,0,0,0-7.38,22.65q-.18,53.34-.18,106.68c0,7.57,0,7.58-7.5,7.58-12.8,0-25.61-.14-38.41.07-4.13.07-5.47-1.26-5.46-5.42q.17-91.51,0-183c0-4.09,1.14-5.54,5.37-5.47,13.59.23,27.19.19,40.78,0,3.85-.05,5.49,1.13,5.27,5.11C446,518.46,446.14,522.66,446.14,527.28Z"/><path d="M489.43,388.6c7.91,9,14.89,18.24,23.24,26C536,436.5,563.59,448.26,596,446.75c16.79-.79,32.58-6,48-12.29,36.47-15,69.48-35.95,101-59.41,1.3-1,2.7-1.78,4-2.67l1,1c-2.72,3.93-5.32,7.95-8.18,11.78-23,30.79-48.85,58.82-80.54,80.94-20.95,14.62-43.54,25.46-69.22,29-15.34,2.14-30.25.31-45-3.72-31.49-8.63-59.65-23.27-82.82-46.64a138.18,138.18,0,0,1-12.15-14.5c-.85-1.12-.82-4.22.09-5.14,12.08-12.24,24.4-24.27,36.67-36.33A.85.85,0,0,1,489.43,388.6Z"/><path d="M608.74,509.88c.15,2.56.35,4.43.35,6.29q0,92.39,0,184.78c0,6.89,0,6.9-7.1,6.9-13.26,0-26.53-.13-39.8.07-3.91.06-5.23-1.21-5.22-5.12q.12-92.16,0-184.31c0-3.74.75-5.19,5.1-4.84,14,1.13,28.08.79,41.82-3C605.24,510.27,606.65,510.2,608.74,509.88Z"/><path d="M620.8,400.41a31.31,31.31,0,0,1-62.62-.16c-.14-17.37,14.18-31.38,31.91-31.22A31.09,31.09,0,0,1,620.8,400.41Z"/></svg>