<svg id="Layer_1" data-name="Layer 1" xmlns="http://www.w3.org/2000/svg" viewBox="0 0 1080 1080"><title>Clients logo</title><path d="M471.73,795.66c.83-3.41,1.6-6.51,2.46-10,1.46.61,2.67,1,3.82,1.61,3.29,1.64,6.75,3,9.79,5.07,13.59,9.07,28.81,10.91,44.65,11,25,.12,49.69-2.28,74-8.43a41.26,41.26,0,0,0,7.28-3c2-.93,3.85-2.17,5.82-3.15A14,14,0,0,1,625.4,787c1.54.41,3.34,1.57,4.59,1.13,27.72-9.74,55-20.57,77.7-39.91C739,721.52,753.24,687.6,750,646.37c-1.27-16.21-6.69-31.31-11.08-46.71-6.35-22.34-9.3-45.25-11.32-68.31-.47-5.28-.64-10.59-1.16-15.86-.68-6.91,2.09-12,7.8-15.65,8.16-5.28,16.46-10.35,24.37-16,16.82-11.95,23.8-28.84,25.72-49.06,2.47-26,4-51.95,3.91-78A180.43,180.43,0,0,1,790,334.91c-.34,6.67-.72,13.34-1,20-.31,6.9-1,13.82-.69,20.69,1.08,21.44-1.6,42.61-3.78,63.84-1.17,11.34-3.83,22-10.87,31.25-6.71,8.82-15.28,15.49-24.48,21.44q-6.5,4.2-13.15,8.13c-6.21,3.66-8.93,8.83-8.4,16.16,2.54,35.06,8.11,69.42,18.73,103.13,11.05,35.08,7.76,69.4-11.9,101.15-14,22.56-34,38.64-57.66,50-15.62,7.5-31.65,14.13-47.94,21.34,1.93,5.37,4.25,11.49,6.34,17.69,5.28,15.72,8.34,31.73,3.77,48.14-2,7-5,13.72-7.94,21.46-10.1-5.17-20-8.94-28.4-14.89-10.36-7.34-20.4-14.48-33.61-15.21l5.2-9.6-1-.51c-.39.83-.77,1.66-1.17,2.48-3,6-5,7.16-11.62,6.78-1.91-.11-3.83-.19-5.74-.3-3.78-.22-7.7,1-10.5-3.45-3.23-5.1-5.3-10.13-3.75-16.19.14-.54.24-1.1.47-2.21-4,6.83-2.54,12.5,5.19,22.1l-72,36.82c-12.5-28.56-9.11-57.31-2.85-86.71-3.57-.92-7.05-1.85-10.55-2.72-51.95-12.87-97.54-37.7-137.12-73.55-13.93-12.62-24.23-27.72-27.2-46.83-2.34-15.09.55-29.62,5.36-43.85a134.05,134.05,0,0,1,6.92-17.65c8-15.78,10.76-32.67,10.93-50,.22-22-.21-43.91-.19-65.86,0-9.37-3.77-16.31-10.91-22.48a106.13,106.13,0,0,1-35.42-60.68c-4.14-20.58-2.89-41.15,2.25-61.32,4.14-16.23,9.67-32.09,14.32-48.2,7.45-25.81,11.66-52.27,15.11-78.86,1-7.74,1.67-15.52,2.62-23.27,1.41-11.51,5.51-14.32,16.71-11.16,26.41,7.44,49.73,20.38,69.59,39.44C415.6,252.49,431,278,444.16,305a9.62,9.62,0,0,0,2.88,3.81c0-4.38.11-8.76,0-13.14-.85-28.86-1.32-57.74-2.74-86.57-1.93-39-4.66-77.94-13.13-116.18a189.8,189.8,0,0,0-7.79-25.25c-4.84-13-2.31-23.19,8.83-31.56,12-9,26-12.9,40.28-16.1,25.69-5.77,51.83-7.72,78.07-8.44a605.28,605.28,0,0,1,96.1,4.88A320.3,320.3,0,0,1,706,29.65c24.7,8.22,36.52,25.66,39.34,50.67,3.11,27.57,0,54.7-5,81.72-10.86,59.44-29.27,116.67-51,172.9-.47,1.2-.93,2.41-1.7,4.43,28.8-27.81,62-43.54,101.13-46.17-31,2.77-58.59,14.42-83,33.85,1.07-.55,2.18-1,3.21-1.67a152.43,152.43,0,0,1,54.54-20.75c7.72-1.33,15.86-.41,23.81-.19,3.18.09,4.06,3.63,1.73,7.25a70.84,70.84,0,0,0-10.69,28.74,168.11,168.11,0,0,0-1.92,24.63,594.25,594.25,0,0,1-4.8,82c-2,15.37-9.51,27.46-21.63,36.62-7.5,5.66-15.55,10.64-23.52,15.65-6,3.8-9.34,8.73-8.72,16.07,2.09,24.65,4.25,49.3,10.57,73.33,3.07,11.65,7.22,23,9.77,34.81,10.92,50.33-8.45,96.78-52.23,124.12-33.24,20.75-69.53,34.12-108.41,39.11-91.07,11.67-170.81-14.57-240.1-73.9-13.65-11.69-24.18-25.8-27.58-44.1-3.07-16.52.6-32.2,6.34-47.53,3.75-10.05,8.51-19.77,11.61-30,4.54-14.93,4.34-30.57,4.46-46,.13-16.64-.42-33.29-.78-49.93a22.55,22.55,0,0,0-8.13-17.42c-29.24-25.21-41-57.22-37.22-95.44,2-20.56,8.48-39.93,14.86-59.36,7.74-23.58,11.85-47.93,15.45-72.39,1.71-11.64,2.68-23.39,4.36-35,1.13-7.8,3.85-9.38,11.68-7.33a151,151,0,0,1,73,43.56,15.67,15.67,0,0,1,1.61,2.57l1.42-1.35c-5.82-6.25-11.39-12.77-17.52-18.71-18.65-18.07-40.7-30.4-65.51-37.91-11.17-3.38-13.27-2.11-14.42,9.4-3.32,33.15-8,66.07-16.9,98.24-4.76,17.3-11,34.22-15.2,51.63-6.57,27-6.78,54,4.74,80.11,6,13.66,14.28,25.95,25.72,35.49,9.22,7.69,13.88,16.56,13.6,28.6-.65,26.79-.59,53.6-1.37,80.38-.32,11.11-3.88,21.65-8.61,31.77-6.12,13.1-11.08,26.62-13.42,41-3.71,22.76,3.47,42.12,18.38,59,12.68,14.39,28.13,25.48,43.76,36.32C395,771.52,431.74,786.78,471.73,795.66ZM452.32,217.12c-.84,37.31-1.45,63.67-2,90-.08,3.78-1,8,.29,11.3,6.33,16.79,13.2,33.38,20,50,2.44,5.95,5.53,7.56,11.8,6.58,44.94-7,89.53-5.65,133.63,5.94,10,2.61,19.69,6,29.61,8.78,6.34,1.76,7.76.65,10.78-5C660,378,663.21,370.75,668,365c8.3-10,12.79-21.25,15-33.75.23-1.3.6-2.58.91-3.86C698,269,712.33,210.64,720,151c2.89-22.38,4.51-44.81,2.36-67.42-1.58-16.48-8.71-27.83-25-33.73a313.74,313.74,0,0,0-59-14.79,571.71,571.71,0,0,0-112.74-6.34c-20.92.91-41.72,2.81-62.06,8.13-8.86,2.32-17.54,5.17-24.85,11-5.17,4.11-6.4,7.93-4.09,14,7.42,19.46,10.87,39.82,12.33,60.38C449.47,157.4,451,192.71,452.32,217.12ZM676.38,671.79c0-1.77.09-3.54,0-5.3-1.19-19.65-8.06-35.62-28.22-42.62-31.08-10.78-62.79-18.06-96-16.39A86.65,86.65,0,0,0,513.77,618c-23.06,12.8-36.7,34.89-32.22,58.05C486.36,701,499.07,719.85,523,730c11.79,5,24.47,6.38,37.08,7.38,11.17.88,22.13,4,33.67,1.14,15.25-3.8,31-5.8,45.43-12.39C662.39,715.5,676.27,698.32,676.38,671.79Zm-161.76,133-.23.71c5.2,2.62,10.77,4.71,15.53,8,10.21,7,21.59,6.29,32.85,5.58,16.11-1,27.91-11.14,40.3-20-14.87,1.93-29.46,4.58-44.15,5.53S529.39,804.81,514.62,804.81ZM650.6,394c-57.21-20.94-115.91-25.59-175.76-14.68,2.56,4,6.88,3.86,11.29,3.14,41-6.69,81.83-5.51,122.23,4.47,11.12,2.75,22,6.36,33,9.5C645.27,397.52,648.57,396.54,650.6,394ZM655,622.61c-3.87-2-8-4.74-12.62-6.33-26.22-9.12-53-15.6-81-16-20.17-.31-39.27,3.28-55.79,15.73-4.33,3.26-8.19,7.14-12.27,10.74l.71.86c12.75-11.81,27.55-19.52,44.76-22.12,22-3.32,43.82-1.59,65.31,3.32C621.4,612.73,638.33,618,655,622.61Z"/><path d="M580.74,909.11c7.66-5.13,15-11.24,23.28-15.37,29.43-14.63,66.91,3.62,73.33,35.63,3.39,16.88-.61,32.25-14.2,43.54-8.74,7.27-18.67,13.11-27.85,19.45,4.07,4.19,9.44,8.85,13.73,14.35,7.76,10,15.42,20.09,22,30.83,3.08,5,4.29,11.52,5,17.51a11.47,11.47,0,0,1-6.58,12,11.81,11.81,0,0,1-13.92-2.51c-6.29-6.38-12.67-12.85-17.84-20.11-10-14-19.23-28.57-28.61-43a6.55,6.55,0,0,0-6-3.38c-6.54-.35-13.06-1.3-20.61-2.12,0,2.58.21,6,0,9.41-1.12,16.28-2.27,32.57-3.66,48.82a21,21,0,0,1-2.67,7.88c-4,7.39-13.27,8.28-17.51,1.08a50.87,50.87,0,0,1-6.63-18.41,473.72,473.72,0,0,1-.12-126.83c1-7.73,4.07-15.25,6.73-22.67.81-2.24,3.17-4.34,5.34-5.59,5.78-3.33,11.89-1.14,13.88,5.15C579.38,899.65,579.91,904.82,580.74,909.11Zm1.68,46.55h.31c0,5-.26,10,.14,15A8.28,8.28,0,0,0,585.8,976c7.17,5.38,15.49,5.85,24,4.72,14.25-1.87,24.78-8.93,30.41-22.41,4.91-11.77,5.63-24.06,3.12-36.43-2.33-11.55-9.62-16.78-21.32-15.64-10.18,1-18.26,6.44-25.26,13.39-8.95,8.89-17.41,18.2-14.4,32.51A17.31,17.31,0,0,1,582.42,955.66Z"/><path d="M722.29,971.38c20.44-14.82,39.38-29.27,52.71-49.69a38.6,38.6,0,0,0,6.4-18.57c.4-5.54,4.06-8.6,9.37-8.28,4.62.27,7.72,3.78,7.77,9,.08,8.32-2.47,15.95-6.55,23.09-10.89,19.05-26.58,33.65-43.63,47-4.26,3.33-8.63,6.53-13.41,10.14l4.45,2.69c20.74,12.55,40.43,26.49,57.23,44.12a101.53,101.53,0,0,1,9.79,12.5,27.57,27.57,0,0,1,3.69,8c1.52,5.26.88,10.28-3.32,14.26s-9.24,3.84-13.57,1.35c-8-4.6-16.05-9.42-23.09-15.32-14.9-12.47-29.18-25.7-43.71-38.62l-3.86-3.45c-.44,8.73-.36,16.64-1.35,24.41a285,285,0,0,1-5.13,28.08c-.86,3.72-4,6.13-8.2,6.3-4.45.19-8.22-1.23-10.47-5.23a30,30,0,0,1-3.24-7.69,150.68,150.68,0,0,1-3.51-18.18,484.24,484.24,0,0,1,1-117.69c1.12-8.31,4.3-16.41,7.16-24.39.82-2.3,3.5-4.45,5.85-5.59,6.09-2.93,11.61-.58,12.92,6a188.43,188.43,0,0,1,3.6,26.64c.8,14.55.78,29.15,1.09,43.73C722.31,967.3,722.29,968.73,722.29,971.38Z"/><path d="M303.6,994.85c0,8.69.4,16.92-.1,25.09-.71,11.59-2,23.14-3.24,34.69a20.9,20.9,0,0,1-2.33,7.06c-4.27,8.28-14.17,9.17-18.62,1a56.37,56.37,0,0,1-6.13-19.54,483.33,483.33,0,0,1,0-125.05,98,98,0,0,1,5.28-20c1.82-5.1,5.2-9.23,11.48-9.55,4.61-.24,7.8,1.52,9,6,.93,3.39,1.48,6.89,2.12,10.35.37,2,.58,4,.88,6.2,5.25-4,10-8.17,15.24-11.58,16.61-10.83,34.45-13.71,53.53-7.58,26.91,8.64,38,29.56,28.88,56.24-9.37,27.38-29.74,42.65-57.28,49a63,63,0,0,1-35.69-1.71C306,995.29,305.34,995.22,303.6,994.85Zm.14-39h.34c0,5,.17,10-.06,15-.13,2.95,1.16,4.53,3.54,5.93,16.46,9.67,40.51,4.59,51.29-11.14,9.39-13.71,11.45-29.18,9.21-45.18-1.5-10.78-6.8-14.46-17.68-14.13a33.83,33.83,0,0,0-4.38.43c-15.07,2.49-26.21,11.17-35.77,22.49-4.94,5.85-8.06,12-6.55,20C304.08,951.33,303.74,953.61,303.74,955.81Z"/><path d="M476.1,888.33c27.35-1,46.07,18,54,40,13.31,37.15,10.43,73.64-8.07,108.43-7.41,13.94-18.3,25.06-34.25,29.47-24.25,6.71-48.95-3.1-63.8-25-9.2-13.58-14.07-28.78-16-44.89-3.22-26.26.34-51.48,13.75-74.63,9.85-17,23.73-29.14,43.86-32.58a23.41,23.41,0,0,1,2.63-.36C470.8,888.59,473.45,888.47,476.1,888.33Zm44.75,82.35c-.53-5-.93-11.76-2.05-18.42-2.52-15-7.86-28.67-19.74-39-14.25-12.35-33.67-9.93-43.89,5.77a76.92,76.92,0,0,0-8,16.17c-7.52,21.36-9.22,43.39-6,65.75,2,13.91,5.35,27.41,13.64,39.25,6.49,9.28,15.25,11.94,25.88,9.82,12.52-2.5,20.07-11.31,26-21.59C516.7,1011.19,519.91,992.12,520.85,970.68Z"/><path d="M541.76,211.27c3-9.14,6.26-18.19,8.83-27.44,4.61-16.58,8.84-33.27,13.12-49.94,1.86-7.21,5.94-9.55,13.07-7.17,5.28,1.76,8.4,5.83,10.83,10.47,5,9.62,6.13,20.26,7.24,30.77,3.43,32.5,1.85,65-.3,97.52-.17,2.65.14,5.45-.65,7.89s-2.21,5.92-4.29,6.86-6.29.38-8-1.21c-2.74-2.56-5.33-6.29-6-9.89a355,355,0,0,1-5.32-37.52C569,213.86,568.72,196,568,177.31c-.65,1.59-1.07,2.49-1.39,3.43-5.58,16.42-11,32.89-16.84,49.23a35,35,0,0,1-6.24,10.56c-5.86,6.87-13.89,6.14-18-1.85A94.52,94.52,0,0,1,518,219.41c-5-19.36-9.55-38.86-14.28-58.31-.47-1.93-1.1-3.83-1.65-5.74l-1.51.09c-1,17.39-2.66,34.78-2.78,52.18-.11,15,1.35,30,2.56,44.93.27,3.32,2.08,6.66,3.72,9.7,2,3.75,1.85,7.32-1.22,9.93s-7.65,2.55-10.17-1-4.92-7.32-5.54-11.31C485.33,248,483.54,236,483.27,224c-.65-27.86.69-55.67,5.54-83.18a41.78,41.78,0,0,1,3.25-10c2.09-4.5,5.9-5.86,10.65-4.61,6.64,1.76,11.36,6,15.15,11.46,8.86,12.85,13.35,27.47,16.83,42.42,2.17,9.3,3.64,18.77,5.44,28.16.19,1,.47,1.91.71,2.87Z"/><path d="M632.33,212.71c11.17-13.11,21.21-12.37,31.53-7,14.33,7.54,17.1,31.46,5.35,42.58a13,13,0,0,1-13.06,3.3c-4.77-1.31-6.24-5.48-6.45-9.61-.34-6.73.11-13.5.22-20.25,0-1.43,0-2.85,0-4.5-4.34.25-6.12,3.2-7.12,6.12-3.76,11-7.19,22-10.64,33.1-1,3.37-1.55,6.91-2.72,10.23-3,8.45-12.43,10.22-17.39,2.74a40.46,40.46,0,0,1-6-16.28,98.32,98.32,0,0,1,3-42.41,43.35,43.35,0,0,1,5.13-10.67,9.72,9.72,0,0,1,10.7-4.49c4.36.91,5.44,4.63,6.26,8.25C631.74,206.54,631.89,209.31,632.33,212.71Z"/><path d="M660.42,273.85c-5.43,0-9.07-3.69-9-9.15a9,9,0,0,1,9.11-9.26,9.25,9.25,0,0,1,9.15,9.34A8.82,8.82,0,0,1,660.42,273.85Z"/><path d="M549,688.71a18.36,18.36,0,1,1,18.51-18.27C567.47,680.91,559.51,688.75,549,688.71Z"/><path d="M641.06,671c0,8.8-6.45,15.22-15.3,15.23a15.07,15.07,0,0,1-15.36-15.28,15.36,15.36,0,0,1,15.42-15.38A15.11,15.11,0,0,1,641.06,671Z"/></svg>