<svg id="Layer_1" data-name="Layer 1" xmlns="http://www.w3.org/2000/svg" viewBox="0 0 1080 1080"><title>Clients logo</title><path d="M320.14,738.52a18.81,18.81,0,1,1,18.8,18.81A18.8,18.8,0,0,1,320.14,738.52ZM499.56,436.73c.38-.89.72-1.79,1.15-2.65q16.57-33.51,30.65-68.14c8.38-20.54,16-41.34,21.33-62.9,3.48-14.09,6-28.32,5.73-42.91A50.19,50.19,0,0,0,548,229.73C538.86,218,527,209.94,513,205a62.45,62.45,0,0,0-23.49-3.56c-9.08.39-17.95,2.33-26.75,4.5-26.33,6.5-50.94,17.23-74.58,30.33a530.24,530.24,0,0,0-73.14,49.19c-14.37,11.43-27.93,23.75-39.87,37.75-9,10.51-16.8,21.76-22.11,34.6-2.39,5.76-4.59,11.67-5.06,17.92a58.46,58.46,0,0,0,8.65,35.18c5.84,9.68,14.89,14,25.78,15a47.19,47.19,0,0,0,18.42-2.27c3.57-1.12,7.28-1.84,10.5-3.92,5.17-3.34,7.67-8.87,6.53-14.63a13.52,13.52,0,0,0-11.49-10.74c-3.24-.49-6.57-.31-9.85-.64-3.63-.36-7.27-.77-10.84-1.49-2.91-.59-3.38-1.47-3.41-4.43a31.8,31.8,0,0,1,2.38-11.23c4.45-12.25,11.83-22.69,20.3-32.43a228.22,228.22,0,0,1,34.79-31.91,494.58,494.58,0,0,1,97.29-58c17.61-7.86,35.64-14.37,55.05-16.11a54.36,54.36,0,0,1,15.6.38c7.12,1.43,12.1,5.47,14.44,12.45a42.66,42.66,0,0,1,2.14,17.87,117.16,117.16,0,0,1-3.91,19.92c-5.33,19.3-12.82,37.8-20.8,56.11-14.1,32.36-30,63.81-46.55,95C434.08,475.65,414.27,511,394,546a24.39,24.39,0,0,0-3.28,13.68c.37,7.66,4.12,13.12,10.93,16.53A29.28,29.28,0,0,0,415.76,579a19.7,19.7,0,0,0,15.68-7.81c3.56-4.54,7-9.2,10.43-13.82,5.38-7.19,10.41-14.67,16.18-21.53,19-22.58,38.21-45,57.44-67.36q24.72-28.79,49.64-57.4c.47-.55,1-1,1.57-1.52a5.49,5.49,0,0,1-.37,2.63,346.1,346.1,0,0,0-12.34,41,246.1,246.1,0,0,0-6.16,38.48c-.7,10-.82,20.15-.83,30.22a85.06,85.06,0,0,0,1.29,15c3,16.93,12.26,29.65,27.28,37.89,13.9,7.63,28.69,8.17,43.68,3.83,11.72-3.38,22.27-9.31,32.43-15.93,16.27-10.59,31-23.12,45.19-36.28a545,545,0,0,0,48.7-51.51,485.75,485.75,0,0,0,44.32-63.51C800,394.34,808.94,376.73,815.6,358c7.11-20,11.12-40.4,9.14-61.75a105.34,105.34,0,0,0-4.6-23.95,58.13,58.13,0,0,0-15.62-24.87,18.55,18.55,0,0,0-8.33-4.61c-10.73-2.5-17.73,5.26-18.13,13a18.3,18.3,0,0,0,3.86,12.59,28.41,28.41,0,0,1,4.63,9.57,83,83,0,0,1,2.78,16.49,109.66,109.66,0,0,1-1.55,30.37C784.7,341,779,356.2,772,371c-9.45,19.72-21,38.24-33.51,56.09a484.35,484.35,0,0,1-90.31,96.81,173.87,173.87,0,0,1-25.25,17.56c-7,3.9-14.25,6.46-22.49,6s-17.36-5.94-17.25-17.6A268.76,268.76,0,0,1,585,500.73a277.74,277.74,0,0,1,11.79-53.29c6.64-20.43,15.28-40,24.61-59.33,4.74-9.82,9.76-19.49,14.69-29.21a22.57,22.57,0,0,0,2.72-9.42c.44-11.47-4-21.05-11.46-29.42a22.11,22.11,0,0,0-9.23-6.27c-5.16-1.79-10.2-1.5-14.6,1.91a29.35,29.35,0,0,0-6,6.31c-2.88,4.12-5.33,8.54-8,12.82a20.13,20.13,0,0,1-1.88,2.68q-8.1,9.36-16.25,18.66L506.8,429.74c-2.17,2.46-4.36,4.9-6.54,7.35Zm327-70.33c-3.46,8.28-6.83,16.6-10.45,24.81a17.39,17.39,0,0,0-1.67,7.9,253.73,253.73,0,0,1-5.41,63.09C798,513.16,773.86,557,736.25,593c-47.73,45.73-105,69.38-171,71.81a242.69,242.69,0,0,1-38.66-2,238.91,238.91,0,0,1-35.77-7q-87.36-24.51-140.66-98c-25.31-35-40.5-74.05-45.93-116.9-.36-2.79-.73-5.58-1.09-8.32l-16.5,2.25c-2,9.53,9.52,56.64,19.82,80.55,22.85,53,58.63,95,107.56,125.59,97.79,61.1,224.32,53.86,314.36-18C823.19,547.39,841.83,437.77,828,363.1,827.41,364.45,827,365.43,826.6,366.4Zm-528.24,507c0-.92,0-1.83,0-2.75q0-35.61,0-71.22a71.2,71.2,0,0,0-.69-10.12,22.52,22.52,0,0,0-11.37-17,28.93,28.93,0,0,0-14.11-4c-11-.24-21.15,2.79-30.82,7.79l-3.51,1.8c-.06-1.52-.14-2.58-.15-3.63,0-11.55,0-23.1,0-34.65a33.22,33.22,0,0,0-2.22-12.37,8.69,8.69,0,0,0-5.82-5.43,29.19,29.19,0,0,0-7.26-1.27c-8.34-.16-16.68-.07-25,0a8,8,0,0,0-1.62.38,5.34,5.34,0,0,0,1,.63c3.41,1,4.84,3.37,4.6,6.86,0,.45,0,.91,0,1.37q0,71.49,0,143c0,.92,0,1.84,0,2.75a5.57,5.57,0,0,1-3.51,5.14l-2.09,1c4,.58,45.25.42,47.42-.17-.78-.35-1.43-.61-2.05-.92a5.65,5.65,0,0,1-3.31-5c0-.64,0-1.28,0-1.92v-91c0-.46,0-.92,0-1.38a2.29,2.29,0,0,1,1.6-2.57c2.12-.85,4.21-1.8,6.39-2.45,6.09-1.82,14.14.23,16,9.48a42.32,42.32,0,0,1,.67,8.19q.07,39.74,0,79.47c0,.55,0,1.1,0,1.65a6.13,6.13,0,0,1-3.72,5.63c-.61.31-1.27.52-2.11.86,2.31.59,44.18.71,47.73.12C299.35,879.68,298.39,878.24,298.36,873.43ZM673,833l-2.58.82c-9.55,3-17,12.19-17.66,21.8-.79,11,4.71,20.79,14.43,25.32a41.4,41.4,0,0,0,7.2,2.63c11.3,2.92,22.93,3.64,34.46,5a147.12,147.12,0,0,1,19.17,3.31c7.94,2.06,14,7,15.78,15.26,2.38,10.83-.63,20.43-8.94,27.9-5.21,4.7-11.61,7.22-18.58,8.23a73.15,73.15,0,0,1-23-.63A24.18,24.18,0,0,1,682,938.08c-4.78-3.83-5.37-9.44-1.56-14.28,1.42-1.8,2.89-3.56,4.38-5.3a16.78,16.78,0,0,0,3.54-15.71c-2.15-8.57-9.24-13.54-18.33-13.51-9.55,0-16.41,8.2-17.21,15.89a24.42,24.42,0,0,0,2.95,14.6,38.79,38.79,0,0,0,14.92,15.43c19.94,11.33,40.85,12.9,62.12,4.58,16.32-6.38,26-18.7,28.11-36.29,2-16.75-4.1-30.2-17.85-40-10.71-7.63-23.05-10.44-35.92-11.46-7-.56-14.08-.94-21.07-1.79a75.54,75.54,0,0,1-11.73-2.72,6.64,6.64,0,0,1-4.77-5.85,6.73,6.73,0,0,1,3-6.67c1.78-1.31,1.95-1.24,3.87-.12a62.46,62.46,0,0,0,8.22,4.39,60.16,60.16,0,0,0,33.94,3.52,50.76,50.76,0,0,0,22.81-10.28c8.08-6.52,12.52-15.06,12.74-25.45.25-12.06-4.8-21.71-14.61-28.64-11.3-8-24-10.89-37.75-9.64a53.72,53.72,0,0,0-25,8.43c-9.74,6.36-15.44,15.19-16,27-.52,10.59,2.79,19.65,10.8,26.8.54.48,1.15.87,1.73,1.31Zm20.79-40.69a85.51,85.51,0,0,1,1.69-11.92,18.16,18.16,0,0,1,2.46-5.77,10.88,10.88,0,0,1,18.86.17,26.61,26.61,0,0,1,3.54,12,259.32,259.32,0,0,1,0,38.42,25.66,25.66,0,0,1-3.82,12.47,10.89,10.89,0,0,1-13.51,4.21,11.63,11.63,0,0,1-5.94-5.84,27.19,27.19,0,0,1-2.79-10c-.34-3.55-.49-7.12-.59-10.69-.1-3.11,0-6.22,0-9.34h0C693.76,801.47,693.55,796.88,693.83,792.32ZM682.2,164.52c-49.42-25-101.8-34-156.72-27.54-47.37,5.56-90.3,22.74-128.79,50.91a267.81,267.81,0,0,0-70.22,75.95,5.65,5.65,0,0,0,2-.8c11.18-6.65,22.37-13.28,33.52-20a13.26,13.26,0,0,0,3.08-2.66A256.55,256.55,0,0,1,436.79,183a256.6,256.6,0,0,1,209.4-15.21Q718,194.3,764,255.52c.64.85,1.32,1.67,2.26,2.85,1.74-6.73,4.09-12.65,8-18A272.29,272.29,0,0,0,682.2,164.52Zm244,611.78a11.53,11.53,0,0,0-8.44-7.17,24.92,24.92,0,0,0-5.44-.67c-8.06-.07-16.13,0-24.19,0a21.56,21.56,0,0,0-2.41.33l2.34,1a5.65,5.65,0,0,1,3.66,4.75,23.42,23.42,0,0,1,.17,3V873c0,.82,0,1.65-.07,2.47a6,6,0,0,1-4.18,5.57c-.42.15-.81.38-1.58.75,5,.62,45.37.4,47-.13a27.72,27.72,0,0,1-3.74-2.84c-1.34-1.41-1.24-3.36-1.24-5.21q0-37.24,0-74.5c0-5.86-.3-11.71-.55-17.56a2.12,2.12,0,0,1,1.3-2.41,65.76,65.76,0,0,1,7.62-3.1c7.27-2,13.26,1.39,15.26,8.67a34.2,34.2,0,0,1,1.17,9c.09,26.57,0,53.15.08,79.73,0,3.95-1.4,6.73-5.35,7.92-.08,0-.1.29-.2.62.55,0,1.07.14,1.58.14l45.07-.14c.05,0,.11-.13.14-.21a1,1,0,0,0,0-.24c-4.26-1.68-5.18-3-5.29-7.56,0-1,0-2,0-3q0-34.9,0-69.83c0-3,0-6.06-.32-9.06-.91-9.38-6.57-19.18-18-22.14a43.28,43.28,0,0,0-18.5-.64,69.49,69.49,0,0,0-21.79,8.05l-2.92,1.6C926.84,777.78,926.49,777.05,926.18,776.3ZM136.27,838.52c-.45-1-.94-1.95-1.36-2.95q-11.84-27.66-23.64-55.33c-.79-1.85-1.63-3.69-2.34-5.57a4,4,0,0,1,1.64-5.24l1.15-.84H67.44c3.87,1.25,5.52,4.29,6.73,7.75.51,1.47,1.21,2.87,1.81,4.3q6.9,16.33,13.79,32.65c.49,1.18,1,2.25.36,3.65-3,6.8-5.82,13.65-8.74,20.46a7.43,7.43,0,0,1-1.06,1.33c-.42-.81-.74-1.35-1-1.93q-13.23-30.94-26.45-61.89c-1-2.39-.62-3.76,1.42-5.21a15.43,15.43,0,0,1,1.48-.86,6.56,6.56,0,0,0-2.76-.41l-41.52.1c-.06,0-.13.11-.16.19a2,2,0,0,0,0,.36c2.93.46,4.53,2.46,5.53,5.08.16.43.36.85.54,1.27Q39.7,827.15,62,878.88c.31.73.7,1.44,1.27,2.6,9.33-21.64,18.47-42.87,27.62-64.09h.72c9.14,21.22,18.29,42.44,27.63,64.14.61-1.28,1-2.06,1.36-2.87q19.47-45.31,38.93-90.62a37.82,37.82,0,0,1,10.34-14,18.5,18.5,0,0,1,8.75-4.36c1.36-.25,2.73-.48,4.65-.82-4-.68-37.45-.51-39.29.12a6.39,6.39,0,0,0,.84.23,15.72,15.72,0,0,1,12.61,22.05C150.77,806,144.59,821,138.21,835.89c-.39.9-.84,1.76-1.26,2.64Zm737.62-27.25c-.15-1.45-.26-2.92-.55-4.35-2.22-11-8.08-19.77-16.67-26.73-12.38-10.05-26.7-13.57-42.26-11.05-17.54,2.85-30,12.83-37.69,28.79a58.48,58.48,0,0,0-5.34,20.9c-.84,10.48.19,20.67,4,30.49,6,15.25,16.58,25.94,32.35,30.56a56.32,56.32,0,0,0,41.94-3.78,35.28,35.28,0,0,0,15.58-14.64,21.89,21.89,0,0,0,2.87-11.58c-.35-11-11.69-19.61-22.36-16.8-15.47,4.07-17.46,21.62-8.88,30.26,1.22,1.24,2.43,2.49,3.68,3.7a6.33,6.33,0,0,1,1.6,6.82,8.09,8.09,0,0,1-5.08,5.4,25.22,25.22,0,0,1-12.64,1.81,14.54,14.54,0,0,1-11.7-7.66,38.87,38.87,0,0,1-2.93-6.79,61.26,61.26,0,0,1-2.71-17.87c-.24-11.17-.15-22.36-.18-33.54,0-.7.15-1.4.26-2.39h66.49A9.28,9.28,0,0,0,873.89,811.27Zm-66.67.55a6.48,6.48,0,0,1-.25-1.24c-.11-8.72.29-17.41,2.33-25.93a24.52,24.52,0,0,1,5-10.28c2.68-3.19,5.93-5.07,10.29-4.72a9.23,9.23,0,0,1,4.59,1.59,20.15,20.15,0,0,1,6.91,8.38,40.13,40.13,0,0,1,3.54,13.77c.44,5.56.52,11.16.74,16.74a11.38,11.38,0,0,1-.2,1.72C837.31,812.47,809.59,812.42,807.22,811.82Zm-261.75-7c-4.09-14.84-13.59-25-27.29-31.58a51.58,51.58,0,0,0-30.84-4.22C471.08,771.63,459,780.42,451,794.7a56.73,56.73,0,0,0-6.87,23c-.93,10.35-.16,20.49,3.45,30.32,5.6,15.26,15.82,26.06,31.25,31.42,10.28,3.58,20.88,3.42,31.44,1a44.75,44.75,0,0,0,19-8.86c5.74-4.71,10.06-10.38,11.37-17.93,2.19-12.65-10.1-24-22.47-20.53-15.39,4.25-16.94,21.66-8.77,30,1.35,1.38,2.73,2.72,4.06,4.11a6.09,6.09,0,0,1,1.53,6.08,8.3,8.3,0,0,1-5.5,6,26.26,26.26,0,0,1-10.75,1.82c-6.09-.27-10.73-2.87-13.6-8.29a39.92,39.92,0,0,1-2.57-6.06,58.07,58.07,0,0,1-2.7-17c-.28-11.27-.29-22.54-.39-33.82,0-1,.17-2,.29-3.25h66.4C546.79,809.8,546.14,807.31,545.47,804.87Zm-65.6,7.23a9.39,9.39,0,0,1-.41-1.94c.14-8.7.39-17.39,2.54-25.88a24.91,24.91,0,0,1,5.51-10.61c4.42-5,11.79-5.69,16.9-.31,3.81,4,5.78,8.88,6.87,14.11A103.36,103.36,0,0,1,513,811a6,6,0,0,1-.31,1.13ZM377.05,769.31c3.93,1.11,5.28,3.9,5.06,7.73-.06.92,0,1.84,0,2.75,0,24.11-.05,48.21,0,72.32a42,42,0,0,0,1.17,10.32c2,7.81,6.26,14,14.05,17.19a37.39,37.39,0,0,0,18.37,2.19c8-.89,14.94-4.69,21.62-9,.35-.23.52-.75.77-1.14a10.69,10.69,0,0,0-2.92,1,40.72,40.72,0,0,1-4.54,1.9c-4.49,1.33-8-.19-10.08-4.33a12.41,12.41,0,0,1-1.31-3.59,58.37,58.37,0,0,1-.92-8.72q-.11-42.76,0-85.52c0-1,.18-1.94.31-3.22h4.86c1.56,0,3.12,0,4.67,0a21.34,21.34,0,0,0,4.38-.16l0-.7h-14c-.09-1.43-.2-2.5-.21-3.58,0-6.42,0-12.83,0-19.25a19.61,19.61,0,0,0-.23-2.15l-.54,0c-1.57,6.29-5.41,11-10.42,14.76A51.66,51.66,0,0,1,387,767.22c-3.35.76-6.82,1-10.48,1.57C376.79,769.07,376.9,769.27,377.05,769.31Zm631.76.47a5.9,5.9,0,0,1,3.7,5.62c0,.91,0,1.83,0,2.75,0,24.56,0,49.12.05,73.69a43.11,43.11,0,0,0,1.14,10.33c1.94,7.69,6,13.94,13.63,17.22a36.94,36.94,0,0,0,19.13,2.37c7.84-.9,14.59-4.61,21.12-8.75a5.77,5.77,0,0,0,1.06-1.23,8.45,8.45,0,0,0-3,1,40,40,0,0,1-4.8,2c-4.21,1.21-7.64-.27-9.67-4.15a13.15,13.15,0,0,1-1.52-4.09,62,62,0,0,1-.85-9q-.09-42.48,0-85c0-1,.15-2,.26-3.24,2.51,0,4.79.06,7.06,0s4.55.33,6.77-.27v-.55h-13.86c-.09-1.43-.22-2.59-.23-3.76,0-6.14,0-12.28,0-18.42,0-.93-.12-1.86-.22-3.39a7.25,7.25,0,0,0-.83,1.24c-1.54,5.86-5.2,10.26-9.9,13.81a52.14,52.14,0,0,1-23.82,10c-2.22.34-4.46.53-7.3.86C1007.77,769.25,1008.28,769.54,1008.81,769.78ZM362.88,881.08c-3.14-1-4.5-3.25-4.57-6.42,0-.64,0-1.28,0-1.92V777.87c0-.92,0-1.84.05-2.75a6,6,0,0,1,4-5.42,19.11,19.11,0,0,0,2-1.07H316.66a2.34,2.34,0,0,0,1.28,1c2.78,1,4,3.07,4.15,5.87,0,.74,0,1.47,0,2.2q0,47.58,0,95.15c0,.82,0,1.65,0,2.47a6.11,6.11,0,0,1-4.16,5.61c-.44.17-.86.36-1.65.69,3.59.59,45.43.47,47.73-.13C363.48,881.32,363.19,881.18,362.88,881.08ZM602,777.56l-1.89.67c-.22-.16-.33-.2-.36-.27-.24-.49-.47-1-.68-1.49a11.37,11.37,0,0,0-8.16-7.11,27.34,27.34,0,0,0-6-.89c-8.06-.1-16.12-.05-24.18,0a20.19,20.19,0,0,0-2.35.34c1.07.5,1.54.74,2,.93a5.66,5.66,0,0,1,3.91,5.7c0,.73,0,1.46,0,2.2v94.82c0,6.18-.14,6.42-5.21,9.21.13.11.25.3.38.3q22.26.06,44.52.08c.55,0,1.09-.07,1.64-.12.06,0,.14-.1.18-.16a3.32,3.32,0,0,0,.09-.33l-1.23-.5a6,6,0,0,1-4-6c0-1,0-2,0-3q0-41.24,0-82.46a41.79,41.79,0,0,0-.3-6c-.34-2.23-.43-4.28,1.46-5.91Zm-.06,0,2.49-1a36.94,36.94,0,0,1,5.57-2.26c3.5-.81,5.23,1,4.67,4.57-.36,2.26-.79,4.51-1,6.78-.73,10.27,8.42,21.41,21.7,18.87,7.42-1.42,14.17-9.16,14.4-16.71a19.34,19.34,0,0,0-18.49-20c-7.94-.41-15.22,1.77-22.16,5.31-2.5,1.27-4.79,3-7.17,4.49ZM340.44,720.58a18.18,18.18,0,0,0-18.37,17.91c-.26,9.78,9.09,18.1,17.9,18.22,9.3.12,18.75-8.51,18.31-18A18,18,0,0,0,340.44,720.58Z"/></svg>