<svg id="Layer_1" data-name="Layer 1" xmlns="http://www.w3.org/2000/svg" viewBox="0 0 1080 1080"><title>Clients logo</title><path d="M7.26,482H112.79s28.05-1.58,44.1,23.4l-116.53-.05s-9.95.52-13.94-3.37S7.26,482,7.26,482Z"/><path d="M7.26,598H112.79s28.05,1.58,44.1-23.4l-116.53,0s-9.95-.52-13.94,3.37S7.26,598,7.26,598Z"/><path d="M209.66,506.83s-7.75-27.54-35.44-50.24-66.47-20.18-66.47-20.18H7.26s15.18,16.09,19.16,20,13.94,3.37,13.94,3.37l68.17,0c31.24-2.7,54.48,19.28,54.48,19.28s8.13,6.4,18.47,22.79,9.68,37.69,9.68,37.69.66,22.18-9.68,38.57S163,600.92,163,600.92s-23.24,22-54.48,19.28l-68.17,0s-9.95-.52-13.94,3.37-19.16,20-19.16,20H107.75s38.77,2.52,66.47-20.18,35.44-50.24,35.44-50.24,5.48-16.25,5-33.17C215.14,523.08,209.66,506.83,209.66,506.83Z"/><path d="M20.34,541.1,29,549.72a9.08,9.08,0,0,0,6.42,2.66H164.2a4.16,4.16,0,0,0,4.16-4.16V531.78a4.16,4.16,0,0,0-4.16-4.16H35.06a9,9,0,0,0-5.89,2.18l-8.67,7.4A2.66,2.66,0,0,0,20.34,541.1Z"/><path d="M303.83,602.32H259.1V471.89h44.73c41.5,0,68.27,26.41,68.27,65.21S345.33,602.32,303.83,602.32Zm0-119.65H271.14V591.36h32.69c35,0,56.24-21.74,56.24-54.26C360.07,504.76,338.87,482.67,303.83,482.67Z"/><path d="M397.25,471.89h12v74.37c0,31.08,13.83,47.43,40.42,47.43,26.77,0,40.6-16.35,40.6-47.43V471.89h12v74.37c0,37.91-19,58.57-52.64,58.57s-52.46-20.66-52.46-58.57Z"/><path d="M537.56,573.21c7,12,22.1,20.66,41.32,20.66,20.12,0,37-10.24,37-24.79,0-12.76-9.52-20.12-29.64-25.15l-18-4.31c-24.07-5.93-36.11-17.25-36.11-34.14,0-21,19.94-36.11,46.53-36.11a58,58,0,0,1,28,7c8.62,4.49,14.73,10.24,18.32,16.88l-9.7,5.93c-6.29-11-20.66-18.86-37-18.86-18.86,0-34.13,10.24-34.13,24.61,0,12.22,9.34,19.41,29.28,24.44l18,4.31c24.25,6.11,36.47,17.6,36.47,34.67,0,21.56-21.38,36.47-49.41,36.47a65.92,65.92,0,0,1-30.9-7.36c-9.34-4.86-16-11-20.12-18.33Z"/><path d="M641.4,471.89H748.83v10.78H701V602.32H689V482.67H641.4Z"/><path d="M784,591.36h74v11H772V471.89h12Z"/><path d="M894.17,591.36h74v11H882.13V471.89h12Z"/><path d="M969.8,471.89l44.92,71.5,44.73-71.5h13.29l-52.09,82.64v47.79h-12V554.53l-52.1-82.64Z"/></svg>