<svg id="Layer_1" data-name="Layer 1" xmlns="http://www.w3.org/2000/svg" viewBox="0 0 1080 1080"><title>Clients logo</title><path d="M848.34,226.85c20.93.28,43,2.08,63.82,10.78C946.48,252,965.45,278,969.07,315c1.43,14.57.38,28.94-4.57,42.79-8.13,22.73-25,35.58-47.93,41.05a112.63,112.63,0,0,1-34.4,2.5c-8.43-.61-11-3.29-11.1-11.73-.17-10.9-.75-21.73-4-32.27-6.21-20.21-18.93-29.72-40.06-29.28-16.4.35-30.38,6.54-41.89,18.31-13.94,14.27-15.6,42.6,3.23,57.46,13.47,10.63,28.5,18.36,44,25.25,16.36,7.25,33.06,13.79,49.08,21.72,25.68,12.72,47,30.64,62,55.51,10.91,18,15.13,37.73,15.92,58.44,1,26.45-3.2,51.88-15.36,75.59-17.5,34.14-46.06,54.4-82.39,64.5-27.23,7.56-55,8.23-82.94,5.47a227.6,227.6,0,0,1-86.65-26.1c-12.82-6.92-24.51-15.34-33.61-27-5.15-6.58-7.93-13.76-7.75-22.39.39-18.85.48-37.7,4.3-56.26a53.5,53.5,0,0,1,4-12c4.37-9.22,12.07-12.66,21.72-9.3a53.59,53.59,0,0,1,13.51,7.35c14.59,10.59,28.37,22.28,44.44,30.81,23,12.22,47.16,15.4,72.49,9.84,7.64-1.68,14.57-5.11,19.84-11.1,11.81-13.41,9.7-34.68-4.56-46.08-9.81-7.84-20.78-13.72-32.31-18.6-17.22-7.28-34.74-13.9-51.59-21.93-31.6-15-55.57-37.88-68-71.27-7.42-19.87-8.25-40.68-7.62-61.63,1.09-36.07,13.34-67.65,37.87-94.23C726.42,257,753.34,242.63,784,234.83A262,262,0,0,1,848.34,226.85Z"/><path d="M248.64,513.31c-2.44,32.92-4.85,65.43-7.3,98.54h4.87q69.53,0,139,.06a24,24,0,0,1,7.71,1.44,7,7,0,0,1,4.93,7.44q-1.93,25.79-4.32,51.52c-.29,3.1-1.65,6.13-2.71,9.12-5.15,14.48-16.24,21-30.81,22.63a124,124,0,0,1-13.89.85c-52.85.06-105.71.24-158.56-.14a118.85,118.85,0,0,1-29-4c-20.68-5.44-33.91-21.42-34.87-42.87-.72-16.24,0-32.61,1-48.87,2.19-35,5-69.87,7.57-104.8,3.06-40.89,6.3-81.76,9.28-122.65,3.15-43.26,6.09-86.54,9.09-129.82.25-3.57.11-7.17.52-10.72.48-4.23,3.17-6.57,7.34-7.14a36,36,0,0,1,4.76-.26q114.95,0,229.87,0a28.75,28.75,0,0,1,5.94.46c4.44.95,7.07,3.63,6.76,8.06-1.24,17.45-2.82,34.88-4.32,52.31a19.46,19.46,0,0,1-1,3.85c-5.79,19-17.24,27.5-39.33,28.05-18.45.47-36.92.19-55.37.22q-19.92,0-39.84,0h-4.72c-2.21,31.14-4.39,61.93-6.63,93.49H260q43.21,0,86.45,0a27.79,27.79,0,0,1,6.32.55c4.51,1,6.95,3.69,6.63,8.15-1.19,17-2.45,34.12-4.19,51.13-.45,4.36-2.47,8.64-4.21,12.78-5.29,12.51-15.73,17.79-28.45,19.34a173.2,173.2,0,0,1-19.05,1.21c-16.59.17-33.19.06-49.79.06Z"/><path d="M598.44,316.87Q594.17,377.41,589.9,438c-2.31,33.49-4.39,67-6.7,100.47q-3.32,48.24-6.89,96.47-2,27.78-4.16,55.56c-1.27,16.48-4.95,14.61-15.65,14.48-16.45-.2-32.92-.09-49.34-.93-11.34-.58-22.34-3.58-31.8-10.29-14.06-10-19.66-24.5-19.83-41-.16-15.36.55-30.76,1.58-46.1,2.55-37.86,5.46-75.69,8.31-113.52,3.3-43.93,6.83-87.83,10-131.76,2.66-36.51,5-73.05,7.47-109.58.24-3.57.11-7.17.51-10.72.48-4.22,3.16-6.55,7.33-7.16a18.5,18.5,0,0,1,2.77-.24c16.33.12,32.67-.15,49,.56a99.45,99.45,0,0,1,22.62,4.07c18.15,5.17,26.6,19.05,30.81,36.25C599.37,288.46,599.13,302.65,598.44,316.87Z"/><path d="M23.12,829.89c1.29-9.18,2.67-18.34,3.8-27.54.31-2.54,1.31-3.34,3.76-3.42,8.4-.25,10.6,1.55,11.55,10a185.83,185.83,0,0,0,3.11,20.93C46.81,820.9,48.58,812,49.63,803c.51-4.42,3-4.36,6-4,3.7.41,5.7,2.4,4.85,5.76-2.87,11.42-5.91,22.82-9.35,34.08-1.36,4.45-5.74,2.06-8.71,2.21-3.56.19-5-2.77-5.43-5.8-.81-5.51-1.3-11.06-1.93-16.59a43.48,43.48,0,0,0-1.43-7.95Q32,821.46,30.28,832.17c-.1.66-.17,1.32-.29,2-1.4,7.24-1.4,7.12-8.53,7.12-3.35,0-5.41-1.53-6.16-4.51-2.89-11.43-5.6-22.91-8.38-34.37-.67-2.75.6-3.44,3.16-3.45,6.51,0,8.6,1.66,9.37,8.06.92,7.62,1.8,15.24,2.7,22.86Z"/><path d="M525.7,811.22c.11-3.76,2.84-2.68,4.83-2.62,2.92.08,4.87,1.67,4.84,4.69-.06,4.77-.37,9.55-.72,14.31-.27,3.7-.86,7.38-1.15,11.08-1.07,13.69-11.55,15.55-20.69,14a15.18,15.18,0,0,1-7.46-3.9c-1-.9-.82-4.36.17-5.46s4.41-1.5,5.39-.64c2.88,2.53,5.81,3.34,9.1,1.81,3.55-1.64,3.57-5.18,3.83-8-2.94,1-5.83,2.65-8.85,3-5.09.51-8.69-2.24-10.08-7.18a25.09,25.09,0,0,1,1.38-17.48C509,808.71,518.91,804.27,525.7,811.22Zm-.55,12.84c0-1.72.24-2.51,0-3-1-1.8-1.8-4.33-3.38-5.06-2.59-1.19-5,.6-5.91,3.18a23.74,23.74,0,0,0-1.22,6.93c-.13,2.43.29,5,3.33,5.48s5.4-.91,6.43-3.94A24.61,24.61,0,0,0,525.15,824.06Z"/><path d="M963.94,837.54c-.52,5.49-.94,9.93-1.36,14.29-7.75,1.48-9.9-.44-9.32-7.84.92-11.63,1.79-23.28,2.77-36.1l9.89,2.7-.21,1.18a28.08,28.08,0,0,1,4-3,10.69,10.69,0,0,1,15.37,6.94c1.51,6.21,1.39,12.57-1.75,18.21a18.66,18.66,0,0,1-7.13,7C972,843.23,967.66,842.46,963.94,837.54Zm.13-12.93c.21,1.95.24,3.15.47,4.32.48,2.41,1.29,5.34,4.13,4.88,2-.33,4.73-2.33,5.34-4.17a21.92,21.92,0,0,0,.46-9.72c-.21-1.49-2.34-3.67-3.73-3.77-1.65-.11-4,1.3-5,2.76C964.55,820.63,964.46,823.12,964.07,824.61Z"/><path d="M351.17,840.94c-8.12.74-9.78-.83-9.24-8.42q1.19-16.47,2.42-32.93a21.85,21.85,0,0,1,.48-2.63c7.76-1.09,9.73.67,9.23,8.08-.14,2-.23,4.1-.36,6.55,1.89-1.25,3.18-2.43,4.7-3.05,8.17-3.34,14.65.91,14.43,9.73-.17,6.88-1.06,13.74-1.48,20.62-.17,2.73-2,2.33-3.66,2.31-3,0-5.91-.6-5.91-4.32,0-4.63.54-9.26.84-13.89a7.63,7.63,0,0,0,.11-2.76c-.5-1.5-1.1-3.8-2.14-4.1a5.76,5.76,0,0,0-4.91,1.27,11.69,11.69,0,0,0-2.76,6C352.1,829.1,351.74,834.92,351.17,840.94Z"/><path d="M647.33,797.84c7.4.35,11.45,3.9,11,9.88-.25,3.46-2.18,5.24-5.48,5.81-2,.34-3-.12-3.55-2.45-.36-1.55-2.24-3.9-3.36-3.86a6.37,6.37,0,0,0-4.69,3.13c-.44,1,1.28,3.37,2.57,4.55s3.25,1.72,4.94,2.48c7.16,3.21,10,8.29,8.44,15.17-1.39,6.11-6.4,9.82-13.83,9.33a30,30,0,0,1-10.51-3c-1.49-.71-2.71-3.2-2.94-5s.88-3.93,1.41-5.91c1.58.8,3.11,1.72,4.75,2.36a24.83,24.83,0,0,0,6.68,2,4.38,4.38,0,0,0,3.51-2.32c.27-1-1-2.83-2-3.67-1.42-1.11-3.31-1.62-5-2.38-5.73-2.56-8.21-6.24-8.08-12A12.8,12.8,0,0,1,640,799.54,67.75,67.75,0,0,1,647.33,797.84Z"/><path d="M820.11,829.24c-.39,3.88-.77,7.65-1.14,11.37-7.24,1.69-9.77-.28-9.3-7.23.75-11.25,1.6-22.49,2.43-33.73a24,24,0,0,1,.47-2.63c7.7-1.27,9.73.52,9.25,7.93-.24,3.69-.43,7.38-.7,12.1,3-2.65,5.33-4.8,7.74-6.86,1.59-1.35,3-3.88,5.42-.92,2.89,3.48,3.2,6.55.26,8.59-2.59,1.81-5.49,3.17-8.79,5,3.29,3.52,6.48,7.15,9.91,10.53,2.26,2.22,3,4.2.63,6.76s-5.16,2.46-7.3.17C825.86,837,823.21,833.18,820.11,829.24Z"/><path d="M859.21,838.17c-3.31,1.41-6,3.16-9,3.69-3.66.66-7.2-.33-9-4.26a9.87,9.87,0,0,1,2.08-10.69c3.61-3.71,8.43-4.13,13.15-4.8.91-.13,1.83-.1,3-.15.39-2.49.8-5.07-2.07-6s-4.7.35-5.78,3.31c-.35,1-2.64,2.16-3.45,1.83-1.72-.71-4-2.12-4.36-3.67-.92-3.49,1.21-6.18,4.31-7.68a19.64,19.64,0,0,1,16.19-.68c3.75,1.46,5.64,4.92,5.44,9.71a77,77,0,0,1-.84,8.72c-.49,3.08-.15,5.58,3.31,6.54-.11,3.86-1.31,6.82-5.13,7.78S860.32,841.36,859.21,838.17Zm.53-10-1.34-1.75c-2.13.8-4.45,1.33-6.3,2.55-.78.51-1,2.64-.67,3.76.19.59,2.71,1.22,3.31.74A43.42,43.42,0,0,0,859.74,828.16Z"/><path d="M755.57,838.2c-3.28,1.39-6,3.14-9,3.66-3.65.65-7.19-.34-9-4.28a9.88,9.88,0,0,1,2.1-10.69c3.62-3.7,8.44-4.12,13.16-4.78.91-.13,1.83-.1,3-.16.34-2.5.76-5.08-2.12-6s-4.69.39-5.76,3.35c-.35,1-2.66,2.13-3.47,1.79-1.72-.71-3.91-2.12-4.34-3.68-.92-3.29,1-6,4-7.47a19.3,19.3,0,0,1,16.9-.69c4.15,1.76,5.13,5.51,5,9.55-.08,3-.53,6.08-.84,9.12-.23,2.3-.5,4.5,2.31,5.69.54.23.88,1.76.77,2.61a6.23,6.23,0,0,1-5.28,5.71C759.32,842.64,756.7,841,755.57,838.2Zm.57-10-1.31-1.77c-2.13.8-4.45,1.32-6.31,2.53-.79.52-1,2.64-.69,3.77.18.59,2.7,1.24,3.3.76A44.14,44.14,0,0,0,756.14,828.18Z"/><path d="M446.36,822.26c-.11,14.43-10.15,22.87-23,19a13.52,13.52,0,0,1-6.56-4.69c-4-5.52-2.91-17.32,1.63-22.94,4.38-5.42,13.63-7.53,20.78-4.75C444.18,810.77,446.41,815,446.36,822.26Zm-22.12,3.47.48.12a18.89,18.89,0,0,0,0,2.38c.31,2.58.88,5.14,3.92,5.73s5.24-1.39,6-4a24.83,24.83,0,0,0,1.3-9.28c-.15-1.73-2.19-4.44-3.66-4.63a7.55,7.55,0,0,0-5.86,2.67C425.08,820.54,424.94,823.35,424.24,825.73Z"/><path d="M499.75,822.13c-.07,14.49-10,22.91-22.85,19.15a13.55,13.55,0,0,1-6.42-4.29c-4.3-5.45-3.27-17.86,1.54-23.6,4.66-5.56,14.69-7.46,21.6-4.1C497.8,811.32,499.78,815.46,499.75,822.13Zm-22.11,3.64.47.13a18.73,18.73,0,0,0,0,2.37c.33,2.58.9,5.14,4,5.69s5.21-1.44,6-4a24.65,24.65,0,0,0,1.27-9.29c-.15-1.72-2.22-4.41-3.69-4.59a7.59,7.59,0,0,0-5.85,2.72C478.45,820.59,478.32,823.39,477.64,825.77Z"/><path d="M218.08,812.29c1.89-1.37,3.33-2.87,5.09-3.62,8.5-3.61,15.21.76,14.91,10-.24,7.39-1.14,14.76-1.74,22-7.82,1.52-9.84-.2-9.33-7.69.28-4.11.91-8.21.84-12.3,0-1.64-1.66-4.68-2.3-4.61-2.09.21-4.73,1.07-5.9,2.62-1.41,1.86-1.69,4.66-2.17,7.12s-.61,5-.89,7.5-.55,5-.82,7.39c-7.54,1.39-9.74-.33-9.29-7.47.5-8.06,1.24-16.11,1.9-24.34C212.37,808.28,216,807.9,218.08,812.29Z"/><path d="M407.57,840.92c-8.5.79-9.75-.39-9.2-8.32.27-4,.89-7.94.8-11.9,0-1.65-1.63-4.69-2.27-4.63-2.09.21-4.74,1-5.92,2.6-1.41,1.85-1.79,4.65-2.16,7.11-.75,5-1.19,10-1.75,14.91-7.45,1.45-9.71-.31-9.27-7.43.5-8.06,1.24-16.11,1.9-24.36,4-.65,7.55-1,9.84,3.6a12.71,12.71,0,0,1,11.16-4.78c5.19.38,8.05,2.55,8.43,7.72.33,4.46-.17,9-.45,13.48C408.43,832.87,408,836.8,407.57,840.92Z"/><path d="M877.75,808.82c4.12-.58,7.74-.75,9.89,3.79,3-3.91,6.85-5.21,11.34-4.87,5,.38,7.75,2.58,8.16,7.55a88.39,88.39,0,0,1-.37,12.69c-.26,4.22-.73,8.43-1.11,12.56-7.38,1.89-9.8-.06-9.3-7.39.27-4.11.94-8.21.83-12.3-.05-1.71-1.78-4.86-2.51-4.79-2,.18-4.79,1.2-5.78,2.81-1.45,2.36-1.84,5.48-2.28,8.34-.67,4.44-1,8.94-1.47,13.38-7,1.77-9.75-.24-9.32-7.18C876.33,825.22,877.09,817.05,877.75,808.82Z"/><path d="M782.31,840.78c-7.7,1.17-9.73-.48-9.27-7.66.52-8.06,1.26-16.1,1.91-24.25,4.07-.66,7.65-.83,9.28,2.49,3.72-1.26,7.12-3.15,10.67-3.46,6.28-.56,9.4,2.47,9.65,8.85a115,115,0,0,1-.69,13.1c-.27,3.68-.71,7.34-1.07,10.93-8,1.24-9.73-.26-9.2-7.92.28-4.1.9-8.2.82-12.3,0-1.6-1.56-4.49-2.44-4.5-1.92,0-4.53.91-5.62,2.38-1.4,1.89-1.78,4.64-2.26,7.08-.52,2.6-.65,5.27-1,7.9Z"/><path d="M567.57,829.15c1.19,4.84,5.1,6.56,9,3.52,2.25-1.76,4.15-1.87,5.83.22,1.81,2.25,1.06,4.52-1,6.33-6,5.39-19.26,3.18-22.71-4-3.34-6.93-1.92-13.83,1.79-20.14,3.35-5.68,8.93-7.58,15.32-7.33,5.7.22,9.22,2.79,10,7.26.87,5.07-1.4,9.52-6.52,11.37C575.62,827.72,571.65,828.22,567.57,829.15Zm-.24-6.14,1,1.08c2-.76,4.47-1.07,5.9-2.45,1-.92.43-3.36.57-5.12-1.63.18-3.91-.25-4.76.66C568.68,818.67,568.2,821,567.33,823Z"/><path d="M155.74,829.58c.77,4.22,4.85,6.21,8.68,3.22,2.37-1.85,4.33-2.12,6.09.25s.84,4.55-1.2,6.3c-5.6,4.78-17.83,3.14-21.91-2.9-3.61-5.34-3-15.54,1.43-21.88,3.72-5.4,10.73-7.94,17.57-6.49,3.83.81,6.65,2.66,7.4,6.74s-.12,8.14-3.94,10C165.46,827,160.54,828,155.74,829.58Zm-.34-6.71.81,1.16c2-.7,4.47-.94,5.92-2.27a5.17,5.17,0,0,0,.72-5c-1.3-2.08-3.66-1.38-4.93.44C156.76,818.89,156.22,821,155.4,822.87Z"/><path d="M289.62,829.53c.66,4.18,4.81,6.27,8.62,3.32,2.34-1.82,4.3-2.22,6.1.14s.93,4.54-1.1,6.31c-5.51,4.81-17.81,3.23-21.93-2.79-3.64-5.3-3-15.5,1.34-21.89,3.7-5.42,10.7-8,17.55-6.55,3.83.79,6.69,2.6,7.46,6.67.81,4.3-.19,8.37-4.19,10.28C299.16,827.07,294.33,828,289.62,829.53Zm-.43-6.61,1,1.22c2.09-.84,4.54-1.28,6.15-2.69.88-.78.35-3.17.45-4.84-1.64.12-3.91-.39-4.76.49C290.63,818.58,290.1,820.93,289.19,822.92Z"/><path d="M72.81,829.58c1.18,4.48,5,6.12,8.94,3.06,2.27-1.77,4.16-1.81,5.81.29,1.79,2.28,1,4.53-1,6.33-5.42,4.83-17.79,3.29-21.94-2.69-3.66-5.28-3.07-15.47,1.27-21.89,3.67-5.44,10.66-8,17.53-6.63,3.81.78,6.7,2.55,7.5,6.63.83,4.29-.13,8.37-4.12,10.3C82.48,827.05,77.66,828,72.81,829.58Zm-.26-6.49,1,.9c1.83-.6,3.9-.86,5.41-1.92a5.79,5.79,0,0,0,1.78-3.93c.06-.73-1.4-2.23-2.17-2.23a5,5,0,0,0-3.66,1.59C73.75,819.12,73.29,821.21,72.55,823.09Z"/><path d="M110.26,820.37c-.3-3-1.32-5.27-4.68-4.52A3.75,3.75,0,0,0,103.1,818a3.46,3.46,0,0,0,1.49,2.81,36.27,36.27,0,0,0,5.43,2.41c5.06,2.09,7.42,5.4,7,9.89s-3.52,8.19-8.94,8.54c-4.25.28-8.64-.56-12.87-1.4-2.54-.5-3.72-2.58-2.49-5.22,1.1-2.36,2.75-2.69,5.23-1.66a22.41,22.41,0,0,0,6.89,1.33,2.83,2.83,0,0,0,2.27-1.61,3.21,3.21,0,0,0-1.45-2.45,32,32,0,0,0-4.67-2.16c-4.84-2.13-7-5.42-6.71-10.18s3-8.5,7.67-9.52a29.35,29.35,0,0,1,10.53-.28,6.31,6.31,0,0,1,5.23,7.66C116.9,819.92,114.13,820.68,110.26,820.37Z"/><path d="M605.87,820.28c-.3-3.34-1.67-5.35-5.14-4.3a3.34,3.34,0,0,0-2,2.12,3.12,3.12,0,0,0,1.3,2.55,46.21,46.21,0,0,0,5.77,2.61c5,2.11,7.36,5.45,6.92,10s-3.65,8.13-9.06,8.44c-4.25.25-8.64-.6-12.86-1.48-2.56-.53-3.59-2.67-2.32-5.28,1.17-2.41,2.87-2.48,5.28-1.5a22.17,22.17,0,0,0,6.9,1.26c.74.05,1.88-.95,2.21-1.73.2-.48-.6-1.76-1.27-2.16a46,46,0,0,0-5-2.35c-4.65-2.08-6.78-5.27-6.62-9.87s2.77-8.62,7.44-9.69a30,30,0,0,1,10.9-.34,6.36,6.36,0,0,1,5.11,7.75C612.75,819.28,610.59,820.5,605.87,820.28Z"/><path d="M941.36,820.36c-.27-3-1.32-5.26-4.67-4.5a3.68,3.68,0,0,0-2.47,2.15,3.49,3.49,0,0,0,1.5,2.8,36.27,36.27,0,0,0,5.43,2.41q7.61,3.15,7,9.9c-.4,4.62-3.55,8.18-9,8.53-4.25.27-8.64-.57-12.87-1.42-2.53-.5-3.7-2.58-2.47-5.22,1.11-2.37,2.77-2.71,5.24-1.63a19.52,19.52,0,0,0,6.49,1.34c.9,0,1.87-1.05,2.81-1.62-.63-.92-1.08-2.11-1.95-2.7a27.31,27.31,0,0,0-4.33-1.94c-4.84-2.13-7-5.41-6.7-10.18s3-8.5,7.68-9.52a29.81,29.81,0,0,1,10.53-.27,6.31,6.31,0,0,1,5.21,7.67C948,819.92,945.23,820.69,941.36,820.36Z"/><path d="M335.54,830.57a7.72,7.72,0,0,1-2.86,8.75,13.46,13.46,0,0,1-21.3-7.68,23.7,23.7,0,0,1,2-15.88c3.61-7.38,14.24-10.5,21.27-6.31a7.63,7.63,0,0,1,3.82,8.47c-.59,3.3-3.15,4.17-6.1,4.71-2.38.43-2.92-.39-3.25-2.59-.22-1.52-1.55-2.88-2.38-4.31-1.5,1.1-4,2-4.29,3.34a35.75,35.75,0,0,0-.8,11.29c.34,3.3,3.83,4.62,7.6,3.32A57.3,57.3,0,0,0,335.54,830.57Z"/><path d="M136.43,808.48h6.44c1.19,7-.08,8.12-7.25,8.25-.34,4-.79,8.06-1,12.13-.3,5.78,0,5.93,5.09,3.79,2,4.52.16,8.24-4.49,9.22-7,1.46-11.21-2-10.86-9.15.25-5.16.83-10.3,1.29-15.73l-4.35-1c.9-2.41,1.15-5.81,2.76-6.67,2.39-1.27,3-3,3.85-5,.94-2.19,1.14-5.21,4.83-4.53,3.54.65,3.65,3.33,3.69,6.07Z"/><path d="M268.66,816.7c-.34,4.27-.77,8.34-1,12.42-.28,5.53.12,5.75,5,3.5,2,3.81.73,7.48-3.08,8.85-7.07,2.54-12.39-1.19-12.16-8.6.09-2.65.47-5.29.68-7.93s.38-5.25.59-8.11l-3.7-.6c.17-3.44-.59-6.82,4.08-8.05,1-.28,1.54-2.88,2.14-4.47.87-2.3,1.56-4.66,4.87-3.89,3,.7,3.35,3,3.45,5.51,0,.91,0,1.82,0,3l6.67.45C276.86,815.45,276.16,816.22,268.66,816.7Z"/><path d="M1066.37,808.39l6.62.31c.78,6.55.28,7.1-7.5,8.22-.32,4.13-.75,8.33-1,12.54-.24,5.13.25,5.4,5.18,3,1.64,2.94,1.14,5.72-1.22,7.74-3,2.56-6.68,2.24-10.18,1-3.06-1.11-4.12-3.78-4-6.69.17-5,.72-10,1.09-15.08.06-.78,0-1.57,0-2.6l-3.56-.66c.16-3.34-.61-6.66,4-8,1.15-.33,1.69-3.08,2.32-4.79.83-2.25,1.69-4.23,4.71-3.58,2.81.6,3.34,2.69,3.49,5.07C1066.43,805.92,1066.37,807,1066.37,808.39Z"/><path d="M194.56,822.55a9.91,9.91,0,0,0-.16-2.65,32.7,32.7,0,0,0-1.75-3.44c-1,.91-2.68,1.68-2.92,2.76-.83,3.86-1.24,7.82-1.7,11.76-.38,3.26-.61,6.54-.9,9.71-7.58,1.39-9.79-.44-9.28-7.59.57-8.05,1.27-16.09,1.92-24.19,4-.69,7.46-.87,9.6,3.3,3.36-3.21,6.82-6.39,11.77-3.19,2.79,1.8,3.59,5.78,2.07,9.33S198.9,823.48,194.56,822.55Z"/><path d="M1018.81,812.26c5.11-4.75,8.51-5.7,11.78-3.3s3.44,5.52,2.32,8.93c-1.28,3.9-3.74,5.2-8.7,4.65a12.21,12.21,0,0,0-.29-2.95,20.31,20.31,0,0,0-1.65-3.12c-1,.76-2.61,1.35-2.84,2.29a85,85,0,0,0-1.76,10.53c-.45,3.8-.65,7.62-.95,11.32-7.48,1.61-9.82-.29-9.35-7.41.41-6.35.86-12.7,1.51-19,.2-1.9.78-5,1.83-5.33C1013.77,808,1017.13,808.32,1018.81,812.26Z"/><path d="M665.06,808.79c4.07-.41,7.64-.9,9.49,3.37,5.43-4.73,8.73-5.54,12-3.07,2.64,2,3.42,5.91,1.88,9.41s-4,4.73-8.57,3.83a16.12,16.12,0,0,0-.23-3.39c-.24-.89-.88-2.2-1.51-2.3a3,3,0,0,0-2.5,1.33,17.75,17.75,0,0,0-1.6,5.25c-.43,2.88-.53,5.8-.79,8.71s-.55,5.78-.82,8.6c-7,1.9-9.78-.21-9.3-7.19C663.69,825.18,664.41,817,665.06,808.79Z"/><path d="M463.09,807c-.58,7.39-1.23,14.77-1.66,22.17a6.43,6.43,0,0,0,1.23,4.3c2.69,2.94,2.31,6.14-1.31,7.89-4.85,2.35-10-.44-10.16-6-.17-4.34.46-8.71.76-13.07.48-7.13,1-14.26,1.5-21.39.15-2-.52-4.49,3-4.36,3.08.12,6.06.37,6.71,4.08a38.29,38.29,0,0,1,.06,6.34Z"/><path d="M733.22,807.06c-.57,7.25-1.32,14.5-1.59,21.77-.07,1.73,1.44,3.52,2.19,5.3.36.87,1,1.82.89,2.66-.38,3.21-2.48,4.93-5.59,5.16s-6.38-.21-7.21-4a28.2,28.2,0,0,1-.5-7.84c.62-9.77,1.4-19.54,2.19-29.3.14-1.79-.61-4.15,2.64-4.29,4-.16,6.67,1.16,7,4.18a51.38,51.38,0,0,1,.05,6.33Z"/><path d="M543.17,808.91c8.1-1,9.77.42,9.29,7.76-.52,8.05-1.18,16.08-1.77,24-7.85,1.43-10-.41-9.47-7.81C541.81,824.84,542.52,816.83,543.17,808.91Z"/><path d="M701.27,841c-8.43.59-10-.92-9.41-8.53.61-7.88,1.28-15.76,1.91-23.54,8.14-1,9.78.42,9.29,7.78C702.54,824.73,701.88,832.76,701.27,841Z"/><path d="M991.8,808.91c8.11-1,9.77.42,9.29,7.77-.53,8-1.18,16.08-1.77,24-7.87,1.41-10-.42-9.47-7.82C990.44,824.84,991.15,816.83,991.8,808.91Z"/><path d="M1044.71,841c-8.5.5-10-1-9.41-8.61s1.25-15.56,1.87-23.25c7.37-1.73,9.8.14,9.36,7.18C1046,824.51,1045.33,832.67,1044.71,841Z"/><path d="M697.75,805.34c-1.87-.15-4.12-.69-4-4,.08-2.89,2.49-4.76,6.15-4.77,2.63,0,4.8.73,5,3.82C705,803.31,702.21,805.41,697.75,805.34Z"/><path d="M1041.44,805.35c-1.92-.14-4.26-.53-4.27-3.83,0-3,2.58-5,6.4-4.93,2.67.07,4.73,1,4.74,4.06C1048.32,803.39,1045.61,805.35,1041.44,805.35Z"/><path d="M995.9,805.34c-1.88-.14-4.18-.6-4.15-3.89,0-3,2.65-5,6.46-4.86,2.69.09,4.72,1,4.68,4.12C1002.85,803.46,1000.13,805.38,995.9,805.34Z"/><path d="M547.27,805.34c-1.89-.14-4.19-.6-4.15-3.9,0-2.91,2.42-4.82,6.07-4.85,2.81,0,5.08.79,5.07,4.13C554.24,803.46,551.49,805.38,547.27,805.34Z"/></svg>