<svg id="Layer_1" data-name="Layer 1" xmlns="http://www.w3.org/2000/svg" viewBox="0 0 1080 1080"><title>Clients logo</title><path d="M518,612.18h-2.93q-36.66,0-73.33,0-42.83,0-85.64-.09c-3.23,0-5,1.4-6.31,4.16q-17.05,35.4-34.24,70.75c-3.64,7.53-7.34,15-10.85,22.61-10.17,22-26.12,38.54-47.12,50.41A123.18,123.18,0,0,1,212,774.82a176.35,176.35,0,0,1-22.14,1.32q-61.27,0-122.54,0c-.84,0-1.68-.16-2.78-.26a10.08,10.08,0,0,1,.6-1.8q19-32.31,38-64.64a5,5,0,0,1,4.86-2.77,107.1,107.1,0,0,0,32.86-4.33,58.06,58.06,0,0,0,12.18-5.17,38.61,38.61,0,0,0,13.58-12.73c7-10.86,14.19-21.65,21.27-32.48.69-1.05,1.28-2.16,2.13-3.61H48c-.76-1.38.15-2,.74-2.74q6.07-7.49,12.18-15,25.5-31.35,51-62.72a8,8,0,0,1,7-3.35q20,.23,40.05.18c13.82,0,27.66,0,41.48-.29,21.89-.51,39.3-9.78,52-27.61,5.75-8.05,11.55-16.08,16.77-24.47,6.15-9.85,15-15.6,25.73-19.13a81.69,81.69,0,0,1,25.4-3.89q24.6-.12,49.21-.11,21.22,0,42.45,0c2.41,0,4.83,0,7.24,0a25.29,25.29,0,0,1,2.64.38c-6.4,13.25-12.67,26.24-19.08,39.49a21.23,21.23,0,0,0,2.65.38q81.78,0,163.55,0c13,0,26.06-.18,39.08-.12,6.26,0,12.54.22,18.79.73a73.36,73.36,0,0,1,25.75,6.72,41.25,41.25,0,0,1,11.6,8.11c6.1,6.08,8.21,13.58,8,22a70.58,70.58,0,0,1-5.3,24.62c-4.14,10.37-8.56,20.64-12.88,30.94q-16.26,38.81-32.52,77.6c-.46,1.08-.79,2.21-1.28,3.61,1.37.13,2.38.3,3.39.3q16,0,32.08,0c2.9,0,2.91,0,4-2.74Q693.19,620,726.62,538.77q20.93-50.83,41.87-101.66c1.13-2.75,2.26-5.5,3.28-8.29a33.24,33.24,0,0,1,9.53-13.71,51.42,51.42,0,0,1,26.81-12.3,150.1,150.1,0,0,1,16.56-1.38A177.94,177.94,0,0,0,851,398.9a67.67,67.67,0,0,0,13.35-4.06c7.05-2.93,14.08-5.9,21.17-8.71a66.12,66.12,0,0,1,15.05-4.26,38.45,38.45,0,0,1,7.43-.37c5.19.28,7.18,3.38,5.32,8.22-3.08,8-6.27,16-9.42,24L853.47,542.06c-.29.73-.48,1.49-.89,2.75,1.32-.42,2.2-.66,3-1a237.11,237.11,0,0,1,32.81-9.62,165.68,165.68,0,0,1,35.64-3.92,101.1,101.1,0,0,1,24.61,2.94,63.31,63.31,0,0,1,36.62,25.08c11.84,16.44,16.83,34.81,15.52,55a121.26,121.26,0,0,1-10.66,41.83c-9.81,22-22.74,41.94-39.61,59.22a188.46,188.46,0,0,1-82.47,49.8,195.62,195.62,0,0,1-42.84,7.78c-5.93.4-11.88.7-17.83.7q-138.7.06-277.42,0c-7.31,0-14.63,0-21.93-.33a81.84,81.84,0,0,1-18.77-3c-5.18-1.43-10-3.58-13.86-7.58-.55.3-1.05.53-1.51.83-11.53,7.57-24.23,12.12-37.74,14.58a160.29,160.29,0,0,1-37,2.3c-12.39-.63-24.66-2.22-36.5-6.15a57.46,57.46,0,0,1-14-6.89c-13.12-8.8-19.64-21-19.37-36.89a55.06,55.06,0,0,1,6.2-24.55,42.19,42.19,0,0,1,8.35-11.14c16.43-15.91,35.84-26.77,57.45-33.88a225.13,225.13,0,0,1,39.23-8.76c10.58-1.47,21.2-2.74,31.75-4.39a86.37,86.37,0,0,0,14-3.42A47.72,47.72,0,0,0,510.05,626c2.5-3.43,4.54-7.2,6.74-10.84A23.12,23.12,0,0,0,518,612.18ZM785.61,701h2.76c4.9,0,9.81-.09,14.71,0a12.2,12.2,0,0,0,7.24-2.17c9.58-6.21,18.92-12.75,27.95-19.75a169.45,169.45,0,0,0,23.83-21.75A41.26,41.26,0,0,0,869,647.17a20.79,20.79,0,0,0-10-27.77c-5.68-2.77-11.61-2.94-17.66-1.66-9.35,2-17,7-23.78,13.51-7.12,6.82-12.26,15-16.72,23.75-6.75,13.18-11.15,27.17-14.46,41.54C786,697.86,785.9,699.22,785.61,701Zm-274.12-36c-1.24.3-1.94.4-2.58.63a142.79,142.79,0,0,0-23.83,10.9A57.25,57.25,0,0,0,472,686.58a21.1,21.1,0,0,0-4.53,7c-1.81,4.87-.77,9.52,3.23,12.84a25.35,25.35,0,0,0,6,3.5c5.71,2.48,10.78,1.32,15.19-3.07a43.07,43.07,0,0,0,6.91-9.22A123.2,123.2,0,0,0,509.45,672C510.1,669.81,510.7,667.66,511.49,664.94Z"/><path d="M520.41,353.24a16.66,16.66,0,0,1-.63,2.1,384.85,384.85,0,0,1-33.47,56.59c-11.27,15.62-26.08,26.64-43,35.31-13.29,6.81-27.37,11.08-42,13.86a365.57,365.57,0,0,1-46.66,5.45c-17,1-34.07,1.25-51.11,1.16-13.75-.07-27.5-.37-41.24-.45-20.75-.1-41.49-.25-62.23-.08-11.49.1-23,.59-34.46,1.28-20.48,1.25-40.8,3.72-60.69,9.06a231.23,231.23,0,0,0-30.36,10.93,282.06,282.06,0,0,1-33.54,12.06,38.8,38.8,0,0,1-30.5-3.57c-.7-.38-1.36-.81-2.3-1.38a16.55,16.55,0,0,1,1.45-2c23.35-23.28,46.84-46.4,71.82-68,4.69-4,9.5-7.94,14.21-12,12-10.26,26-16.79,41.24-20.61a212.36,212.36,0,0,1,32.56-5.34,441.19,441.19,0,0,1,51.8-1.69c14.22.38,28.44.93,42.66,1.54,23.05,1,46.07,2.64,69.16,2.62a543.87,543.87,0,0,0,55.62-2.81,444.19,444.19,0,0,0,120.14-29.54c2.91-1.17,5.79-2.4,8.69-3.58C518.36,354,519.11,353.72,520.41,353.24Z"/><path d="M1010.25,300.32A75.65,75.65,0,0,1,1048,310.53a49.2,49.2,0,0,1,16.51,15.25,39.44,39.44,0,0,1-1.37,47.41,56.52,56.52,0,0,1-26.16,18.62c-20.68,7.42-41,6.5-60.82-3.08a53.49,53.49,0,0,1-16.51-12.35c-8.09-9-12.08-19.41-11.13-31.57a36.31,36.31,0,0,1,4.19-14,50,50,0,0,1,21.87-21.74A79.74,79.74,0,0,1,1010.25,300.32Zm-1,87.5c11.38-.16,21.66-2.31,31.27-7.32a43.41,43.41,0,0,0,16.87-14.76c7.23-11.14,7.33-22.47.38-33.79A38,38,0,0,0,1046,319.78a65.69,65.69,0,0,0-33.37-10.54,67.21,67.21,0,0,0-33.7,7.68,40.08,40.08,0,0,0-18.67,18.81,28.35,28.35,0,0,0-.24,25.13,39.3,39.3,0,0,0,14,16.23C984.79,384.53,996.92,387.58,1009.29,387.82Z"/><path d="M1020.56,352.23c9.12,5.27,13.88,14.06,20.27,21.76a8.2,8.2,0,0,1-1.46.36c-4,0-8,0-12.06,0a3.42,3.42,0,0,1-2.9-1.37c-3.87-4.72-7.85-9.36-11.67-14.12-3.35-4.17-7.71-5.88-12.91-5.78-2.11,0-2.53.46-2.54,2.59,0,5.22,0,10.45,0,15.67,0,.49,0,1,0,1.45a1.4,1.4,0,0,1-1.5,1.52c-3.3,0-6.59,0-9.89,0-1,0-1.43-.6-1.52-1.51a15.71,15.71,0,0,1-.05-1.68V326.77c0-.32,0-.65,0-1,.1-2.07.33-2.37,2.42-2.39,3.94-.05,7.88,0,11.81,0,5.79,0,11.59-.05,17.37.15a48.32,48.32,0,0,1,9.53,1.17,13.34,13.34,0,0,1,10,16.86,11.46,11.46,0,0,1-6.09,7.43,70.2,70.2,0,0,1-7.2,2.64C1021.72,351.76,1021.37,351.91,1020.56,352.23Zm-12.9-20v-.06c-2.8,0-5.61,0-8.42,0-1.7,0-1.93.29-2,2-.06,2.81-.07,5.61,0,8.42,0,1.91.33,2.23,2.28,2.24,5,0,10.11.07,15.15-.12a12.28,12.28,0,0,0,5.05-1.31,5.58,5.58,0,0,0,0-9.94,12.73,12.73,0,0,0-4.82-1.2C1012.49,332.1,1010.07,332.25,1007.66,332.25Z"/></svg>