<svg id="Layer_1" data-name="Layer 1" xmlns="http://www.w3.org/2000/svg" viewBox="0 0 1080 1080"><title>Clients logo</title><path d="M139.55,441c-.86,10.48-1.68,20.51-2.55,31.12-7-.72-13.86-1.67-20.71-2.07-15.29-.88-30.6-1.65-45.91-2.09-3.44-.1-7,1-10.38,2.06-9.79,3-15.59,9.59-16.51,19.95s2.29,19.18,12.23,23.63c9.42,4.21,19.32,7.35,29,10.9,9.45,3.45,19.1,6.41,28.36,10.3,18.31,7.68,28.93,21.1,30.42,41.48,1,13.53.47,26.77-4.89,39.32-8.75,20.46-25.68,29.85-46.72,33.12-17.21,2.68-34.27.45-51.29-2C33.06,645.6,25.56,644,18,642.91c-2.72-.39-3.68-1.38-3.37-4.1q1.49-12.9,2.7-25.83c.27-2.85,2-2,3.69-1.83,18.81,1.6,37.61,3.25,56.43,4.6a44.11,44.11,0,0,0,11.42-1.07c16.46-3.22,22.37-14.08,21-31.17-.75-9.6-6.62-15.66-15-19-8.53-3.42-17.38-6.08-26.2-8.73-12.11-3.64-24.15-7.41-35.06-14C19.17,533,12,519.92,10.33,503.25c-1-10.46-.69-20.75,2.35-30.79,6.34-21,21.71-31.81,42.15-36.62,16.88-4,33.87-2.82,50.82-.51,10.12,1.38,20.18,3.16,30.26,4.78C137,440.29,138.08,440.65,139.55,441Z"/><path d="M379.83,552.48c-.46-5.56-.27-11-1.48-16.1-1.69-7.12-7.65-11.51-15.18-11.31-17.61.46-35.21,1.26-52.79,2.15-5.39.28-5.32.59-5.49-5-.18-6.25-.41-12.5-.84-18.74-.23-3.45.31-5.12,4.48-5.72,20.24-3,40.42-6.56,61-5.53,15.45.78,29.56,5.31,36.61,20.54a61.09,61.09,0,0,1,5.64,22.87c.78,22.16.33,44.36.41,66.54,0,2.54.36,5.08.57,7.63.45,5.4,3.18,8.84,8.45,10.52a4.68,4.68,0,0,1,2.72,3.32c.23,8.49.12,17,.12,26-13.53.38-25.61,0-36.07-7.63-2.75-2-4.94-2.16-8.08-1-15,5.52-30.3,9.61-46.51,8.75-19.15-1-31.36-10.92-36.34-29.56a69.51,69.51,0,0,1-.52-34.56c4-16.6,15.8-25,31.62-27.62,13.4-2.26,27.06-3,40.6-4.43C372.08,553.22,375.46,552.91,379.83,552.48Zm-.4,26.65c-12.31.8-23.93,1.18-35.46,2.42-9.48,1-14.71,6.57-16,16a35.51,35.51,0,0,0,.45,10.12c1.39,8.72,7.24,13.93,16,13,10.8-1.18,21.49-3.46,32.19-5.45,1-.19,2.63-1.66,2.65-2.55C379.49,601.78,379.43,590.88,379.43,579.13Z"/><path d="M540.58,527.39v-29c7-1.1,14.69-2.72,22.41-3.4,14.13-1.24,28.34-3,42.46-2.59,20.51.57,36,9.19,40.81,33a104.8,104.8,0,0,1,1.61,19.49c.2,19.2.06,38.39.09,57.59,0,2.41.17,4.83.37,7.23.44,5.18,2.91,9,8.06,10.32,2.89.75,3.37,2.31,3.23,4.89-.39,7.24-.7,14.48-.85,21.72,0,2.68-1.09,3.25-3.62,3.23-12.12-.1-23.82-1.39-33.85-9.24-.95-.75-3.21-.38-4.64.12-13.56,4.77-27.3,8.39-41.81,9.16-24.27,1.27-41.84-13.41-43.74-37.7-.58-7.45-.83-15.14.3-22.48,2.76-18,13.36-28.49,32.46-31.73,13.26-2.25,26.78-3,40.18-4.41.28,0,.57,0,.85,0,10.7-.43,11.81-1.81,10.22-12.58C613.49,530,607.74,524.7,596.74,525c-17.46.53-34.91,1.54-52.36,2.34C543.42,527.43,542.46,527.39,540.58,527.39Zm74.75,69.79c0-4.84-.05-9.67,0-14.51,0-2.19-.4-3.41-3.11-3.21-10.48.73-21,1-31.47,1.94-11.18,1-17.47,8.19-17.45,19.28a47.54,47.54,0,0,0,.56,5.94c1.2,9.47,7.41,15.15,16.89,14.06,10.53-1.21,20.93-3.54,31.41-5.32,2.42-.41,3.25-1.7,3.19-4.1C615.23,606.57,615.33,601.87,615.33,597.18Z"/><path d="M167.63,527.42v-29c7-1.09,14.59-2.72,22.3-3.4,14.27-1.24,28.58-2.51,42.88-2.6,6.46,0,13.25,1.91,19.32,4.37,13.27,5.37,19.29,16.63,21.51,30.09A112.28,112.28,0,0,1,275,544.24c.16,19.34,0,38.68.08,58,0,2.41.17,4.83.37,7.23.44,5.33,2.93,9.17,8.28,10.61,2.29.62,3.19,1.67,3,4.16-.45,7.51-.71,15-.88,22.57-.06,2.47-1,3-3.39,3-12.1-.11-23.82-1.3-33.9-9.1-1.05-.82-3.47-.45-5,.08-13.45,4.65-27,8.29-41.41,9-24.5,1.25-41.73-13-43.91-37.49a92.7,92.7,0,0,1,.36-22.89c2.95-18,13.18-28.18,32.19-31.47,13.39-2.32,27.06-3,40.6-4.45.29,0,.57,0,.86,0,12.46-1.44,10.35,1,10-11.55-.32-11.15-7.14-17.29-18.22-17-17.6.54-35.19,1.57-52.78,2.38C170.42,527.46,169.59,527.42,167.63,527.42Zm74.8,69.7c0-4.83,0-9.67,0-14.5,0-1.86-.11-3.35-2.71-3.18-10.91.72-21.87.95-32.74,2.09-7.68.81-14,4.7-15.62,12.89a38.59,38.59,0,0,0,.17,14.33c1.65,8.47,7.4,12.92,16,11.94,10.67-1.23,21.21-3.55,31.82-5.33,2.48-.42,3.18-1.82,3.12-4.16C242.35,606.51,242.43,601.81,242.43,597.12Z"/><path d="M1067.89,585.61h-5.29c-26.44,0-52.87.1-79.31-.1-4.29,0-4.94,1.55-4.62,5.24,1.76,19.89,13,29.16,34.48,28.18,15.6-.71,31.2-1.51,46.8-2.25,1.4-.07,2.8,0,4.91,0v26.27c-6.75,1.22-14.06,2.74-21.44,3.83-15.32,2.27-30.71,4.05-46.22,2.78-22.16-1.81-38.82-11.3-46.32-35.44a98,98,0,0,1-4-18.66c-2-18.85-2.21-37.73,2.32-56.31,4.37-18,12.65-33.58,30.45-41.28,21-9.07,42.48-8.53,63,1.48,15.22,7.4,22.08,21.4,25.53,37.32C1071.66,552.77,1070,568.85,1067.89,585.61ZM1038,558.8c-.73-12.65-.14-25.71-12.56-32.48-11.73-6.39-24.71-6.37-35.92,1.54-10.37,7.31-10.68,19.12-10.93,30.94Z"/><path d="M705.54,612.51c2.39.13,4.34.33,6.29.34,22.18,0,44.36.1,66.54-.07,4.1,0,5.46,1.23,5.32,5.34-.27,8.09-.17,16.2,0,24.31.05,3.12-1.09,4.23-4.22,4.23q-51.83-.1-103.64,0c-3.23,0-4-1.11-4-4.23q.13-100.65,0-201.3c0-3.27,1.08-4.16,4.15-4.11,8.24.15,16.49.23,24.73,0,3.92-.12,5,1.15,5,5.07q-.2,82.31-.09,164.62Z"/><path d="M943.61,460.3c-7.69,0-14.63,0-21.58,0-11.9,0-16.87,4.62-17.69,16.45-.35,4.95-.4,9.93-.73,14.88-.19,2.95.92,4,3.92,3.95,9.94-.15,19.9.07,29.84-.12,3.22-.06,4.22,1,4.16,4.13-.17,7.53-.16,15.07,0,22.6.06,3.21-1.25,4.19-4.3,4.15-9.38-.12-18.77.14-28.14-.12-4.19-.11-5.57,1-5.55,5.47.19,36.38.11,72.77.1,109.16,0,5.75,0,5.76-5.87,5.77-7.25,0-14.5-.18-21.74.07-3.81.14-4.78-1.2-4.77-4.89.13-36.53.08-73.06.08-109.59,0-5.88,0-5.89-5.77-5.9-6.52,0-13,0-20.43,0,1.24-1.46,1.88-2.28,2.59-3a36,36,0,0,0,10-22.94c.27-3.91,1.61-4.95,5.41-4.9,9.16.13,7.8,1.5,8.28-8,.54-10.73.76-21.62,2.79-32.12,3.23-16.6,14-25.26,31-25.27,11.87,0,23.75,1.5,35.61,2.55a4,4,0,0,1,2.63,2.85C943.7,443.78,943.61,452.13,943.61,460.3Z"/><path d="M477.8,495.54V511c7.46-4,14.21-8.21,21.39-11.44s14.51-5.4,22.33-8.23c.25,2.06.48,3.11.48,4.16,0,9.81-.09,19.62.08,29.43.06,2.87-1.14,3.64-3.66,4.51-12.45,4.25-24.77,8.86-37.17,13.26-2.92,1-3.61,2.92-3.6,5.85.09,31,0,62,.15,93,0,4.19-1.23,5.38-5.28,5.2-7-.3-13.93-.08-20.9-.08-6.38,0-6.39,0-6.39-6.24q0-61.85,0-123.69,0-9,0-17.92c0-1.89.32-3.28,2.78-3.26C457.68,495.58,467.33,495.54,477.8,495.54Z"/><path d="M803.59,542.4c11.44,1,22-1.49,32.45-7.85V539c0,34.25-.08,68.49.1,102.73,0,4.06-1.26,5.08-5,5-8.09-.23-16.19-.11-24.29-.06-2.32,0-3.67-.46-3.66-3.29q.14-49.67.11-99.32A12.92,12.92,0,0,1,803.59,542.4Z"/><path d="M834.23,442c7.06,7.9,10.48,16.69,12.42,26.05,3.76,18.09.42,34.79-11.49,49.16-6.08,7.32-14.21,10.58-23.94,9a15.79,15.79,0,0,0-3.87.33c-.41-5.12,1.38-9.82,4.32-14.13,5.67-8.34,11.69-16.45,17-25,3-4.88,5-10.42,7.35-15.73.53-1.21.43-2.69.7-4.62-.86.6-1.34.74-1.42,1-3.1,10.62-9.28,19.42-16.54,27.51-6.67,7.44-13,15-15.57,25.56a14.72,14.72,0,0,1-6.8-11.08c-1.66-12.89,2.58-23.82,11.66-32.86,5.43-5.41,11.33-10.35,16.81-15.71A30,30,0,0,0,834.23,442Z"/></svg>