<svg id="Layer_1" data-name="Layer 1" xmlns="http://www.w3.org/2000/svg" viewBox="0 0 1080 1080"><title>Clients logo</title><path d="M543.81,212c5.87,1.5,10.21,5.19,14.41,9.38q129.63,129.75,259.4,259.35c4.31,4.3,7.14,9.1,7.39,15.31.26,6.58-2.23,12-6.79,16.52l-22,22Q687.61,643.17,579.05,751.71c-7.57,7.57-15.46,14.83-22.72,22.68-9.06,9.8-23.23,9.44-32.58.06Q406.53,656.81,288.93,539.52q-13.28-13.24-26.61-26.43c-4.63-4.59-7.45-9.92-7.29-16.65a20.44,20.44,0,0,1,5-13.08c.89-1.05,1.89-2,2.86-3Q392.35,350.93,521.8,221.45c4.2-4.2,8.53-7.9,14.39-9.42ZM521,458.42H582.2c.07-1.43.2-2.67.18-3.91-.1-11.86.07-23.74-.44-35.58-.46-10.45-1.28-20.93-2.68-31.3-3.41-25.27-18.34-41.29-41.87-49.5-15-5.24-30.6-5.4-46.14-2.56-26.8,4.89-47.44,25.52-51.59,52.45a240,240,0,0,0-2.42,35.76q-.19,57,.59,114.09a205.87,205.87,0,0,0,3.23,30.59c4.1,24.83,19.06,40.15,42.92,47.13,8.91,2.61,18.07,3.37,27.33,3.32,18.38-.11,34.79-5.35,48.55-18,8.89-8.16,15.47-17.7,18-29.62A102.82,102.82,0,0,0,580.49,555c.86-16.07,1.31-32.16,1.89-48.24,0-1-.14-2-.21-3.14H521c0,1.6,0,3,0,4.31-.2,16.2-.33,32.4-.67,48.6a40.89,40.89,0,0,1-1.48,9.7c-1.16,4.25-4.13,6.27-8.42,6.41-5.86.19-9.39-2.28-10.31-8.1a110.49,110.49,0,0,1-1.45-16.73q-.16-71.06,0-142.09c0-1.9-.05-3.82.14-5.71a119.82,119.82,0,0,1,1.62-12.58c1.08-5.11,4.74-7.64,9.95-7.54s8.49,2.75,9.32,8.14a89.2,89.2,0,0,1,1.18,12.63c.16,17.8.13,35.6.17,53.4Zm92.91,138-.7,0C611.47,586.18,609.74,576,608,566H587.73c.27,1.38.44,2.41.68,3.42,3,12.88,6.13,25.75,9.09,38.64a12.76,12.76,0,0,1,.13,5.29c-2.49,11.91-5.15,23.8-7.73,35.69-.76,3.49-1.44,7-2.22,10.79H608.1q2.56-15,5.11-29.9h.57c1.73,10,3.47,20,5.18,29.85h23.77c-.24-1.25-.4-2.18-.62-3.09-3.41-14.1-6.79-28.2-10.29-42.28a15.12,15.12,0,0,1-.11-7.17c2.65-11.88,5.23-23.78,7.82-35.68.39-1.82.69-3.67,1.07-5.7H618.89C617.22,576.08,615.55,586.23,613.89,596.39Z"/><path d="M11.67,829.36c.38-1.1.73-2.2,1.12-3.3,3.55-10,10.67-15.95,21.06-17.53,9.81-1.48,18.18,1.63,24.63,9.36.53.64.93,1.39,1.69,2.56l-10,5.84c-7.66-7.06-17.23-7.8-22.72-2-5.1,5.43-5,16.36.25,21.6,5.64,5.67,15,4.86,22.38-2,.77.39,1.62.78,2.43,1.24C55,846.54,57.39,848,60,849.5c-1.25,3.34-3.69,5.4-6.19,7.25a26.64,26.64,0,0,1-41.15-13.26c-.29-.9-.63-1.79-.95-2.68Z"/><path d="M1068.33,857.34c-3.09,4.29-6.26,5.51-9.82,3.79a7.39,7.39,0,0,1-4.21-6.86,7.26,7.26,0,0,1,4.58-6.31,7.08,7.08,0,0,1,7.84,1.72c.58.6,1.07,1.29,1.61,1.93Z"/><path d="M125.37,809.38h12v51a10.24,10.24,0,0,1-1.74.34c-2.33,0-4.65,0-7.32,0-6.18-8.69-12.39-17.45-18.61-26.2l-.56.15v25.78H97.57c-.86-2.29-1.12-46.65-.24-51h9l18.54,26,.54-.18Z"/><path d="M202.62,835.1A26.63,26.63,0,1,1,176,808.23,26.59,26.59,0,0,1,202.62,835.1Zm-40.94,0c0,8.87,5.67,14.6,14.37,14.59s14.27-5.83,14.25-14.71-5.68-14.62-14.36-14.6S161.66,826.22,161.68,835.1Z"/><path d="M517.8,860.52V809.39h9.08L545,835l.62-.07V809.46h12.18v51h-9.07l-18.31-25.75-.62.14v25.65Z"/><path d="M1001.8,860.71v-51.1a11.17,11.17,0,0,1,2.3-.5c7,.08,14-.14,20.91.41,10.9.85,19.45,8.86,21.69,19.64,2.81,13.5-4.19,26.37-16.65,30.41a21.55,21.55,0,0,1-6.21,1.09C1016.67,860.79,1009.49,860.71,1001.8,860.71Zm12.26-39.36v27.42c3.81,0,7.41.34,10.92-.09a10.9,10.9,0,0,0,9.11-7,17.2,17.2,0,0,0,.11-13,10.81,10.81,0,0,0-8.92-7.24C1021.68,821,1018,821.35,1014.06,821.35Z"/><path d="M285.84,842.05c3.48,6.12,6.85,12.05,10.5,18.45H283.26l-9.35-16.16h-5.17v16.15h-12V809.73a4,4,0,0,1,1.25-.51c7,0,14-.33,20.93.24a17,17,0,0,1,15.51,13.36c1.73,7-.88,13.48-7.33,18.24C286.77,841.31,286.44,841.58,285.84,842.05ZM269,832.74a8.1,8.1,0,0,0,1.4.34c2.22,0,4.44.09,6.65,0,3.22-.11,5.07-1.89,5.41-5.05.4-3.72-1.11-6.58-4.29-7-3-.4-6-.08-9.17-.08Z"/><path d="M490.74,809.34c5.78,17.1,11.47,33.91,17.29,51.11H494.87c-.89-2.32-1.81-4.76-2.78-7.31H473.94l-2.65,7.39H458c5.84-17.25,11.56-34.13,17.33-51.19ZM483,824l-5.35,17h10.76Z"/><path d="M670.39,860.53H657.21c-.86-2.33-1.75-4.77-2.71-7.37H636.28l-2.7,7.39H620.39c5.82-17.24,11.52-34.09,17.3-51.17h15.38C658.79,826.26,664.53,843.21,670.39,860.53Zm-24.68-35.46-.69.11c-1.64,5.2-3.29,10.4-5,15.82h10.75C649,835.42,647.35,830.25,645.71,825.07Z"/><path d="M585.23,829.31l14-20H613.2l-17.2,25c5.91,8.69,11.7,17.21,17.81,26.18H599.9l-14.84-21.45-.67.14v21.24H572.7c-1-2.34-1.25-47.12-.21-51.1h11.82v19.73Z"/><path d="M307.41,809.4H339V821H319.76v7.73h17.3v11.79H319.71v8.45h19.71v11.55h-32Z"/><path d="M739.5,844.76v15.77H727.06c-.13-17,0-33.94,0-50.53.72-.45.9-.66,1.07-.66,7.49.07,15.06-.49,22.45.43,8.11,1,15.06,8.83,14.1,19.27a17.89,17.89,0,0,1-16.8,15.71C745.3,844.83,742.78,844.76,739.5,844.76Zm.26-12.06a9.28,9.28,0,0,0,1.57.37c1.8,0,3.59.1,5.39,0,3.38-.13,5.3-2,5.58-5.24.33-3.74-1.19-6.32-4.56-6.81a57,57,0,0,0-8-.08Z"/><path d="M369.78,846.55l-8.25,14H347.66c5.21-9,10.14-17.54,15.12-26.17l-14.43-25h13.82l7.63,12.91c2.65-4.48,5.08-8.61,7.59-12.87h13.84c-5,8.68-9.7,16.78-14.42,25l15.08,26.19H378.08Z"/><path d="M802.7,860.57H787.26l-16.6-51.08a52.67,52.67,0,0,1,13.33-.1c3.57,11.84,7.1,23.56,10.64,35.28l.62.09c3.55-11.74,7.1-23.48,10.7-35.41h13.36C813.7,826.63,808.21,843.56,802.7,860.57Z"/><path d="M220.65,821.14H208.28V809.87c2.4-1.08,34.62-1.19,37.87,0V821H233.24v39.44H221.05C220.45,847.58,221.14,834.64,220.65,821.14Z"/><path d="M850.49,860.55H838.35c-.65-13,.09-25.93-.41-39.31H825.55V809.87c2.23-1,33.65-1.24,37.76-.22v11.47H850.49Z"/><path d="M991.25,809.4V821H978.32v39.48H966.1V821.26H953.33V809.4Z"/><path d="M921.17,809.32h12v39.56h17.94v11.58h-30Z"/><path d="M432.67,809.42v39.49H450.3v11.57H420.61V809.42Z"/><path d="M705.74,802.15h10.61c-10.13,34.46-9.86,32.23,0,65.82H706C695.15,851.55,694,821.58,705.74,802.15Z"/><path d="M870.15,868c10.56-22.1,10.63-43.74.05-65.73h11.08c10.77,18.1,11.68,45,.07,65.73Z"/><path d="M71,809.41H82.78v51.1H71Z"/></svg>