<svg id="Layer_1" data-name="Layer 1" xmlns="http://www.w3.org/2000/svg" viewBox="0 0 1080 1080"><defs><style>.cls-1{fill:#070723;}</style></defs><title>Social media logos</title><path class="cls-1" d="M540,106.14c141.31,0,158,.53,213.85,3.08,51.6,2.35,79.62,11,98.27,18.22C876.82,137,894.45,148.51,913,167s30,36.15,39.59,60.85c7.24,18.65,15.86,46.67,18.22,98.27,2.55,55.81,3.08,72.54,3.08,213.85s-.53,158-3.08,213.85c-2.36,51.6-11,79.62-18.22,98.27C943,876.82,931.49,894.45,913,913s-36.15,30-60.85,39.59c-18.65,7.24-46.67,15.87-98.27,18.22-55.8,2.55-72.53,3.08-213.85,3.08s-158-.53-213.85-3.08c-51.6-2.35-79.62-11-98.27-18.22C203.18,943,185.55,931.49,167,913s-30-36.15-39.59-60.85c-7.24-18.65-15.87-46.67-18.22-98.27-2.55-55.81-3.08-72.54-3.08-213.85s.53-158,3.08-213.85c2.35-51.6,11-79.62,18.22-98.27C137,203.18,148.51,185.55,167,167s36.15-30,60.85-39.59c18.65-7.24,46.67-15.87,98.27-18.22,55.8-2.55,72.54-3.08,213.85-3.08m0-95.36c-143.73,0-161.75.61-218.2,3.18S227,25.48,193.34,38.56C158.54,52.09,129,70.18,99.6,99.6s-47.51,58.94-61,93.74C25.48,227,16.53,265.47,14,321.8S10.78,396.27,10.78,540,11.39,701.75,14,758.2,25.48,853,38.56,886.66c13.53,34.8,31.62,64.31,61,93.74s58.94,47.51,93.74,61c33.66,13.08,72.13,22,128.46,24.6s74.47,3.18,218.2,3.18,161.75-.61,218.2-3.18,94.8-11.52,128.46-24.6c34.8-13.53,64.31-31.62,93.74-61s47.51-58.94,61-93.74c13.08-33.66,22-72.13,24.6-128.46s3.18-74.47,3.18-218.2-.61-161.75-3.18-218.2-11.52-94.8-24.6-128.46c-13.53-34.8-31.62-64.31-61-93.74s-58.94-47.51-93.74-61C853,25.48,814.53,16.53,758.2,14S683.73,10.78,540,10.78Z"/><path class="cls-1" d="M540,268.24c-150.09,0-271.76,121.67-271.76,271.76S389.91,811.76,540,811.76,811.76,690.09,811.76,540,690.09,268.24,540,268.24Zm0,448.17A176.41,176.41,0,1,1,716.41,540,176.41,176.41,0,0,1,540,716.41Z"/><circle class="cls-1" cx="822.5" cy="257.5" r="63.51"/></svg>