<svg id="Layer_1" data-name="Layer 1" xmlns="http://www.w3.org/2000/svg" viewBox="0 0 1080 1080"><defs><style>.cls-1{fill:#fff;}</style></defs><title>Social media logos</title><path class="cls-1" d="M595.74,457.29c14.78-16.61,27-33.49,42.16-47.8,46.69-44,101.92-66.21,166.41-65.66,35.43.3,70.47,2.86,104.63,12.73,78.15,22.6,123.57,76.4,145.22,152.74,16.24,57.25,19.24,116,19.34,175,.22,124.38-.36,248.76-.09,373.13,0,11.64-3.23,14.7-14.7,14.61q-96.11-.79-192.22,0c-11.28.1-13.71-3.39-13.68-14q.54-177.51.07-355c-.1-29.65-2-59.29-10.31-88.13-15.33-53.12-53.35-80.18-109-77.24-76,4-115.49,41.63-125.18,118.9A440.23,440.23,0,0,0,605,712c.09,115.1-.12,230.2.3,345.3,0,11.47-2.83,14.86-14.56,14.75q-96.79-.86-193.62,0c-10.35.07-13.34-2.72-13.32-13.18q.42-341.82,0-683.63c0-11.28,3.68-13.89,14.34-13.81q91.94.67,183.87,0c11.28-.1,14.19,3.55,14,14.23C595.32,402.8,595.74,430.05,595.74,457.29Z"/><path class="cls-1" d="M244.66,717.71c0,112.74-.19,225.47.27,338.21,0,12.53-3.07,16.31-16,16.17-64-.7-128.1-.54-192.15-.09-10.27.07-13.36-2.5-13.35-13.11q.46-342.38.06-684.75c0-9.45,2.28-12.82,12.31-12.75,65,.42,130,.55,194.94-.08,12.48-.12,14.18,4.72,14.15,15.42Q244.39,547.22,244.66,717.71Z"/><path class="cls-1" d="M262.32,135.19c.08,70.78-57.38,128.44-128,128.47C64.62,263.68,6.68,206,6.45,136.3,6.22,65.84,64.12,7.84,134.6,7.9,204.58,8,262.25,65.45,262.32,135.19Z"/></svg>