<svg id="Layer_1" data-name="Layer 1" xmlns="http://www.w3.org/2000/svg" viewBox="0 0 1080 1080"><defs><style>.cls-1{fill:#070723;}</style></defs><title>Social media logos</title><path class="cls-1" d="M8.62,1073c20.83-76.2,39.88-150.57,61.83-224.07,9.18-30.72,9.06-56-5.81-86.62C-77.44,470.15,84.23,113.67,396.27,27.3,679.17-51,964,103.13,1048.67,385c86.08,286.64-81.23,576.33-356.06,657.9-135.61,40.26-266.76,26.51-393.33-36a36.21,36.21,0,0,0-23.1-2.36c-84.16,21.7-168.12,44.15-252.16,66.3C20.05,1071.81,15.85,1072,8.62,1073Zm127-124.71c51.88-13.45,100.07-25.24,147.76-38.77,13.35-3.78,23.16-2,34.76,4.73q159.93,92.65,339.06,45.89c232.38-61.08,373.91-309,308.72-540.24C895.61,170.37,635.16,33.24,392.19,123.33,223.66,185.81,127.43,312.16,104.87,490.5,92.12,591.27,116.36,685.88,171.05,772c6,9.45,8.33,17.67,4.84,29.5C161.91,849,149.58,897,135.67,948.3Z"/><path class="cls-1" d="M273.41,415.34c-1.1-41.17,15.51-77.27,45.8-107.58,15.23-15.25,53.67-23.31,73.07-13.94,6.24,3,12,10,14.86,16.54,15.29,34.61,30.33,69.37,43.68,104.76,2.82,7.47.65,19.17-3.53,26.45-8.19,14.27-18.93,27.19-29.55,39.9-8.4,10-9.55,19.29-2.72,30.63,43,71.43,102.6,123.27,180.18,154.33,11.73,4.7,20.62,2.29,28.26-7.24,12.22-15.26,25.14-30,36.56-45.83,8.67-12,18.89-16.15,32.06-10C728,620.2,763.71,637.3,799.15,655c4.44,2.21,9.38,8.51,9.65,13.16,2,33.76-4.07,64.85-32.59,87.65-42.6,34.06-90.15,41.84-142.11,28-151.48-40.2-254.75-140.18-333.22-270.14C283.32,484.63,272.83,452.37,273.41,415.34Z"/></svg>