<svg id="Layer_1" data-name="Layer 1" xmlns="http://www.w3.org/2000/svg" xmlns:xlink="http://www.w3.org/1999/xlink" viewBox="0 0 500 500"><defs><style>.cls-1{fill:url(#linear-gradient);}.cls-2{fill:#2f80ed;}</style><linearGradient id="linear-gradient" x1="70.13" y1="244.57" x2="158.24" y2="244.57" gradientUnits="userSpaceOnUse"><stop offset="0" stop-color="#56ccf2"/><stop offset="1" stop-color="#2f80ed"/></linearGradient></defs><title>logo</title><path class="cls-1" d="M100.09,328.09a2.1,2.1,0,0,1-1.21-.39,73.25,73.25,0,0,1-20-24.18c-7.33-14.22-12.62-37.2,3.83-65.86,13-22.68,17.66-36.72,15.06-45.52-2.14-7.25-9.36-11-18.51-15.68-2.58-1.34-5.25-2.71-8-4.27a2.09,2.09,0,0,1,.43-3.81l1.68-.51c11.59-3.53,46.85-14.25,68.07,1.62,11.37,8.5,17,23.23,16.87,43.79-.54,62.81-.12,79.83,0,82.76,0,.1,0,.2,0,.3v.41a31.49,31.49,0,1,1-11.68-24.89,2.08,2.08,0,1,1-2.62,3.23,27.34,27.34,0,1,0,10.13,21.57c0-1.33-.58-15.45,0-83.41.16-19.17-5-32.77-15.2-40.43-18-13.44-48-5.83-61.29-1.89l3.53,1.83c9.63,5,17.95,9.25,20.6,18.2,3,10.12-1.64,24.7-15.45,48.77-12.42,21.65-13.71,42.42-3.82,61.74a70.23,70.23,0,0,0,18.86,22.85,2.08,2.08,0,0,1,.47,2.9A2.05,2.05,0,0,1,100.09,328.09Z"/><path class="cls-2" d="M205,211.66v52.18h-2.23v-7.59a15.4,15.4,0,0,1-6,6.09,16.18,16.18,0,0,1-8.14,2.26,16.42,16.42,0,1,1,0-32.83,16.5,16.5,0,0,1,8.32,2.29,14.22,14.22,0,0,1,5.87,6.12V211.66Zm-30.75,36.56a14,14,0,0,0,4.18,10.16,13.53,13.53,0,0,0,10.05,4.27,14.6,14.6,0,0,0,14.43-14.4,14,14,0,0,0-4.28-10.19,13.71,13.71,0,0,0-10.12-4.35A13.56,13.56,0,0,0,178.45,238,14.08,14.08,0,0,0,174.24,248.22Z"/><path class="cls-2" d="M229,264.67h-.63a15.68,15.68,0,0,1-11.51-5,16,16,0,0,1-4.9-11.59,15.57,15.57,0,0,1,4.87-11.44,16.39,16.39,0,0,1,12-4.83,16,16,0,0,1,12.31,5.7l-21.84,21.57q4.52,3.61,8.7,3.61a14.57,14.57,0,0,0,7.47-1.91A16.4,16.4,0,0,0,241,255.7v3.54A15.62,15.62,0,0,1,229,264.67Zm-.73-30.89a14.65,14.65,0,0,0-14.09,14.13,14.26,14.26,0,0,0,3.69,9.74l20.24-20.11A14.57,14.57,0,0,0,228.26,233.78Z"/><path class="cls-2" d="M254.59,233.64a4.79,4.79,0,0,0-3.2,1.19,3.68,3.68,0,0,0-1.39,2.92,4.33,4.33,0,0,0,1.56,3.2,19.34,19.34,0,0,0,3.76,2.68q2.19,1.22,4.42,2.61a13.45,13.45,0,0,1,3.79,3.54,8.23,8.23,0,0,1,1.56,4.94,9.2,9.2,0,0,1-3.09,7,10.55,10.55,0,0,1-7.48,2.89,11.32,11.32,0,0,1-5.18-1.22,7.91,7.91,0,0,1-3.51-3.23v-3.34q2.64,5.85,8.48,5.84a8.79,8.79,0,0,0,6.09-2.22,6.63,6.63,0,0,0,2.47-5,6.94,6.94,0,0,0-1.57-4.62,14.42,14.42,0,0,0-3.79-3.2L253.09,245a14.48,14.48,0,0,1-3.75-3.13,6.43,6.43,0,0,1-1.57-4.31,5.3,5.3,0,0,1,2-4.18,7.53,7.53,0,0,1,5.11-1.7,7,7,0,0,1,5.36,2.43V237A6.62,6.62,0,0,0,254.59,233.64Z"/><path class="cls-2" d="M273.72,225c-1.35,0-2-.63-2-1.88s.67-1.88,2-1.88,2,.63,2,1.88S275.06,225,273.72,225Zm1.11,7.65v31.24h-2.22V232.6Z"/><path class="cls-2" d="M313.16,232.53h2.23v28.39c0,5.37-1.48,9.62-4.45,12.72a15.43,15.43,0,0,1-11.69,4.67,17.68,17.68,0,0,1-7.72-1.81,15.09,15.09,0,0,1-5.84-4.73v-3.2a14.32,14.32,0,0,0,5.67,5.56,15.55,15.55,0,0,0,7.89,2.23,13.15,13.15,0,0,0,10-4.14q3.9-4.14,3.89-11.3v-4.67a14.23,14.23,0,0,1-5.91,6.13,16.66,16.66,0,0,1-8.35,2.29,16,16,0,0,1-11.68-4.83,16.21,16.21,0,0,1,0-23.17,16,16,0,0,1,11.68-4.83,16.66,16.66,0,0,1,8.46,2.26,13.88,13.88,0,0,1,5.8,6.22Zm-28.59,15.72A14.62,14.62,0,0,0,299,262.72a13.5,13.5,0,0,0,10.05-4.28,14.54,14.54,0,0,0,0-20.38A13.54,13.54,0,0,0,299,233.78a14.62,14.62,0,0,0-14.44,14.47Z"/><path class="cls-2" d="M326,263.84h-2.22V232.53H326v6.33q3.56-7.1,12.11-7.09a13.22,13.22,0,0,1,9.81,4,13.48,13.48,0,0,1,4,9.81v18.23h-2.22V245.61a11.73,11.73,0,0,0-3.38-8.35,10.88,10.88,0,0,0-8.17-3.55,11.78,11.78,0,0,0-8.45,3.55,11.27,11.27,0,0,0-3.66,8.35Z"/><path class="cls-2" d="M172,323.8V274.07h12.22q9.8,0,14.46,3.74t4.67,11.55q0,7.23-4.71,11.35c-3.13,2.74-7.48,4.11-13,4.11h-2.92v19Zm10.7-27.27h1.52q4.35,0,6.32-1.8c1.32-1.2,2-3.13,2-5.78,0-2.44-.65-4.23-2-5.35s-3.42-1.68-6.32-1.68h-1.52Z"/><path class="cls-2" d="M239.92,309.54h-25a8.72,8.72,0,0,0,2.62,5.38,8.11,8.11,0,0,0,5.54,1.79,9.71,9.71,0,0,0,4.56-1,8.41,8.41,0,0,0,3.21-3.1l7.82,3.91A18.06,18.06,0,0,1,232,323a18.93,18.93,0,0,1-9.21,2.12q-8.09,0-12.8-4.83t-4.73-13a17.71,17.71,0,0,1,4.95-12.91,16.92,16.92,0,0,1,12.65-5.06q7.95,0,12.57,4.74T240.09,307c0,.3,0,.62,0,1S240,308.86,239.92,309.54Zm-9.58-5.85a7.26,7.26,0,0,0-2.29-4.77,7.71,7.71,0,0,0-5.15-1.61,8,8,0,0,0-5.21,1.61,7.57,7.57,0,0,0-2.5,4.77Z"/><path class="cls-2" d="M247.26,323.8V290.48h9.47v5.23a17.83,17.83,0,0,1,5.62-4.8,15.92,15.92,0,0,1,13.18-.24,9.58,9.58,0,0,1,4.16,4,10.58,10.58,0,0,1,1.07,3.14,32.74,32.74,0,0,1,.33,5.49V323.8h-9.68V307.33q0-6.15-1.43-8.12t-4.89-2a8.26,8.26,0,0,0-3.69.83,7.75,7.75,0,0,0-4.07,5.08,20.37,20.37,0,0,0-.39,4.65v16Z"/><path class="cls-2" d="M323.58,323.26a29.81,29.81,0,0,1-.63,7.41,8.84,8.84,0,0,1-2.15,3.7,13,13,0,0,1-5.57,3.46A26.52,26.52,0,0,1,307,339q-8.12,0-12.33-2.58a9.42,9.42,0,0,1-4.59-7.84h10.64a3.61,3.61,0,0,0,1.76,2.85,9,9,0,0,0,4.52.92c2.63,0,4.52-.68,5.69-2s1.75-3.63,1.75-6.8v-4.75a12.76,12.76,0,0,1-4.67,4.58,13.25,13.25,0,0,1-6.47,1.5,13.68,13.68,0,0,1-11-4.81q-4.11-4.8-4.11-13t4-13q4-4.69,11.08-4.69a12.46,12.46,0,0,1,6.47,1.68,13.51,13.51,0,0,1,4.74,4.94v-5.5h9.1Zm-8.76-16.17a10.2,10.2,0,0,0-2.24-7,7.75,7.75,0,0,0-6.12-2.55,7.88,7.88,0,0,0-6.22,2.53,10.18,10.18,0,0,0-2.24,7,10.06,10.06,0,0,0,2.21,6.93,9,9,0,0,0,12.38,0A10,10,0,0,0,314.82,307.09Z"/><path class="cls-2" d="M342.6,290.48V308q0,4.41,1.72,6.32c1.14,1.26,3,1.9,5.59,1.9s4.41-.64,5.57-1.92,1.73-3.38,1.73-6.3V290.48h9.68V308q0,8.79-4.11,13T350,325.13q-8.79,0-12.92-4.15T333,308V290.48Z"/><path class="cls-2" d="M375.72,276.79a5.7,5.7,0,0,1,5.64-5.64,5.56,5.56,0,0,1,4,1.65,5.39,5.39,0,0,1,1.68,4,5.45,5.45,0,0,1-1.68,4,5.54,5.54,0,0,1-4,1.67,5.37,5.37,0,0,1-4-1.7A5.52,5.52,0,0,1,375.72,276.79Zm.85,47V290.48h9.65V323.8Z"/><path class="cls-2" d="M396,323.8V290.48h9.47v5.23a17.83,17.83,0,0,1,5.62-4.8,15.92,15.92,0,0,1,13.18-.24,9.58,9.58,0,0,1,4.16,4,10.88,10.88,0,0,1,1.08,3.14,34.13,34.13,0,0,1,.32,5.49V323.8h-9.68V307.33q0-6.15-1.43-8.12t-4.89-2a8.26,8.26,0,0,0-3.69.83,7.75,7.75,0,0,0-4.07,5.08,20.37,20.37,0,0,0-.39,4.65v16Z"/></svg>