<svg id="Layer_1" data-name="Layer 1" xmlns="http://www.w3.org/2000/svg" xmlns:xlink="http://www.w3.org/1999/xlink" viewBox="0 0 500 500"><defs><style>.cls-1{fill:url(#linear-gradient);}</style><linearGradient id="linear-gradient" x1="153.34" y1="250" x2="346.66" y2="250" gradientUnits="userSpaceOnUse"><stop offset="0" stop-color="#56ccf2"/><stop offset="1" stop-color="#2f80ed"/></linearGradient></defs><title>logo</title><path class="cls-1" d="M219.07,433.25a4.56,4.56,0,0,1-2.66-.86c-1.07-.77-26.63-19.34-44-53-16.08-31.21-27.68-81.62,8.41-144.51,28.56-49.75,38.75-80.55,33-99.87-4.7-15.9-20.55-24.07-40.61-34.41-5.67-2.92-11.53-5.94-17.61-9.37a4.57,4.57,0,0,1,.94-8.35l3.7-1.12C185.72,74,263.08,50.45,309.64,85.27c24.95,18.65,37.4,51,37,96.09-1.19,137.8-.26,175.14,0,181.58a4.62,4.62,0,0,1,0,.65v.91A69.08,69.08,0,1,1,321,309.88a4.57,4.57,0,0,1-5.75,7.1,60,60,0,1,0,22.23,47.31c-.12-2.92-1.28-33.9,0-183,.36-42-10.86-71.88-33.35-88.7C264.74,63.1,198.93,79.8,169.71,88.43c2.62,1.37,5.2,2.7,7.74,4,21.13,10.89,39.39,20.3,45.19,39.95,6.55,22.2-3.58,54.2-33.89,107-27.26,47.51-30.08,93.09-8.38,135.47,16.31,31.85,41.12,49.95,41.37,50.12a4.57,4.57,0,0,1-2.67,8.28Z"/></svg>